<svg width="438" height="437" viewBox="0 0 438 437" fill="none" xmlns="http://www.w3.org/2000/svg">


<style>
.p1 {
    animation-name: jiggle;
    animation-duration: 1s;
    animation-iteration-count: infinite;
    animation-timing-function: linear;
}






@keyframes jiggle {
  1% {
    transform: translate(0px, 0px) rotate(0deg);
  }
  5% {
    transform: translate(1px, -1px) rotate(-1deg);
  }
  10% {
    transform: translate(2px, -2px) rotate(0deg);
  }
  15% {
    transform: translate(3px, -3px) rotate(1deg);
  }
  20% {
    transform: translate(2px, -2px) rotate(0deg);
  }
  25% {
    transform: translate(1px, -1px) rotate(-1deg);
  }
  30% {
    transform: translate(0px, 0px) rotate(0deg);
  }
  35% {
    transform: translate(-1px, 1px) rotate(1deg);
  }
  40% {
    transform: translate(-2px, 2px) rotate(0deg);
  }
  45% {
    transform: translate(-3px, 3px) rotate(-1deg);
  }
  50% {
    transform: translate(-2px, 2px) rotate(1deg);
  }
  55% {
    transform: translate(-1px, 1px) rotate(1deg);
  }
  60% {
    transform: translate(0px, 0px) rotate(0deg);
  }
}
  
  .v1 {
    transform-origin: center;
    animation-name:transtX;
    transform-box: fill-box;
    animation-fill-mode: both;
    animation-duration: 5.5s;
    animation-iteration-count: infinite;
}

@keyframes  transtX{
	0% {
   transform: translateY(0px);
   }
	50% {
       transform: translateY(-38px);

   }
	100% { 
       transform: translateY(0px);

   }
}


.v0-1 {
  animation-name: sc-2;
  transform-box: fill-box;
  animation-fill-mode: both;
	animation-duration: 1.5s;
  transform-origin: left top;
	animation-iteration-count: infinite;
  animation-delay: .2s;

}

.v0-2 {
  animation-delay: .4s;
  animation-name: sc-2;
  transform-box: fill-box;
  animation-fill-mode: both;
	animation-duration: 1.5s;
  transform-origin: left top;
	animation-iteration-count: infinite;
}

.v0-3 {
  animation-delay: .6s;
  animation-name: sc-2;
  transform-box: fill-box;
  animation-fill-mode: both;
	animation-duration: 1.5s;
  transform-origin: left top;
	animation-iteration-count: infinite;
}

.v0-4 {
  animation-delay: .8s;
  animation-name: sc-2;
  transform-box: fill-box;
  animation-fill-mode: both;
	animation-duration: 1.5s;
  transform-origin: left top;
	animation-iteration-count: infinite;
}

.v0-5 {
  animation-delay: .8s;
  animation-name: sc-2;
  transform-box: fill-box;
  animation-fill-mode: both;
	animation-duration: 1.5s;
  transform-origin: left top;
	animation-iteration-count: infinite;
}

.v0-6 {
  animation-delay: .8s;
  animation-name: sc-2;
  transform-box: fill-box;
  animation-fill-mode: both;
	animation-duration: 1.5s;
  transform-origin: left top;
	animation-iteration-count: infinite;
}

.v0-7 {
  animation-delay: .8s;
  animation-name: sc-2;
  transform-box: fill-box;
  animation-fill-mode: both;
	animation-duration: 1.5s;
  transform-origin: left top;
	animation-iteration-count: infinite;
}

.v0-8 {
  animation-delay: .8s;
  animation-name: sc-2;
  transform-box: fill-box;
  animation-fill-mode: both;
	animation-duration: 1.5s;
  transform-origin: left top;
	animation-iteration-count: infinite;
}

.v0-9 {
  animation-delay: .8s;
  animation-name: sc-2;
  transform-box: fill-box;
  animation-fill-mode: both;
	animation-duration: 1.5s;
  transform-origin: left top;
	animation-iteration-count: infinite;
}

.v0-10 {
  animation-delay: .8s;
  animation-name: sc-2;
  transform-box: fill-box;
  animation-fill-mode: both;
	animation-duration: 1.5s;
  transform-origin: left top;
	animation-iteration-count: infinite;
}

.v0-11 {
  animation-delay: .8s;
  animation-name: sc-2;
  transform-box: fill-box;
  animation-fill-mode: both;
	animation-duration: 1.5s;
  transform-origin: left top;
	animation-iteration-count: infinite;
}
.v0-12{
  animation-delay: .8s;
  animation-name: sc-2;
  transform-box: fill-box;
  animation-fill-mode: both;
	animation-duration: 1.5s;
  transform-origin: left top;
	animation-iteration-count: infinite;
}



@keyframes  sc-2 {
	0% {
   transform: scalex(1);
   }
	50% {
       transform: scaleX(0);

   }
	100% { 
       transform: scalex(1);
   }
}


.ro {
  animation-delay: .6s;
  animation-name: ro-2;
  transform-box: fill-box;
  animation-fill-mode: both;
	animation-duration: 3.5s;
  transform-origin: center top;
	animation-iteration-count: infinite;
}


@keyframes ro-2 {
	0% {
    transform: rotate(0deg);
   }
	50% {
    transform: rotate(10deg);

   }
	100% { 
    transform: rotate(0deg);
   }
}

</style>









<path d="M123.717 266.03C119.654 265.604 115.62 264.933 111.637 264.021C76.5851 255.961 48.5011 224.749 41.5781 189.759C39.3031 178.259 31.8501 152.011 15.4961 154.876C27.0251 152.856 36.1811 145.713 48.8491 149.476C59.7491 152.714 66.4251 163.496 74.5271 170.703C76.4381 141.271 38.6891 127.79 33.3651 100.471C31.9881 93.411 32.3651 82.882 38.0091 78.485C38.3801 86.485 43.5881 95.859 49.0631 101.624C55.3801 108.276 64.6541 114.158 74.0511 110.771C84.1281 107.139 86.0391 97.68 85.1101 88.117C83.0891 67.257 66.4381 49.463 65.1191 28.971C64.5341 19.863 66.7071 6.39297 74.5821 0.917969C76.9441 8.98897 78.2011 17.682 80.8961 25.818C83.7731 34.508 88.1861 42.692 92.9961 50.443C101.139 63.564 121.185 74.043 131.202 56.055C140.931 38.584 120.721 20.685 114.108 6.13697C138.763 5.15097 152.789 34.357 156.858 54.737C160.151 71.237 154.07 83.5 146.802 97.797C142.09 107.066 139.525 136.076 158.474 128.34C172.108 122.775 168.937 93.095 175.75 81.514C179.803 74.626 187.387 67.244 195.756 67.034C189.619 80.134 184.672 99.734 185.143 114.554C185.643 130.227 203.124 149.067 213.164 127.328C215.58 122.095 215.786 116.146 216.004 110.498C216.801 111.041 217.444 111.78 217.872 112.644C235.554 140.501 222.726 162.344 208.623 188.06C200.89 202.16 204.478 219.286 197.375 233.646C184.045 260.606 151.472 268.952 123.717 266.03Z" fill="#F5931D"/>
<path d="M313.682 315.392C316.496 316.487 319.374 317.412 322.3 318.162C348.064 324.732 377.086 313.728 393.482 293.078C398.87 286.291 412.655 271.565 422.432 278.984C415.539 273.753 411.94 265.96 402.342 264.143C394.079 262.579 386.042 267.405 378.281 269.399C386.99 249.408 416.358 253.331 429.107 237.182C432.402 233.008 435.722 225.963 433.499 221.162C430.548 226.291 423.95 230.69 418.399 232.626C411.999 234.858 403.91 235.584 398.882 230.177C393.489 224.377 395.436 217.515 399.282 211.545C407.676 198.522 424.639 192.464 432.443 179.445C435.91 173.658 439.043 164.07 435.721 157.806C431.436 162.311 427.667 167.598 423.14 172.035C418.202 176.688 412.735 180.744 406.851 184.121C397.058 189.987 380.337 190.086 379.844 174.874C379.365 160.1 398.706 155.174 407.977 147.857C392.109 138.862 373.003 153.307 363.428 165.325C355.679 175.052 355.528 185.171 355.459 197.025C355.417 204.711 347.282 224.644 337.448 213.145C330.372 204.873 342.505 186.445 341.948 176.524C341.616 170.624 339.131 163.207 333.703 160.236C333.303 170.925 329.916 185.477 324.59 195.057C318.957 205.188 301.09 211.65 301.851 193.965C302.034 189.708 303.913 185.729 305.682 181.943C304.974 182.031 304.302 182.298 303.728 182.721C282.676 195.042 283.713 213.737 284.274 235.414C284.581 247.299 276.426 257.337 276.232 269.179C275.873 291.404 294.453 307.916 313.682 315.392Z" fill="#F5931D"/>
<path d="M395.088 352.941V363.718" stroke="#F5931D" stroke-width="3" stroke-linecap="round" stroke-linejoin="round"/>
<path d="M400.476 358.329H389.699" stroke="#F5931D" stroke-width="3" stroke-linecap="round" stroke-linejoin="round"/>
<path d="M7.23242 108.738V119.515" stroke="#F5931D" stroke-width="3" stroke-linecap="round" stroke-linejoin="round"/>
<path d="M12.6208 114.126H1.84375" stroke="#F5931D" stroke-width="3" stroke-linecap="round" stroke-linejoin="round"/>
<path d="M234.891 23.2158V33.9928" stroke="#F5931D" stroke-width="3" stroke-linecap="round" stroke-linejoin="round"/>
<path d="M240.279 28.6035H229.502" stroke="#F5931D" stroke-width="3" stroke-linecap="round" stroke-linejoin="round"/>
<path d="M389.977 118.195V128.972" stroke="#F5931D" stroke-width="3" stroke-linecap="round" stroke-linejoin="round"/>
<path d="M395.365 123.583H384.588" stroke="#F5931D" stroke-width="3" stroke-linecap="round" stroke-linejoin="round"/>
<path d="M28.9668 327.518V338.295" stroke="#F5931D" stroke-width="3" stroke-linecap="round" stroke-linejoin="round"/>
<path d="M34.3551 332.905H23.5781" stroke="#F5931D" stroke-width="3" stroke-linecap="round" stroke-linejoin="round"/>
<path d="M389.225 50.7849C393.207 49.8899 395.709 45.9362 394.814 41.9542C393.919 37.9722 389.966 35.4697 385.984 36.3647C382.002 37.2598 379.499 41.2134 380.394 45.1955C381.289 49.1775 385.243 51.68 389.225 50.7849Z" fill="#F5931D"/>
<path d="M14.3186 216.508C18.2908 215.57 20.7507 211.59 19.813 207.618C18.8753 203.646 14.895 201.186 10.9228 202.123C6.95057 203.061 4.49066 207.041 5.4284 211.014C6.36615 214.986 10.3464 217.446 14.3186 216.508Z" fill="#F5931D"/>
<path d="M278.963 434.622C282.934 433.681 285.391 429.699 284.451 425.728C283.51 421.756 279.528 419.299 275.556 420.24C271.585 421.181 269.128 425.163 270.069 429.134C271.009 433.106 274.991 435.563 278.963 434.622Z" fill="#F5931D"/>


<g class="v1"> 
    <path d="M312.371 77.1037L178.082 53.4087C174.259 52.7341 170.34 52.8192 166.55 53.6591C162.759 54.499 159.172 56.0772 155.991 58.3037C152.811 60.5302 150.1 63.3613 148.014 66.6354C145.928 69.9095 144.507 73.5624 143.832 77.3857L95.1901 353.071C94.5154 356.894 94.6004 360.813 95.4402 364.603C96.28 368.394 97.8582 371.982 100.085 375.162C102.311 378.343 105.142 381.053 108.417 383.14C111.691 385.226 115.344 386.647 119.167 387.322L253.456 411.022C257.279 411.696 261.198 411.611 264.988 410.771C268.779 409.931 272.366 408.353 275.547 406.127C278.727 403.9 281.438 401.069 283.524 397.795C285.611 394.521 287.032 390.868 287.706 387.045L336.35 111.355C337.025 107.531 336.94 103.612 336.1 99.8217C335.26 96.0311 333.681 92.4431 331.455 89.2626C329.228 86.082 326.397 83.3712 323.122 81.285C319.848 79.1988 316.195 77.7779 312.371 77.1037Z" fill="#292F3A"/>
    <path d="M329.512 112.249L281.589 383.861C280.434 390.406 276.727 396.224 271.283 400.035C265.838 403.846 259.103 405.339 252.558 404.184L122.348 381.209C115.804 380.054 109.986 376.346 106.175 370.902C102.364 365.458 100.871 358.723 102.025 352.178L149.949 80.566C150.521 77.3258 151.726 74.2299 153.494 71.4553C155.263 68.6806 157.561 66.2815 160.256 64.3948C162.952 62.5082 165.993 61.171 169.205 60.4597C172.418 59.7483 175.739 59.6768 178.979 60.249L309.189 83.224C312.43 83.7942 315.527 84.9975 318.303 86.765C321.078 88.5325 323.478 90.8296 325.366 93.5251C327.253 96.2206 328.591 99.2616 329.303 102.474C330.014 105.687 330.085 109.009 329.512 112.249Z" fill="#79C4F2"/>
    <path d="M141.88 85.5014L142.386 85.5906L137.544 113L137.038 112.911C136.3 112.78 135.643 112.362 135.212 111.748C134.781 111.133 134.612 110.373 134.742 109.634L138.599 87.7973C138.73 87.0578 139.149 86.4004 139.764 85.9698C140.38 85.5392 141.141 85.3707 141.88 85.5014Z" fill="#12181C"/>
    <path d="M330.102 149.695L329.597 149.606L334.439 122.196L334.944 122.285C335.683 122.416 336.34 122.834 336.77 123.449C337.201 124.063 337.37 124.823 337.241 125.562L333.383 147.399C333.253 148.139 332.833 148.796 332.218 149.226C331.603 149.657 330.842 149.826 330.102 149.695Z" fill="#12181C"/>
    <path d="M135.796 119.977L136.302 120.066L131.46 147.476L130.954 147.387C130.216 147.256 129.559 146.838 129.128 146.223C128.697 145.609 128.528 144.848 128.658 144.109L132.515 122.273C132.646 121.533 133.065 120.876 133.68 120.445C134.296 120.015 135.057 119.846 135.796 119.977Z" fill="#12181C"/>
</g>
<g style="mix-blend-mode:multiply">
<path d="M289.548 200.504L287.115 224.933C286.743 228.666 286.206 232.348 285.504 235.979C281.431 256.999 271.87 276.568 257.792 292.7C243.714 308.832 225.619 320.953 205.344 327.834C186.921 317.139 171.636 301.787 161.022 283.317C150.408 264.847 144.84 243.911 144.875 222.609C144.881 218.703 145.081 214.775 145.475 210.825L147.908 186.396C148.222 183.254 149.548 180.299 151.687 177.976C153.826 175.653 156.662 174.088 159.767 173.517L217.903 162.817L221.857 162.087L266.524 179.959L280.472 185.543C283.403 186.717 285.872 188.81 287.51 191.509C289.147 194.208 289.864 197.366 289.551 200.507L289.548 200.504Z" fill="#50B1E2"/>
</g>
<path d="M295.078 195.971L292.645 220.4C292.273 224.133 291.736 227.815 291.034 231.445C286.962 252.465 277.402 272.034 263.324 288.166C249.246 304.299 231.151 316.42 210.875 323.301C192.452 312.606 177.166 297.254 166.552 278.784C155.938 260.314 150.37 239.377 150.406 218.075C150.41 214.17 150.61 210.242 151.006 206.291L153.436 181.871C153.749 178.729 155.074 175.773 157.212 173.45C159.35 171.126 162.185 169.56 165.29 168.988L223.426 158.288L227.38 157.558L272.047 175.431L285.996 181.014C288.927 182.188 291.396 184.282 293.033 186.981C294.67 189.68 295.387 192.837 295.074 195.979L295.078 195.971Z" fill="#89182B"/>
<path d="M285.438 195.02L283.005 219.443C282.252 227.022 280.718 234.504 278.428 241.769C273.379 257.813 264.78 272.514 253.271 284.779C241.761 297.045 227.636 306.559 211.944 312.617C194.867 301.753 181.056 286.461 171.982 268.369C162.909 250.277 158.913 230.062 160.42 209.879C160.483 209 160.562 208.131 160.649 207.255L163.082 182.832C163.191 181.781 163.635 180.794 164.35 180.017C165.065 179.24 166.012 178.715 167.05 178.52L207.901 170.999L226.38 167.599L263.486 182.446L282.398 190.011C283.094 190.291 283.716 190.729 284.215 191.29C284.714 191.851 285.076 192.519 285.274 193.244C285.444 193.819 285.5 194.423 285.438 195.02Z" fill="#DF383F"/>
<g style="mix-blend-mode:multiply">
<path d="M285.272 193.242C285.075 192.518 284.712 191.849 284.213 191.288C283.714 190.727 283.093 190.289 282.396 190.009L263.484 182.444L226.378 167.597L207.899 170.997L167.048 178.518C166.081 178.701 165.192 179.173 164.497 179.87C163.802 180.568 163.334 181.459 163.154 182.427L202.871 175.115L221.35 171.715L258.456 186.563L277.368 194.128C278.064 194.408 278.686 194.846 279.185 195.407C279.684 195.968 280.047 196.637 280.244 197.361C280.414 197.937 280.469 198.54 280.407 199.138L277.975 223.561C277.222 231.141 275.687 238.623 273.397 245.888C267.169 265.649 255.587 283.299 239.937 296.879C258.099 282.876 271.532 263.643 278.426 241.771C280.717 234.506 282.25 227.024 283.003 219.445L285.436 195.022C285.499 194.423 285.443 193.819 285.272 193.242Z" fill="#721019"/>
</g>
<path d="M238.933 285.833C236.81 288.107 234.357 290.049 231.655 291.594C229.172 293.026 226.493 294.09 223.703 294.752L222.953 294.923C218.903 295.797 214.717 295.841 210.65 295.05C206.582 294.259 202.717 292.651 199.289 290.323C194.423 287.043 190.583 282.456 188.209 277.09C185.386 270.619 183.623 263.735 182.989 256.704C182.592 252.008 183.166 247.28 184.676 242.816C186.185 238.352 188.598 234.246 191.764 230.756C196.022 225.968 200.747 218.69 199.413 210.956C199.413 210.956 207.374 232.019 196.579 247.256C196.579 247.256 209.14 240.345 211.237 219.294C211.237 219.294 210.861 195.374 232.67 185.521C232.67 185.521 220.593 207.703 225.449 227.129C225.852 228.698 226.369 230.235 226.997 231.729C228.553 235.523 232.771 246.494 232.167 252.564C232.167 252.564 238.783 242.913 235.705 224.221C235.103 220.646 235.692 216.973 237.381 213.766C239.276 210.201 242.852 206.613 249.602 205.826C249.602 205.826 241.553 217.956 248.75 239.993C249.866 243.323 250.579 246.775 250.873 250.275C251.55 259.001 250.469 273.525 238.933 285.833Z" fill="#FFB133"/>
<path d="M231.656 291.594C229.173 293.026 226.494 294.09 223.704 294.752L222.954 294.923C218.904 295.798 214.718 295.841 210.65 295.051C206.583 294.26 202.718 292.651 199.29 290.323C194.504 284.94 186.624 272.938 189.553 254.45C190.366 258.241 192.066 261.785 194.512 264.793C195.278 265.701 196.244 266.419 197.334 266.891C198.424 267.364 199.608 267.578 200.795 267.516C201.981 267.455 203.137 267.12 204.172 266.537C205.208 265.955 206.094 265.141 206.762 264.159C209.056 260.78 211.191 255.278 211.673 246.359C211.673 246.359 211.002 226.65 219.347 217.422C219.347 217.422 217.197 239.003 223.434 250.88C225.636 254.524 227.325 258.456 228.452 262.562C228.598 263.14 228.906 263.664 229.339 264.073C229.772 264.482 230.312 264.76 230.897 264.873C231.482 264.986 232.088 264.93 232.642 264.711C233.196 264.493 233.677 264.121 234.027 263.639C237.668 258.632 241.646 250.058 239.58 237.878C239.58 237.882 256.247 260.894 231.656 291.594Z" fill="#FFDF5A"/>
<g style="mix-blend-mode:overlay" opacity="0.2">
<path d="M321.929 89.6487L123.767 228.371L103.59 342.734L314.836 194.847L329.413 112.231C330.137 108.141 329.832 103.936 328.526 99.9936C327.219 96.0513 324.952 92.4962 321.929 89.6487ZM264.075 75.2637L134.816 165.749L130.087 192.549L290.877 79.9897L264.075 75.2637ZM122.248 381.192L147.208 385.592L300.06 278.588L309.305 226.196L105 369.211C106.833 372.34 109.326 375.032 112.304 377.101C115.283 379.17 118.676 380.566 122.248 381.192Z" fill="white"/>
</g>
<path d="M211.736 180.26C224.863 177.195 233.02 164.068 229.954 150.941C226.889 137.814 213.763 129.657 200.636 132.723C187.509 135.788 179.352 148.914 182.417 162.041C185.482 175.168 198.609 183.325 211.736 180.26Z" fill="#F9AA2B"/>
<path d="M210.531 175.022C220.762 172.627 227.115 162.391 224.72 152.16C222.325 141.929 212.089 135.576 201.858 137.971C191.626 140.366 185.274 150.602 187.669 160.833C190.064 171.064 200.299 177.417 210.531 175.022Z" fill="#E9393C"/>
<path d="M212.491 144.093V168.893H204.131V150.399H199.881V144.093H212.491Z" fill="white"/>
<path d="M204.245 122.61L200.848 87.7354" stroke="white" stroke-width="4" stroke-linecap="round" stroke-linejoin="round"/>
<path d="M180.736 135.495L167.928 119.515" stroke="white" stroke-width="4" stroke-linecap="round" stroke-linejoin="round"/>
<path d="M229.176 132.594L242.287 116.046" stroke="white" stroke-width="4" stroke-linecap="round" stroke-linejoin="round"/>
<path d="M178.658 100.889L192.937 128.971" stroke="white" stroke-linecap="round" stroke-linejoin="round"/>
<path d="M224.176 98.4238L217.445 129.2" stroke="white" stroke-linecap="round" stroke-linejoin="round"/>

<g class="ro"> 
    <path d="M106.744 198.706L79.8398 205.612L88.3177 238.639L115.221 231.732L106.744 198.706Z" fill="#2C2E3B"/>
    <path d="M85.4141 196.566L137.375 191.516C138.026 191.452 138.682 191.517 139.307 191.708C139.933 191.898 140.514 192.21 141.019 192.625C141.524 193.04 141.942 193.55 142.249 194.127C142.557 194.704 142.748 195.335 142.811 195.986C142.939 197.299 142.54 198.61 141.702 199.629C140.863 200.649 139.655 201.294 138.341 201.422L86.3801 206.472L85.4141 196.566Z" fill="#2C2E3B"/>
    <path d="M107.077 189.804L145.955 179.824C146.66 179.643 147.322 179.325 147.904 178.888C148.486 178.451 148.977 177.904 149.347 177.278C149.718 176.651 149.961 175.958 150.064 175.237C150.166 174.517 150.126 173.783 149.945 173.078C149.764 172.373 149.446 171.711 149.009 171.129C148.572 170.547 148.025 170.056 147.398 169.686C146.772 169.315 146.079 169.072 145.358 168.969C144.638 168.867 143.904 168.907 143.199 169.088L84.1139 184.255C81.6876 184.879 79.6084 186.441 78.3333 188.598C77.0581 190.754 76.6915 193.329 77.3139 195.755L80.4759 208.074L100.627 202.901C103.07 202.274 105.163 200.702 106.447 198.532C107.731 196.361 108.1 193.769 107.473 191.326L107.077 189.804Z" fill="#B22632"/>
    <path d="M98.5703 222.724C88.4797 225.315 79.8314 231.808 74.5278 240.774C69.2243 249.741 67.7 260.448 70.2903 270.538L103.413 399.571C104.578 404.106 107.496 407.993 111.526 410.377C115.556 412.761 120.368 413.446 124.903 412.282L166.803 401.527C171.338 400.363 175.225 397.445 177.609 393.414C179.992 389.384 180.677 384.572 179.513 380.037L146.39 251.004C145.108 246.007 142.853 241.312 139.756 237.186C136.658 233.06 132.779 229.585 128.338 226.959C123.897 224.333 118.983 222.607 113.875 221.881C108.768 221.154 103.567 221.441 98.5703 222.724Z" fill="#E9393C"/>
    <path d="M98.5698 222.724C96.3626 223.294 94.2089 224.053 92.1328 224.994C101.343 224.281 110.51 226.836 118.024 232.212C125.537 237.587 130.915 245.438 133.214 254.385L166.336 383.413C167.5 387.951 166.815 392.765 164.43 396.797C162.045 400.829 158.156 403.748 153.619 404.913L166.79 401.532C171.327 400.367 175.216 397.448 177.601 393.416C179.986 389.384 180.671 384.57 179.507 380.032L146.39 251.004C145.107 246.007 142.853 241.312 139.755 237.186C136.658 233.06 132.778 229.585 128.337 226.959C123.897 224.333 118.982 222.607 113.875 221.881C108.767 221.154 103.567 221.441 98.5698 222.724Z" fill="#FF9292"/>
    <path d="M116.863 396.114L83.7413 267.086C81.4522 258.162 82.3723 248.717 86.3407 240.403C90.3092 232.089 97.0736 225.435 105.451 221.603C103.129 221.772 100.826 222.148 98.5703 222.725C88.4797 225.315 79.8314 231.808 74.5278 240.775C69.2243 249.741 67.7 260.448 70.2903 270.539L103.411 399.572C104.576 404.109 107.496 407.998 111.528 410.383C115.56 412.767 120.374 413.453 124.911 412.289L138.362 408.836C136.115 409.412 133.777 409.54 131.48 409.213C129.184 408.886 126.974 408.109 124.978 406.928C122.981 405.747 121.237 404.183 119.845 402.328C118.452 400.472 117.439 398.361 116.863 396.114Z" fill="#A52525"/>
    <g style="mix-blend-mode:overlay">
    <path d="M148.863 260.663L104.23 272.12L121.402 339.013L166.035 327.556L148.863 260.663Z" fill="white"/>
    </g>
    <path d="M99.1506 233.393C105.043 233.072 109.559 228.035 109.238 222.143C108.917 216.25 103.88 211.734 97.9875 212.055C92.0951 212.376 87.5787 217.413 87.8999 223.306C88.2211 229.198 93.2582 233.715 99.1506 233.393Z" fill="#898989"/>
    <path d="M105.457 220.956C105.108 219.594 104.362 218.366 103.314 217.428C102.266 216.49 100.964 215.883 99.5717 215.685C98.1793 215.487 96.7595 215.706 95.4918 216.315C94.224 216.924 93.1652 217.895 92.4493 219.105C91.7334 220.316 91.3925 221.711 91.4697 223.116C91.5469 224.52 92.0388 225.87 92.8831 226.994C93.7274 228.119 94.8862 228.968 96.2131 229.434C97.5399 229.9 98.9752 229.963 100.337 229.613C102.164 229.144 103.73 227.968 104.69 226.345C105.65 224.721 105.926 222.783 105.457 220.956Z" fill="white"/>
    <path d="M81.1622 210.724L61.3984 215.803L65.369 231.254L85.1327 226.176L81.1622 210.724Z" fill="#C5CCD3"/>
    <path d="M52.9227 230.541L64.4258 227.588L62.3399 219.462L50.8369 222.415L52.9227 230.541Z" fill="#ACB3BC"/>
    <path d="M62.0081 348.514L53.0081 350.825L29.8821 260.751C27.7571 252.435 29.0177 243.615 33.3873 236.227C37.7569 228.839 44.8787 223.486 53.1901 221.343L55.5011 230.343C49.5756 231.871 44.4984 235.687 41.3841 240.955C38.2698 246.222 37.3728 252.511 38.8901 258.439L62.0081 348.514Z" fill="#292F39"/>
    <path d="M87.8697 403.37L56.7697 411.354L48.6797 351.933L66.3347 347.401L87.8697 403.37Z" fill="#363F4C"/>
    <path d="M81.0887 405.115L75.8187 406.471L57.0527 349.784L62.3127 348.434L81.0887 405.115Z" fill="#4E5A66"/>
</g>

<path d="M307.58 229.267L238.839 361.588C236.212 366.645 238.181 372.874 243.238 375.501L326.717 418.868C331.774 421.496 338.003 419.526 340.63 414.469L409.371 282.148C411.998 277.091 410.029 270.862 404.972 268.235L321.492 224.868C316.436 222.241 310.207 224.21 307.58 229.267Z" fill="#F9AA2B"/>
<g style="mix-blend-mode:multiply">
<path d="M329.149 414.188L245.669 370.821C244.466 370.197 243.398 369.341 242.526 368.304C241.655 367.267 240.996 366.068 240.587 364.776C240.178 363.484 240.028 362.124 240.145 360.774C240.262 359.424 240.644 358.111 241.269 356.908L238.838 361.588C238.213 362.791 237.831 364.104 237.714 365.454C237.597 366.804 237.747 368.164 238.156 369.456C238.565 370.747 239.224 371.946 240.096 372.983C240.967 374.02 242.035 374.876 243.238 375.5L326.718 418.871C329.146 420.132 331.976 420.377 334.585 419.552C337.194 418.727 339.368 416.899 340.63 414.471L343.061 409.792C341.798 412.22 339.624 414.047 337.015 414.871C334.406 415.695 331.576 415.45 329.149 414.188Z" fill="#F9AA2B"/>
</g>
<path d="M404.52 277.699L314.01 230.679L249.029 355.761L339.539 402.781L404.52 277.699Z" fill="white"/>
<path d="M404.52 277.699L314.01 230.679L300.966 255.787L391.476 302.807L404.52 277.699Z" fill="#E9393C"/>
<path d="M293.136 325.909C292.569 327.001 291.691 327.9 290.613 328.492C289.535 329.085 288.306 329.344 287.081 329.238C285.855 329.132 284.689 328.665 283.729 327.896C282.769 327.127 282.059 326.09 281.688 324.917C281.317 323.745 281.302 322.488 281.645 321.307C281.989 320.126 282.674 319.073 283.616 318.282C284.557 317.49 285.712 316.996 286.935 316.861C288.157 316.726 289.393 316.956 290.484 317.523C291.209 317.9 291.852 318.415 292.378 319.041C292.903 319.666 293.301 320.388 293.547 321.167C293.793 321.946 293.884 322.765 293.813 323.579C293.743 324.393 293.513 325.185 293.136 325.909Z" fill="#D6393D"/>
<path d="M350.835 348.971L302.307 323.761C301.57 323.378 300.662 323.665 300.279 324.402L300.028 324.887C299.645 325.624 299.932 326.532 300.669 326.915L349.196 352.125C349.933 352.508 350.841 352.22 351.224 351.483L351.476 350.999C351.859 350.262 351.572 349.354 350.835 348.971Z" fill="#C5CAD7"/>
<path d="M316.3 338.041L299.44 329.278C298.703 328.895 297.795 329.182 297.412 329.919L297.16 330.403C296.777 331.14 297.064 332.048 297.801 332.431L314.662 341.194C315.399 341.577 316.307 341.29 316.689 340.553L316.941 340.069C317.324 339.332 317.037 338.424 316.3 338.041Z" fill="#C5CAD7"/>
<path d="M314.544 283.535C314.749 280.106 312.137 277.16 308.708 276.955C305.28 276.749 302.334 279.362 302.128 282.79C301.923 286.219 304.535 289.165 307.964 289.37C311.392 289.576 314.338 286.963 314.544 283.535Z" fill="#D6393D"/>
<path class="v0-1" d="M370.977 310.197L322.45 284.987C321.713 284.604 320.805 284.891 320.422 285.629L320.17 286.113C319.787 286.85 320.074 287.758 320.811 288.141L369.339 313.351C370.076 313.734 370.984 313.447 371.367 312.71L371.618 312.225C372.001 311.488 371.714 310.58 370.977 310.197Z" fill="#C5CAD7"/>
<path class="v0-2" d="M346.79 304.64L319.583 290.506C318.846 290.123 317.938 290.41 317.555 291.147L317.303 291.632C316.92 292.369 317.207 293.277 317.944 293.66L345.152 307.794C345.889 308.177 346.797 307.89 347.18 307.153L347.432 306.668C347.815 305.931 347.527 305.023 346.79 304.64Z" fill="#C5CAD7"/>
<path class="v0-3" d="M303.496 305.972C302.929 307.064 302.051 307.963 300.973 308.555C299.895 309.148 298.666 309.408 297.441 309.302C296.215 309.195 295.049 308.728 294.089 307.959C293.129 307.19 292.418 306.154 292.047 304.981C291.676 303.808 291.662 302.552 292.005 301.371C292.348 300.19 293.034 299.137 293.975 298.345C294.917 297.554 296.072 297.059 297.295 296.924C298.517 296.789 299.752 297.02 300.844 297.587C302.307 298.348 303.409 299.658 303.906 301.23C304.403 302.803 304.256 304.508 303.496 305.972Z" fill="#F2B040"/>
<path class="v0-4" d="M360.62 330.139L312.092 304.929C311.355 304.546 310.447 304.833 310.064 305.57L309.813 306.055C309.43 306.792 309.717 307.7 310.454 308.083L358.981 333.293C359.718 333.676 360.626 333.388 361.009 332.651L361.261 332.167C361.644 331.43 361.357 330.522 360.62 330.139Z" fill="#C5CAD7"/>
<path class="v0-5" d="M345.633 329.361L309.225 310.447C308.488 310.064 307.58 310.351 307.197 311.089L306.946 311.573C306.563 312.31 306.85 313.218 307.587 313.601L343.994 332.515C344.731 332.898 345.639 332.611 346.022 331.873L346.274 331.389C346.657 330.652 346.37 329.744 345.633 329.361Z" fill="#C5CAD7"/>
<path class="v0-6" d="M283.465 343.392C283.693 339.965 281.1 337.002 277.673 336.773C274.246 336.545 271.282 339.138 271.054 342.565C270.826 345.992 273.419 348.956 276.846 349.184C280.273 349.412 283.236 346.819 283.465 343.392Z" fill="#F2B040"/>
<path class="v0-7" d="M339.879 370.016L291.373 344.807C290.636 344.424 289.729 344.711 289.346 345.447L289.094 345.932C288.711 346.668 288.998 347.576 289.735 347.959L338.24 373.169C338.977 373.552 339.885 373.265 340.268 372.528L340.519 372.044C340.902 371.307 340.615 370.399 339.879 370.016Z" fill="#C5CAD7"/>
<path class="v0-8" d="M315.714 364.459L288.507 350.324C287.769 349.941 286.861 350.228 286.479 350.966L286.227 351.45C285.844 352.187 286.131 353.095 286.868 353.478L314.076 367.612C314.813 367.995 315.721 367.708 316.104 366.971L316.355 366.487C316.738 365.75 316.451 364.842 315.714 364.459Z" fill="#C5CAD7"/>
<g style="mix-blend-mode:multiply">
<path d="M404.972 268.235L321.489 224.872C320.287 224.247 318.973 223.865 317.623 223.748C316.273 223.632 314.913 223.782 313.621 224.19C312.329 224.599 311.131 225.258 310.093 226.13C309.056 227.002 308.201 228.069 307.576 229.272L300.244 243.387C300.869 242.184 301.724 241.117 302.761 240.245C303.798 239.373 304.997 238.714 306.289 238.305C307.581 237.897 308.94 237.747 310.29 237.864C311.64 237.98 312.954 238.362 314.156 238.987L397.636 282.355C398.839 282.979 399.906 283.835 400.778 284.872C401.65 285.909 402.309 287.108 402.718 288.399C403.126 289.691 403.276 291.051 403.159 292.401C403.042 293.751 402.661 295.064 402.036 296.267L409.369 282.152C409.995 280.949 410.377 279.635 410.494 278.285C410.612 276.935 410.462 275.575 410.054 274.282C409.646 272.99 408.987 271.791 408.115 270.753C407.243 269.715 406.175 268.86 404.972 268.235Z" fill="#C67A00"/>
</g>
<path d="M373.16 278.949L331.017 257.056C329.434 256.232 328.243 254.813 327.704 253.111C327.166 251.41 327.325 249.564 328.146 247.979L336.19 232.501C336.337 232.221 336.589 232.01 336.891 231.914C337.193 231.819 337.52 231.846 337.802 231.991L389.769 258.991C390.049 259.138 390.26 259.39 390.356 259.692C390.451 259.994 390.424 260.322 390.279 260.603L382.238 276.082C381.413 277.665 379.994 278.856 378.292 279.393C376.59 279.931 374.744 279.771 373.16 278.949ZM337.76 234.664L330.27 249.082C329.74 250.104 329.638 251.294 329.985 252.39C330.332 253.487 331.099 254.402 332.12 254.933L374.263 276.827C375.284 277.357 376.474 277.459 377.571 277.112C378.668 276.765 379.583 275.997 380.115 274.976L387.605 260.559L337.76 234.664Z" fill="#363F4C"/>
<path d="M366.213 270.355L342.041 257.798C340.573 257.035 338.765 257.607 338.002 259.075L337.502 260.038C336.739 261.505 337.311 263.313 338.779 264.076L362.952 276.634C364.419 277.396 366.228 276.825 366.99 275.357L367.49 274.394C368.253 272.926 367.681 271.118 366.213 270.355Z" fill="#20272E"/>
<path d="M393.263 258.338L378.968 250.912C379.176 249.032 378.811 247.133 377.92 245.465C377.029 243.797 375.655 242.437 373.977 241.564L361.133 234.892C359.454 234.021 357.551 233.678 355.674 233.909C353.797 234.139 352.033 234.932 350.615 236.183L336.321 228.757C335.525 228.343 334.596 228.263 333.741 228.533C332.885 228.804 332.172 229.404 331.758 230.2C331.344 230.996 331.264 231.925 331.534 232.78C331.805 233.636 332.405 234.349 333.201 234.763L390.142 264.344C390.938 264.758 391.867 264.838 392.722 264.568C393.578 264.297 394.292 263.698 394.705 262.901C395.119 262.105 395.2 261.177 394.929 260.321C394.659 259.465 394.059 258.752 393.263 258.338Z" fill="#20272E"/>
<g class="p1"> 
    <path d="M258.046 107.2C256.287 101.256 255.594 95.0472 255.999 88.8613C256.451 82.6272 257.942 76.5126 260.41 70.7703C262.903 65.0402 266.349 59.7745 270.603 55.1973C274.786 50.6173 279.786 46.8576 285.347 44.1113C280.37 47.6031 275.883 51.7455 272.005 56.4283L271.279 57.2923L270.603 58.1923L269.237 59.9863C268.804 60.6013 268.395 61.2323 267.973 61.8523C267.551 62.4723 267.128 63.0933 266.763 63.7523C266.398 64.4113 265.99 65.0383 265.603 65.6813C265.216 66.3243 264.896 67.0033 264.539 67.6633C263.803 68.9713 263.233 70.3633 262.602 71.7193C262.275 72.3943 262.036 73.1063 261.748 73.7983C261.486 74.4983 261.164 75.1813 260.948 75.8983C260.481 77.3233 259.99 78.7413 259.628 80.1983C258.832 83.0976 258.237 86.0482 257.847 89.0293C257.157 95.071 257.224 101.175 258.046 107.2Z" fill="#292F3A"/>
    <path d="M267.927 105.022C266.442 100.396 265.794 95.5432 266.015 90.6905C266.015 89.4675 266.198 88.2585 266.315 87.0425C266.378 86.4345 266.506 85.8365 266.599 85.2315C266.709 84.6315 266.783 84.0215 266.923 83.4265C267.063 82.8315 267.207 82.2365 267.355 81.6425L267.58 80.7525L267.854 79.8765L268.403 78.1235C268.603 77.5445 268.833 76.9775 269.046 76.4035C269.955 74.1296 271.03 71.9256 272.263 69.8095C273.529 67.7194 274.96 65.7334 276.542 63.8705C276.942 63.4115 277.323 62.9355 277.742 62.4935C278.161 62.0515 278.586 61.6155 279.018 61.1875C279.869 60.3226 280.764 59.5012 281.699 58.7265C283.555 57.1788 285.554 55.8119 287.67 54.6445C285.861 56.1965 284.136 57.8446 282.504 59.5815C281.697 60.4465 280.893 61.3115 280.173 62.2465C279.808 62.7095 279.43 63.1595 279.057 63.6125C278.684 64.0655 278.357 64.5575 278.006 65.0265C272.456 72.6072 268.964 81.4956 267.869 90.8265C267.358 95.5455 267.377 100.307 267.927 105.022Z" fill="#292F3A"/>
    <path d="M372.621 81.9326C370.833 76.1235 368.326 70.5604 365.16 65.3726C363.552 62.8321 361.771 60.4054 359.829 58.1096C358.887 56.9406 357.846 55.8606 356.823 54.7646C356.328 54.2006 355.749 53.7186 355.216 53.1926C354.664 52.6866 354.147 52.1406 353.566 51.6656C352.422 50.6976 351.321 49.6776 350.103 48.8006C349.503 48.3516 348.921 47.8756 348.303 47.4496C347.685 47.0236 347.055 46.6186 346.44 46.1876C345.825 45.7566 345.188 45.3606 344.54 44.9756C343.892 44.5906 343.259 44.1896 342.609 43.8136L340.615 42.7606L339.621 42.2246L338.598 41.7466C333.11 39.1288 327.297 37.2579 321.312 36.1836C327.513 36.3359 333.631 37.6436 339.353 40.0396C345.138 42.4029 350.48 45.7304 355.152 49.8806C359.806 54.0508 363.73 58.9696 366.762 64.4336C369.733 69.8748 371.716 75.7994 372.621 81.9326Z" fill="#292F3A"/>
    <path d="M362.741 84.1108C361.256 79.6059 359.272 75.281 356.826 71.2168C351.908 63.2099 345 56.6136 336.775 52.0708C336.259 51.7928 335.755 51.4878 335.228 51.2288C334.701 50.9698 334.166 50.7288 333.64 50.4598C332.594 49.9138 331.501 49.4668 330.405 49.0218C328.193 48.1331 325.935 47.3633 323.641 46.7158C326.051 46.885 328.44 47.2841 330.775 47.9078C331.948 48.2163 333.106 48.5834 334.243 49.0078C334.815 49.2138 335.381 49.4368 335.949 49.6558C336.517 49.8748 337.06 50.1558 337.617 50.3998C339.836 51.4226 341.971 52.6211 344 53.9838C346.008 55.3845 347.911 56.9314 349.692 58.6118C350.127 59.0428 350.576 59.4598 350.999 59.9018L352.235 61.2608L352.852 61.9408L353.431 62.6538C353.814 63.1308 354.2 63.6058 354.572 64.0908C354.944 64.5758 355.272 65.0908 355.626 65.5908C355.964 66.0998 356.332 66.5908 356.645 67.1128C357.259 68.1698 357.937 69.1878 358.445 70.2998C360.687 74.6112 362.142 79.2882 362.741 84.1108Z" fill="#292F3A"/>
    <path d="M341.105 117.978L301.811 126.625L305.257 142.288L344.551 133.641L341.105 117.978Z" fill="#B22632"/>
    <path d="M356.434 130.995L292.375 145.123L299.111 175.668L363.17 161.54L356.434 130.995Z" fill="#E9393C"/>
    <path d="M356.434 130.995L292.375 145.123L293.425 149.884L357.484 135.756L356.434 130.995Z" fill="#FF7676"/>
    <path d="M362.18 157.052L298.121 171.18L299.111 175.667L363.169 161.539L362.18 157.052Z" fill="#B22632"/>
    <path d="M342.812 125.79C342.812 125.79 369.252 122.076 366.513 97.0739L369.103 96.5029C369.103 96.5029 379.418 123.965 344.128 131.748L342.812 125.79Z" fill="#2A303A"/>
    <path d="M373.091 95.1811C373.173 95.5475 373.216 95.9216 373.22 96.2971C373.239 97.715 372.712 99.0859 371.749 100.127C370.786 101.167 369.46 101.798 368.045 101.889C366.63 101.98 365.234 101.524 364.146 100.615C363.057 99.7066 362.36 98.4144 362.197 97.0058C362.034 95.5972 362.418 94.1799 363.271 93.0467C364.123 91.9135 365.378 91.1511 366.777 90.9168C368.175 90.6826 369.61 90.9945 370.785 91.7881C371.96 92.5817 372.786 93.7964 373.091 95.1811Z" fill="#ACB3BC"/>
    <path d="M373.091 95.1811C373.174 95.5475 373.217 95.9216 373.22 96.2971C372.513 96.9855 371.636 97.4726 370.677 97.7078C369.719 97.943 368.715 97.9179 367.77 97.635C366.825 97.3521 365.973 96.8218 365.301 96.0988C364.63 95.3759 364.164 94.4866 363.951 93.5231C363.869 93.1583 363.826 92.7859 363.822 92.4121C364.529 91.7243 365.407 91.2377 366.364 91.0025C367.322 90.7674 368.325 90.7922 369.27 91.0745C370.215 91.3568 371.067 91.8862 371.739 92.6082C372.411 93.3301 372.878 94.2183 373.091 95.1811Z" fill="#DDE6ED"/>
    <path d="M354.143 86.0065C356.048 94.6617 355.004 103.705 351.178 111.699C347.351 119.693 340.962 126.178 333.027 130.123C325.091 134.068 316.064 135.246 307.381 133.471C298.698 131.696 290.859 127.068 285.108 120.325C279.358 113.581 276.027 105.109 275.646 96.2546C275.265 87.4005 277.855 78.6731 283.004 71.4603C288.154 64.2474 295.567 58.9633 304.065 56.4481C312.562 53.9329 321.657 54.3312 329.903 57.5795C335.964 59.9682 341.344 63.8102 345.571 68.7672C349.798 73.7243 352.742 79.6444 354.143 86.0065Z" fill="#ACB3BC"/>
    <path d="M348.78 87.1866C347.694 82.2391 345.521 77.5951 342.419 73.5907C339.317 69.5863 335.363 66.3219 330.844 64.0336C330.285 63.74 329.803 63.319 329.436 62.8048C329.069 62.2905 328.829 61.6973 328.734 61.073C328.638 60.4487 328.691 59.8107 328.888 59.2105C329.084 58.6103 329.419 58.0647 329.865 57.6176L329.902 57.5796C322.545 54.6841 314.492 54.047 306.771 55.7496C299.05 57.4522 292.012 61.4173 286.555 67.1386L286.606 67.1586C287.199 67.3767 287.732 67.7309 288.162 68.1927C288.593 68.6545 288.909 69.2111 289.085 69.8174C289.261 70.4238 289.293 71.0631 289.176 71.6838C289.06 72.3044 288.8 72.8891 288.416 73.3906C285.283 77.3695 283.072 81.9939 281.943 86.9305C280.813 91.867 280.793 96.9927 281.883 101.938C282.974 106.883 285.148 111.525 288.249 115.529C291.35 119.532 295.3 122.798 299.816 125.091C300.375 125.384 300.857 125.805 301.223 126.32C301.59 126.834 301.83 127.427 301.925 128.051C302.02 128.675 301.968 129.313 301.771 129.913C301.575 130.513 301.24 131.059 300.794 131.506L300.757 131.546C308.114 134.441 316.167 135.077 323.888 133.375C331.609 131.672 338.647 127.707 344.104 121.986L344.054 121.966C343.461 121.748 342.928 121.393 342.498 120.932C342.067 120.47 341.751 119.913 341.575 119.307C341.399 118.701 341.367 118.061 341.483 117.441C341.599 116.82 341.86 116.235 342.243 115.734C345.381 111.757 347.595 107.133 348.726 102.196C349.856 97.2589 349.875 92.132 348.78 87.1866Z" fill="#DDE6ED"/>
    <path d="M332.899 95.2146C333.258 85.5132 325.686 77.357 315.984 76.9972C306.283 76.6374 298.127 84.2102 297.767 93.9116C297.407 103.613 304.98 111.769 314.681 112.129C324.383 112.489 332.539 104.916 332.899 95.2146Z" fill="#2A303A"/>
    <path d="M328.496 100.252C331.638 92.982 328.292 84.5415 321.022 81.3993C313.752 78.2572 305.312 81.6033 302.17 88.873C299.028 96.1428 302.374 104.583 309.644 107.725C316.913 110.868 325.354 107.522 328.496 100.252Z" fill="#ACB3BC"/>
    <path d="M316.278 103.575C321.257 103.049 324.867 98.5868 324.341 93.6081C323.815 88.6295 319.353 85.0199 314.374 85.5458C309.395 86.0717 305.786 90.534 306.312 95.5126C306.838 100.491 311.3 104.101 316.278 103.575Z" fill="#DDE6ED"/>
</g>

</svg>
