<svg width="380" height="421" viewBox="0 0 380 421" fill="none" xmlns="http://www.w3.org/2000/svg">
<path d="M189.184 302.311C236.077 302.311 274.091 264.297 274.091 217.404C274.091 170.511 236.077 132.497 189.184 132.497C142.292 132.497 104.277 170.511 104.277 217.404C104.277 264.297 142.292 302.311 189.184 302.311Z" fill="#BFC1BF"/>
<path d="M249.222 277.442C282.381 244.283 282.381 190.523 249.222 157.365C216.064 124.207 162.304 124.207 129.146 157.365C95.9875 190.523 95.9875 244.283 129.146 277.442C162.304 310.6 216.064 310.6 249.222 277.442Z" fill="#BFC1BF"/>
<path d="M242.831 271.05C272.459 241.422 272.459 193.385 242.831 163.757C213.203 134.128 165.166 134.128 135.537 163.757C105.909 193.385 105.909 241.422 135.537 271.05C165.166 300.678 213.203 300.678 242.831 271.05Z" fill="#F9FAFB"/>
<path d="M189.446 378.194C175.311 378.184 161.238 376.32 147.588 372.649C122.058 365.808 98.6088 352.777 79.318 334.709C60.0273 316.641 45.4901 294.095 36.9943 269.067C28.4984 244.039 26.3061 217.302 30.6115 191.224C34.917 165.146 45.5872 140.533 61.6771 119.564C77.767 98.5953 98.78 81.9181 122.855 71.0099C146.929 60.1017 173.323 55.2992 199.697 57.0277C226.071 58.7562 251.612 66.9624 274.057 80.9195C296.502 94.8765 315.158 114.154 328.374 137.043C372.685 213.792 346.295 312.282 269.546 356.592C245.213 370.72 217.582 378.171 189.446 378.194ZM188.927 58.6141C164.587 58.6531 140.583 64.2881 118.768 75.0835C96.9536 85.879 77.9135 101.546 63.1193 120.873C48.3251 140.201 38.173 162.671 33.4477 186.547C28.7224 210.424 29.5504 235.067 35.8677 258.572C42.185 282.078 53.8225 303.816 69.8806 322.107C85.9388 340.397 105.988 354.751 128.477 364.058C150.967 373.364 175.296 377.376 199.583 375.781C223.871 374.186 247.466 367.028 268.546 354.86C344.34 311.101 370.401 213.837 326.646 138.043C316.269 119.956 302.408 104.108 285.865 91.4138C269.322 78.7199 250.426 69.4332 230.27 64.0911C216.787 60.4656 202.888 58.6242 188.927 58.6141Z" fill="#BFC1BF"/>
<path d="M127.749 184.936C127.223 184.937 126.705 184.799 126.249 184.536L59.1442 145.789C58.8028 145.592 58.5035 145.33 58.2634 145.017C58.0234 144.705 57.8473 144.348 57.7451 143.967C57.643 143.586 57.6168 143.189 57.6681 142.798C57.7195 142.407 57.8473 142.031 58.0442 141.689C58.2412 141.348 58.5035 141.048 58.8162 140.808C59.1288 140.568 59.4857 140.392 59.8664 140.29C60.2471 140.188 60.6443 140.162 61.0351 140.213C61.4259 140.264 61.8028 140.392 62.1442 140.589L129.252 179.333C129.825 179.663 130.273 180.173 130.526 180.783C130.78 181.394 130.824 182.071 130.653 182.709C130.482 183.348 130.105 183.912 129.581 184.314C129.056 184.716 128.413 184.934 127.752 184.933L127.749 184.936Z" fill="#BFC1BF"/>
<path d="M60.6479 294.616C59.9869 294.617 59.3441 294.399 58.8195 293.997C58.2948 293.595 57.9177 293.031 57.7467 292.392C57.5757 291.753 57.6203 291.076 57.8737 290.466C58.1271 289.855 58.575 289.346 59.1479 289.016L126.256 250.272C126.597 250.075 126.974 249.947 127.365 249.896C127.756 249.844 128.153 249.871 128.534 249.973C128.914 250.075 129.271 250.251 129.584 250.491C129.897 250.731 130.159 251.03 130.356 251.372C130.553 251.713 130.681 252.09 130.732 252.481C130.783 252.872 130.757 253.269 130.655 253.65C130.553 254.03 130.377 254.387 130.137 254.7C129.897 255.012 129.597 255.275 129.256 255.472L62.1479 294.216C61.6921 294.48 61.1745 294.618 60.6479 294.616Z" fill="#BFC1BF"/>
<path d="M189.184 368.83C188.388 368.83 187.625 368.514 187.062 367.951C186.5 367.389 186.184 366.626 186.184 365.83V288.339C186.184 287.543 186.5 286.78 187.062 286.218C187.625 285.655 188.388 285.339 189.184 285.339C189.979 285.339 190.742 285.655 191.305 286.218C191.868 286.78 192.184 287.543 192.184 288.339V365.83C192.184 366.626 191.868 367.389 191.305 367.951C190.742 368.514 189.979 368.83 189.184 368.83Z" fill="#BFC1BF"/>
<path d="M317.721 294.616C317.194 294.618 316.677 294.48 316.221 294.216L249.113 255.472C248.423 255.074 247.92 254.418 247.714 253.65C247.508 252.881 247.615 252.061 248.013 251.372C248.411 250.682 249.066 250.179 249.835 249.973C250.604 249.766 251.423 249.874 252.113 250.272L319.221 289.016C319.794 289.346 320.242 289.855 320.495 290.466C320.749 291.076 320.793 291.753 320.622 292.392C320.451 293.031 320.074 293.595 319.549 293.997C319.025 294.399 318.382 294.617 317.721 294.616Z" fill="#BFC1BF"/>
<path d="M250.619 184.936C249.958 184.937 249.315 184.719 248.79 184.317C248.266 183.915 247.888 183.351 247.717 182.712C247.546 182.074 247.591 181.397 247.844 180.786C248.098 180.176 248.546 179.666 249.119 179.336L316.227 140.592C316.916 140.194 317.736 140.087 318.504 140.293C319.273 140.499 319.929 141.003 320.327 141.692C320.724 142.382 320.832 143.201 320.626 143.97C320.419 144.739 319.916 145.394 319.227 145.792L252.116 184.529C251.661 184.794 251.145 184.934 250.619 184.936Z" fill="#BFC1BF"/>
<path d="M189.184 149.468C188.388 149.468 187.625 149.152 187.062 148.59C186.5 148.027 186.184 147.264 186.184 146.468V68.9795C186.184 68.1838 186.5 67.4208 187.062 66.8582C187.625 66.2956 188.388 65.9795 189.184 65.9795C189.979 65.9795 190.742 66.2956 191.305 66.8582C191.868 67.4208 192.184 68.1838 192.184 68.9795V146.468C192.184 147.264 191.868 148.027 191.305 148.59C190.742 149.152 189.979 149.468 189.184 149.468Z" fill="#BFC1BF"/>
<path d="M250.685 226.971C255.968 193.006 232.717 161.188 198.751 155.904C164.786 150.62 132.968 173.872 127.684 207.838C122.4 241.803 145.652 273.621 179.618 278.905C213.583 284.188 245.401 260.937 250.685 226.971Z" fill="#F5931D"/>
<path d="M189.082 280.67C172.982 280.675 157.483 274.556 145.728 263.555C133.973 252.553 126.842 237.493 125.781 221.428C124.719 205.363 129.808 189.496 140.014 177.044C150.22 164.593 164.779 156.488 180.74 154.375C196.7 152.262 212.867 156.298 225.962 165.664C239.057 175.031 248.1 189.027 251.256 204.815C254.412 220.602 251.446 236.999 242.959 250.68C234.473 264.362 221.1 274.304 205.554 278.489C200.182 279.933 194.644 280.666 189.082 280.67ZM189.288 156.175C174.435 156.158 160.082 161.542 148.906 171.323C137.729 181.105 130.49 194.618 128.539 209.342C126.588 224.066 130.058 238.997 138.302 251.352C146.545 263.707 159 272.643 173.345 276.494C187.69 280.345 202.946 278.849 216.269 272.284C229.592 265.718 240.073 254.532 245.759 240.811C251.445 227.089 251.947 211.769 247.172 197.704C242.397 183.64 232.67 171.792 219.806 164.368C210.524 159.016 200.002 156.192 189.288 156.175Z" fill="#6FC4F0"/>
<path d="M237.162 198.598C233.378 188.954 226.776 180.674 218.216 174.838C209.657 169.002 199.537 165.881 189.178 165.881C178.818 165.881 168.699 169.002 160.14 174.838C151.58 180.674 144.978 188.954 141.193 198.598H237.162Z" fill="#F5931D"/>
<path d="M238.627 199.598H139.727L140.264 198.232C141.226 195.783 142.37 193.41 143.685 191.132C148.629 182.563 155.892 175.565 164.638 170.943C173.384 166.32 183.257 164.262 193.122 165.003C202.987 165.745 212.441 169.258 220.398 175.136C228.354 181.015 234.489 189.02 238.096 198.232L238.627 199.598ZM142.684 197.598H235.675C231.995 188.959 225.982 181.515 218.309 176.103C210.636 170.691 201.607 167.523 192.234 166.956C182.862 166.388 173.516 168.443 165.246 172.89C156.976 177.337 150.109 184.001 145.415 192.133C144.395 193.898 143.483 195.723 142.684 197.598Z" fill="#6FC4F0"/>
<path d="M141.203 236.21C144.741 245.246 150.759 253.1 158.564 258.866C166.369 264.633 175.644 268.078 185.321 268.806C194.998 269.534 204.683 267.514 213.263 262.98C221.842 258.445 228.967 251.58 233.817 243.175C235.107 240.94 236.229 238.612 237.173 236.21H141.203Z" fill="#F5931D"/>
<path d="M189.097 269.936C178.549 269.925 168.249 266.736 159.54 260.785C150.832 254.834 144.118 246.397 140.275 236.574L139.742 235.209H238.642L238.104 236.576C237.141 239.024 235.998 241.397 234.684 243.676C230.061 251.671 223.414 258.308 215.411 262.917C207.408 267.527 198.333 269.948 189.097 269.936ZM142.697 237.209C146.951 247.308 154.406 255.729 163.916 261.174C175.529 267.861 189.319 269.668 202.262 266.2C215.206 262.732 226.245 254.271 232.958 242.674C233.977 240.908 234.889 239.083 235.69 237.208L142.697 237.209Z" fill="#6FC4F0"/>
<path d="M112.937 151.004C117.252 122.124 97.3387 95.2141 68.4588 90.8991C39.579 86.584 12.6693 106.498 8.35417 135.377C4.03908 164.257 23.9527 191.167 52.8325 195.482C81.7123 199.797 108.622 179.884 112.937 151.004Z" fill="#F9FAFB"/>
<path d="M60.7328 197.087C55.9954 197.084 51.2788 196.46 46.7038 195.23C34.6646 192.004 24.1164 184.704 16.8563 174.573C9.59632 164.442 6.07374 152.107 6.88881 139.669C7.70388 127.232 12.8062 115.462 21.3263 106.366C29.8464 97.2686 41.2572 91.4073 53.6144 89.7804C65.9716 88.1534 78.5107 90.8616 89.095 97.4433C99.6793 104.025 107.654 114.073 111.66 125.876C115.667 137.678 115.457 150.504 111.067 162.169C106.676 173.834 98.3768 183.616 87.5828 189.848C79.4262 194.583 70.164 197.08 60.7328 197.087ZM60.5588 91.3299C52.6067 91.3434 44.7641 93.1851 37.6373 96.7129C30.5104 100.241 24.2902 105.36 19.4573 111.675C14.6244 117.99 11.3083 125.332 9.76525 133.133C8.22222 140.934 8.4936 148.985 10.5584 156.664C12.6232 164.344 16.4262 171.446 21.6733 177.421C26.9205 183.396 33.4713 188.085 40.8195 191.125C48.1677 194.165 56.1165 195.474 64.0515 194.952C71.9865 194.43 79.6952 192.09 86.5818 188.114C96.4775 182.402 104.21 173.582 108.579 163.024C112.947 152.467 113.707 140.762 110.74 129.728C107.773 118.694 101.246 108.948 92.1718 102.005C83.0977 95.0616 71.9846 91.309 60.5588 91.3299Z" fill="#BFC1BF"/>
<path d="M206.68 118.874C234.236 109.212 248.741 79.0412 239.079 51.4857C229.417 23.9302 199.246 9.42483 171.691 19.087C144.135 28.7493 129.63 58.9202 139.292 86.4757C148.954 114.031 179.125 128.537 206.68 118.874Z" fill="#F9FAFB"/>
<path d="M189.273 122.874C184.535 122.871 179.818 122.246 175.242 121.015C162.124 117.465 150.846 109.062 143.694 97.5067C136.541 85.9518 134.049 72.1098 136.722 58.7857C139.395 45.4617 147.034 33.6521 158.09 25.7502C169.146 17.8482 182.792 14.4448 196.264 16.2297C209.736 18.0147 222.025 24.8543 230.642 35.3628C239.259 45.8712 243.558 59.2625 242.669 72.8229C241.78 86.3833 235.769 99.0987 225.855 108.392C215.94 117.686 202.863 122.863 189.273 122.874ZM189.104 17.1168C177.691 17.1364 166.603 20.9202 157.559 27.8817C148.515 34.8432 142.02 44.5937 139.081 55.6217C136.141 66.6497 136.922 78.3394 141.301 88.8788C145.68 99.4182 153.414 108.219 163.303 113.916C173.192 119.614 184.685 121.89 195.999 120.392C207.313 118.894 217.818 113.706 225.884 105.632C233.95 97.5576 239.127 87.0479 240.614 75.7321C242.1 64.4162 239.812 52.9261 234.104 43.0428C229.569 35.1254 223.014 28.5536 215.108 23.9987C207.202 19.4437 198.228 17.0689 189.104 17.1168Z" fill="#BFC1BF"/>
<path d="M317.724 196.064C346.924 196.064 370.596 172.393 370.596 143.192C370.596 113.992 346.924 90.3203 317.724 90.3203C288.523 90.3203 264.852 113.992 264.852 143.192C264.852 172.393 288.523 196.064 317.724 196.064Z" fill="#F9FAFB"/>
<path d="M317.811 197.087C313.073 197.084 308.356 196.459 303.78 195.228C291.741 192.002 281.193 184.702 273.933 174.571C266.672 164.44 263.15 152.105 263.965 139.667C264.78 127.23 269.882 115.461 278.402 106.364C286.923 97.2666 298.333 91.4053 310.691 89.7784C323.048 88.1515 335.587 90.8596 346.171 97.4414C356.755 104.023 364.73 114.071 368.737 125.874C372.743 137.676 372.533 150.502 368.143 162.167C363.752 173.832 355.453 183.614 344.659 189.846C336.503 194.581 327.242 197.079 317.811 197.087ZM317.64 91.297C309.685 91.3094 301.84 93.1508 294.711 96.6787C287.581 100.207 281.358 105.327 276.523 111.643C271.688 117.959 268.37 125.303 266.825 133.106C265.281 140.909 265.551 148.963 267.616 156.645C269.68 164.327 273.484 171.432 278.732 177.41C283.98 183.387 290.532 188.078 297.882 191.12C305.232 194.162 313.183 195.473 321.121 194.951C329.058 194.43 336.77 192.091 343.659 188.114C352.544 182.984 359.708 175.335 364.246 166.134C368.783 156.933 370.491 146.593 369.152 136.421C367.813 126.25 363.488 116.704 356.724 108.99C349.959 101.277 341.06 95.7425 331.15 93.087C326.744 91.9023 322.202 91.3005 317.64 91.297Z" fill="#BFC1BF"/>
<path d="M327.213 343.63C355.939 338.39 374.978 310.855 369.738 282.128C364.498 253.402 336.963 234.363 308.236 239.603C279.51 244.843 260.471 272.378 265.711 301.105C270.951 329.831 298.486 348.87 327.213 343.63Z" fill="#F9FAFB"/>
<path d="M317.814 345.477C304.745 345.492 292.116 340.755 282.282 332.148C272.447 323.541 266.078 311.652 264.361 298.696C262.645 285.74 265.698 272.602 272.952 261.731C280.206 250.86 291.165 242.998 303.787 239.61C316.41 236.222 329.833 237.539 341.556 243.317C353.278 249.094 362.5 258.937 367.502 271.011C372.504 283.085 372.945 296.566 368.742 308.941C364.54 321.315 355.98 331.74 344.66 338.271C336.502 342.994 327.241 345.479 317.814 345.477ZM317.638 239.754C309.686 239.767 301.843 241.608 294.716 245.136C287.589 248.664 281.369 253.783 276.536 260.098C271.703 266.413 268.387 273.755 266.844 281.556C265.3 289.357 265.572 297.408 267.636 305.088C269.701 312.767 273.504 319.869 278.751 325.844C283.998 331.82 290.549 336.508 297.898 339.548C305.246 342.588 313.195 343.898 321.13 343.376C329.065 342.854 336.773 340.514 343.66 336.538C353.556 330.826 361.29 322.007 365.659 311.449C370.028 300.891 370.788 289.186 367.821 278.151C364.854 267.117 358.327 257.371 349.252 250.428C340.178 243.484 329.064 239.732 317.638 239.754Z" fill="#BFC1BF"/>
<path d="M61.6598 344.478C90.8549 343.917 114.068 319.796 113.507 290.601C112.947 261.406 88.8249 238.193 59.6298 238.754C30.4348 239.314 7.22201 263.436 7.78259 292.631C8.34316 321.826 32.4648 345.039 61.6598 344.478Z" fill="#F9FAFB"/>
<path d="M60.7349 345.477C47.6659 345.493 35.0369 340.756 25.2022 332.149C15.3674 323.542 8.99798 311.653 7.28124 298.697C5.5645 285.741 8.61757 272.603 15.8713 261.732C23.1251 250.861 34.0846 242.998 46.7068 239.61C59.329 236.222 72.7527 237.539 84.4754 243.316C96.1982 249.094 105.42 258.937 110.422 271.011C115.424 283.085 115.865 296.566 111.662 308.941C107.46 321.315 98.9003 331.74 87.5799 338.271C79.422 342.994 70.1616 345.48 60.7349 345.477ZM60.5569 239.754C52.6043 239.766 44.7612 241.608 37.6337 245.135C30.5063 248.663 24.2854 253.782 19.452 260.097C14.6186 266.413 11.3021 273.755 9.75885 281.556C8.21559 289.358 8.48692 297.409 10.5519 305.089C12.6168 312.769 16.42 319.871 21.6676 325.847C26.9152 331.822 33.4665 336.511 40.8153 339.551C48.164 342.591 56.1133 343.9 64.0488 343.377C71.9842 342.855 79.6932 340.515 86.5799 336.538C96.4756 330.826 104.208 322.006 108.577 311.448C112.945 300.89 113.705 289.185 110.738 278.151C107.771 267.117 101.244 257.372 92.1699 250.429C83.0958 243.485 71.9828 239.733 60.5569 239.754Z" fill="#BFC1BF"/>
<path d="M242.044 367.298C242.856 338.109 219.851 313.788 190.662 312.977C161.473 312.165 137.153 335.169 136.341 364.358C135.529 393.548 158.534 417.868 187.723 418.68C216.912 419.492 241.232 396.487 242.044 367.298Z" fill="#F9FAFB"/>
<path d="M189.281 419.689C176.216 419.704 163.592 414.967 153.761 406.362C143.929 397.757 137.563 385.871 135.847 372.919C134.132 359.967 137.184 346.834 144.436 335.966C151.688 325.098 162.644 317.238 175.263 313.851C187.881 310.464 201.3 311.781 213.02 317.557C224.739 323.332 233.958 333.172 238.959 345.242C243.96 357.312 244.401 370.789 240.2 383.16C236 395.531 227.444 405.953 216.127 412.483C207.969 417.206 198.708 419.692 189.281 419.689ZM189.102 313.93C181.149 313.943 173.304 315.785 166.176 319.314C159.048 322.842 152.826 327.962 147.992 334.278C143.157 340.594 139.84 347.937 138.296 355.74C136.752 363.542 137.023 371.595 139.087 379.276C141.151 386.957 144.954 394.061 150.202 400.038C155.449 406.016 162.001 410.706 169.35 413.748C176.699 416.79 184.649 418.101 192.586 417.58C200.523 417.06 208.233 414.721 215.122 410.746C224.007 405.616 231.171 397.967 235.708 388.766C240.246 379.565 241.953 369.225 240.614 359.053C239.275 348.882 234.95 339.336 228.185 331.623C221.421 323.91 212.522 318.375 202.612 315.72C198.207 314.535 193.665 313.933 189.102 313.93Z" fill="#BFC1BF"/>
<path d="M139.943 225.83V223.663C140.191 223.882 140.487 224.079 140.83 224.254C141.18 224.429 141.545 224.579 141.924 224.703C142.311 224.82 142.698 224.911 143.084 224.976C143.471 225.042 143.829 225.075 144.157 225.075C145.288 225.075 146.131 224.867 146.685 224.451C147.247 224.028 147.528 223.422 147.528 222.634C147.528 222.211 147.433 221.843 147.243 221.529C147.061 221.215 146.806 220.931 146.477 220.675C146.149 220.413 145.758 220.165 145.306 219.931C144.861 219.69 144.38 219.439 143.861 219.176C143.314 218.899 142.804 218.618 142.329 218.333C141.855 218.049 141.443 217.735 141.093 217.392C140.742 217.049 140.465 216.662 140.261 216.232C140.064 215.794 139.965 215.283 139.965 214.7C139.965 213.985 140.122 213.364 140.436 212.839C140.75 212.307 141.162 211.869 141.673 211.526C142.183 211.183 142.763 210.928 143.413 210.76C144.069 210.592 144.737 210.508 145.416 210.508C146.962 210.508 148.09 210.694 148.797 211.066V213.135C147.871 212.493 146.681 212.172 145.23 212.172C144.828 212.172 144.427 212.215 144.026 212.303C143.624 212.383 143.267 212.518 142.953 212.708C142.639 212.898 142.384 213.142 142.187 213.441C141.99 213.74 141.891 214.105 141.891 214.536C141.891 214.937 141.964 215.283 142.11 215.575C142.264 215.867 142.486 216.133 142.778 216.374C143.07 216.615 143.424 216.848 143.84 217.075C144.263 217.301 144.748 217.549 145.295 217.819C145.857 218.096 146.39 218.388 146.893 218.694C147.396 219.001 147.838 219.34 148.217 219.712C148.597 220.084 148.896 220.497 149.115 220.949C149.341 221.401 149.454 221.919 149.454 222.503C149.454 223.276 149.301 223.933 148.994 224.473C148.695 225.006 148.287 225.44 147.769 225.775C147.258 226.111 146.667 226.352 145.996 226.498C145.324 226.651 144.617 226.728 143.872 226.728C143.624 226.728 143.318 226.706 142.953 226.662C142.588 226.625 142.216 226.567 141.837 226.487C141.457 226.414 141.096 226.323 140.753 226.213C140.418 226.096 140.148 225.969 139.943 225.83ZM160.902 226.465H152.584V210.771H160.552V212.434H154.423V217.655H160.092V219.307H154.423V224.801H160.902V226.465ZM174.604 225.808C173.444 226.421 171.999 226.728 170.27 226.728C168.038 226.728 166.25 226.009 164.907 224.571C163.565 223.134 162.894 221.248 162.894 218.913C162.894 216.403 163.649 214.375 165.159 212.828C166.669 211.281 168.585 210.508 170.905 210.508C172.393 210.508 173.626 210.723 174.604 211.154V213.113C173.48 212.485 172.24 212.172 170.883 212.172C169.081 212.172 167.618 212.773 166.494 213.977C165.378 215.181 164.82 216.79 164.82 218.804C164.82 220.715 165.342 222.24 166.385 223.379C167.436 224.509 168.811 225.075 170.511 225.075C172.087 225.075 173.451 224.725 174.604 224.024V225.808ZM189.28 220.117C189.28 224.524 187.292 226.728 183.316 226.728C179.507 226.728 177.603 224.608 177.603 220.369V210.771H179.442V220.248C179.442 223.466 180.799 225.075 183.513 225.075C186.132 225.075 187.442 223.521 187.442 220.413V210.771H189.28V220.117ZM204.46 226.465H202.271L199.645 222.065C199.404 221.657 199.171 221.31 198.944 221.026C198.718 220.734 198.485 220.497 198.244 220.314C198.01 220.132 197.755 220 197.478 219.92C197.208 219.833 196.901 219.789 196.558 219.789H195.048V226.465H193.209V210.771H197.894C198.58 210.771 199.211 210.858 199.787 211.033C200.371 211.201 200.874 211.46 201.297 211.81C201.728 212.161 202.063 212.598 202.304 213.124C202.545 213.642 202.665 214.251 202.665 214.951C202.665 215.499 202.581 216.002 202.414 216.462C202.253 216.914 202.02 217.319 201.713 217.677C201.414 218.034 201.049 218.34 200.619 218.596C200.196 218.844 199.718 219.037 199.185 219.176V219.22C199.448 219.336 199.674 219.471 199.864 219.625C200.061 219.771 200.247 219.946 200.422 220.15C200.597 220.354 200.768 220.588 200.936 220.85C201.111 221.106 201.305 221.405 201.516 221.748L204.46 226.465ZM195.048 212.434V218.125H197.543C198.003 218.125 198.426 218.056 198.813 217.917C199.207 217.779 199.546 217.582 199.831 217.326C200.115 217.064 200.338 216.746 200.498 216.374C200.659 215.995 200.739 215.572 200.739 215.105C200.739 214.266 200.466 213.613 199.918 213.146C199.378 212.671 198.594 212.434 197.565 212.434H195.048ZM208.466 226.465H206.627V210.771H208.466V226.465ZM221.884 212.434H217.353V226.465H215.514V212.434H210.994V210.771H221.884V212.434ZM234.995 210.771L229.818 220.664V226.465H227.98V220.708L222.934 210.771H225.025L228.538 217.863C228.582 217.95 228.709 218.271 228.921 218.826H228.954C229.027 218.578 229.165 218.257 229.37 217.863L233.047 210.771H234.995Z" fill="#F9FAFB"/>
<path d="M211.321 315.144L200.91 309.094C203.716 310.694 205.291 311.585 208.096 313.194L218.507 319.244C215.702 317.63 214.126 316.743 211.321 315.144Z" fill="#A5CAC9"/>
<path d="M170.818 403.453L160.408 397.403L160.248 340.814L170.658 346.864L170.818 403.453Z" fill="#6FC4F0"/>
<path d="M170.657 346.866L160.246 340.816C163.033 335.983 164.594 333.28 167.381 328.453L177.791 334.503C175.003 339.33 173.444 342.03 170.657 346.866Z" fill="#6FC4F0"/>
<path d="M177.791 334.503L167.381 328.453L200.912 309.094L211.322 315.144L177.791 334.503Z" fill="#A5CAC9"/>
<path d="M211.321 315.144C214.121 316.744 215.701 317.635 218.507 319.244L218.667 375.832C215.88 380.66 214.315 383.365 211.528 388.193L177.997 407.552L170.816 403.459L170.656 346.871C173.443 342.038 175.003 339.335 177.79 334.508L211.321 315.144Z" fill="#C3DBDB"/>
<path d="M173.028 402.164L172.873 347.455L179.412 336.129L211.329 317.702C211.329 317.702 215.029 319.808 216.295 320.531L216.45 375.24L209.906 386.57L177.99 404.996L173.028 402.164Z" fill="#F5931D"/>
<path d="M164.359 349.17L165.521 348.495L166.707 349.18L165.545 349.855L164.359 349.17Z" fill="#F5931D"/>
<path d="M162.893 347.44L164.055 346.765C164.28 346.647 164.529 346.58 164.783 346.567C165.038 346.555 165.292 346.598 165.528 346.694L164.366 347.369C164.13 347.273 163.876 347.23 163.621 347.242C163.367 347.255 163.118 347.322 162.893 347.44Z" fill="#3A4D57"/>
<path d="M164.364 347.369L165.526 346.694L165.521 348.494L164.359 349.169L164.364 347.369Z" fill="#F5931D"/>
<path d="M165.552 348.054L166.714 347.379L166.709 349.179L165.547 349.854L165.552 348.054Z" fill="#F5931D"/>
<path d="M168.171 353.849L167.009 354.524C167.302 354.316 167.535 354.033 167.684 353.705C167.833 353.378 167.893 353.016 167.857 352.658C167.808 351.773 167.578 350.909 167.181 350.117C166.784 349.324 166.229 348.622 165.551 348.053L166.713 347.378C167.391 347.947 167.946 348.649 168.343 349.441C168.74 350.234 168.97 351.099 169.019 351.983C169.055 352.341 168.995 352.702 168.846 353.03C168.697 353.358 168.464 353.64 168.171 353.849Z" fill="#3A4D57"/>
<path d="M165.551 348.053C166.23 348.622 166.785 349.325 167.181 350.117C167.578 350.909 167.808 351.774 167.857 352.658C167.852 354.504 166.546 355.248 164.939 354.321C164.094 353.773 163.391 353.032 162.887 352.16C162.383 351.287 162.092 350.308 162.039 349.302C162.044 347.694 163.039 346.923 164.36 347.369L164.355 349.169L165.541 349.853L165.551 348.053Z" fill="#2C3A41"/>
<path d="M165.602 313.977L165.546 348.053L165.541 349.853L164.355 349.169L164.36 347.369L164.416 313.293L165.602 313.977Z" fill="#B54F28"/>
<path d="M164.422 313.293L165.584 312.618L166.77 313.303L165.608 313.978L164.422 313.293Z" fill="#F4875D"/>
<path d="M165.603 313.977L166.765 313.302L166.709 347.378L165.547 348.053L165.603 313.977Z" fill="#F16935"/>
<path d="M212.419 357.883L176.906 378.383V343.843L212.419 323.343V357.883Z" fill="#3A4D57"/>
<path d="M183.285 357.348L181.961 358.113V352.356L183.285 351.591C184.572 350.848 185.109 351.276 185.109 353.269V353.569C185.109 355.558 184.572 356.606 183.285 357.348ZM183.236 356.348C183.984 355.916 184.195 355.248 184.195 354.096V353.801C184.195 352.649 183.984 352.225 183.236 352.657L182.859 352.875V356.565L183.236 356.348Z" fill="#F9F8F7"/>
<path d="M188.279 348.709V349.742L186.533 350.75V352.02L188.002 351.171V352.205L186.533 353.053V354.441L188.279 353.43V354.463L185.635 355.99V350.23L188.279 348.709Z" fill="#F9F8F7"/>
<path d="M190.488 353.19L189.588 353.708V348.984L188.588 349.56V348.529L191.488 346.855V347.888L190.488 348.468V353.19Z" fill="#F9F8F7"/>
<path d="M194.537 345.095V346.13L192.791 347.138V348.407L194.261 347.559V348.593L192.791 349.441V350.83L194.537 349.822V350.856L191.893 352.382V346.625L194.537 345.095Z" fill="#F9F8F7"/>
<path d="M196.596 348.73L196.646 348.701C196.86 348.548 197.03 348.34 197.135 348.099C197.241 347.857 197.279 347.592 197.246 347.33L198.146 346.811V346.877C198.195 347.456 198.075 348.037 197.801 348.55C197.526 349.062 197.108 349.484 196.599 349.763C195.474 350.413 194.975 349.863 194.975 347.874V347.574C194.975 345.581 195.475 344.459 196.599 343.809C197.625 343.217 198.146 343.491 198.146 344.931V345.197L197.246 345.716C197.246 344.925 197.119 344.541 196.646 344.816L196.596 344.845C196.02 345.177 195.882 345.899 195.882 347.051V347.351C195.882 348.497 196.02 349.059 196.596 348.73Z" fill="#F9F8F7"/>
<path d="M200.281 347.536L199.381 348.054V343.329L198.381 343.905V342.872L201.281 341.198V342.229L200.281 342.808V347.536Z" fill="#F9F8F7"/>
<path d="M204.33 339.44V340.474L202.584 341.482V342.751L204.053 341.903V342.936L202.584 343.785V345.172L204.33 344.164V345.198L201.686 346.724V340.967L204.33 339.44Z" fill="#F9F8F7"/>
<path d="M206.183 344.13L204.859 344.895V339.13L206.183 338.365C207.469 337.623 208.007 338.051 208.007 340.044V340.344C208.007 342.337 207.469 343.385 206.183 344.13ZM206.134 343.125C206.882 342.693 207.093 342.025 207.093 340.873V340.573C207.093 339.422 206.882 338.998 206.134 339.43L205.756 339.647V343.338L206.134 343.125Z" fill="#F9F8F7"/>
<path d="M184.371 383.057L186.355 384.21C185.857 383.978 185.306 383.884 184.759 383.937C184.213 383.989 183.69 384.187 183.246 384.51L181.262 383.358C181.706 383.035 182.229 382.837 182.775 382.784C183.322 382.731 183.873 382.825 184.371 383.057Z" fill="#B54F28"/>
<path d="M180.166 394.866L178.182 393.713C177.74 393.4 177.39 392.975 177.165 392.482C176.941 391.989 176.852 391.445 176.906 390.906C176.986 389.394 177.422 387.923 178.179 386.611C178.936 385.3 179.992 384.186 181.262 383.361L183.246 384.513C181.976 385.338 180.92 386.452 180.163 387.763C179.406 389.075 178.97 390.546 178.89 392.058C178.835 392.597 178.924 393.141 179.149 393.635C179.373 394.128 179.724 394.553 180.166 394.866Z" fill="#B54F28"/>
<path d="M183.247 384.514C185.662 383.12 187.623 384.242 187.631 387.014C187.552 388.527 187.116 389.999 186.359 391.311C185.602 392.624 184.545 393.738 183.275 394.563C180.86 395.957 178.898 394.836 178.891 392.063C178.97 390.55 179.405 389.078 180.163 387.766C180.92 386.454 181.976 385.34 183.247 384.514Z" fill="#F16935"/>
<path d="M195.76 375.884L197.743 377.037C197.245 376.806 196.695 376.711 196.148 376.764C195.601 376.817 195.079 377.015 194.634 377.337L192.65 376.184C193.095 375.862 193.618 375.664 194.165 375.611C194.711 375.558 195.262 375.652 195.76 375.884Z" fill="#B58649"/>
<path d="M191.555 387.693L189.571 386.54C189.129 386.227 188.778 385.802 188.554 385.309C188.33 384.816 188.24 384.272 188.295 383.733C188.375 382.222 188.811 380.75 189.568 379.439C190.325 378.127 191.381 377.014 192.651 376.188L194.635 377.341C193.365 378.166 192.309 379.28 191.552 380.591C190.795 381.903 190.358 383.374 190.279 384.886C190.224 385.425 190.314 385.969 190.538 386.462C190.762 386.955 191.113 387.38 191.555 387.693Z" fill="#B58649"/>
<path d="M194.635 377.341C197.05 375.947 199.012 377.069 199.02 379.841C198.941 381.354 198.505 382.827 197.748 384.139C196.991 385.451 195.934 386.565 194.664 387.39C192.248 388.784 190.287 387.662 190.279 384.89C190.358 383.378 190.794 381.905 191.551 380.593C192.308 379.281 193.365 378.167 194.635 377.341Z" fill="#F2B361"/>
<path d="M202.574 314.84C202.662 314.871 202.739 314.928 202.794 315.004C202.848 315.08 202.878 315.172 202.878 315.265C202.878 315.359 202.848 315.45 202.794 315.527C202.739 315.603 202.662 315.66 202.574 315.69L199.153 317.677C198.927 317.793 198.675 317.854 198.42 317.854C198.166 317.854 197.914 317.793 197.687 317.677L194.249 315.693C194.161 315.663 194.084 315.606 194.029 315.53C193.975 315.453 193.945 315.362 193.945 315.268C193.945 315.175 193.975 315.083 194.029 315.007C194.084 314.931 194.161 314.874 194.249 314.843L197.668 312.856C197.896 312.74 198.147 312.68 198.402 312.68C198.657 312.68 198.908 312.74 199.135 312.856L202.574 314.84Z" fill="#617179"/>
<path d="M197.693 317.678L194.255 315.694C194.171 315.656 194.098 315.597 194.044 315.521C193.99 315.446 193.957 315.358 193.948 315.266L193.943 317.072C193.952 317.164 193.984 317.252 194.038 317.328C194.092 317.403 194.166 317.462 194.25 317.5L197.688 319.484C197.912 319.603 198.162 319.664 198.415 319.66V317.853C198.164 317.856 197.916 317.796 197.693 317.678Z" fill="#2C3A41"/>
<path d="M202.58 315.691L199.16 317.678C198.931 317.8 198.675 317.86 198.416 317.853V319.66C198.673 319.666 198.928 319.605 199.155 319.484L202.575 317.497C202.658 317.459 202.729 317.4 202.782 317.326C202.835 317.252 202.867 317.165 202.875 317.075L202.881 315.269C202.872 315.359 202.84 315.446 202.787 315.52C202.734 315.594 202.663 315.653 202.58 315.691Z" fill="#3A4D57"/>
<path d="M212.42 367.615L200.176 374.715V372.901L212.42 365.801V367.615Z" fill="#3A4D57"/>
<path d="M212.42 371.289L200.176 378.389V376.575L212.42 369.475V371.289Z" fill="#3A4D57"/>
<path d="M212.42 374.962L200.176 382.062V380.248L212.42 373.148V374.962Z" fill="#3A4D57"/>
<path d="M175.111 96.4299L175.011 62.8979L153.262 50.2549L153.362 83.7869C153.385 92.0239 156.292 97.8189 160.982 100.544L182.736 113.186C178.042 110.461 175.134 104.666 175.111 96.4299Z" fill="#B58649"/>
<path d="M175.016 62.8968L153.262 50.2548L205.504 20.0918L227.259 32.7298L175.016 62.8968Z" fill="#F5C281"/>
<path d="M227.258 32.7344L227.358 66.2664C227.405 82.8464 215.749 103.035 201.324 111.366C186.899 119.697 175.157 113.009 175.11 96.4294L175.01 62.8974L227.258 32.7344Z" fill="#F7D1A0"/>
<path d="M189.595 111.861C182.485 111.861 178.224 106.089 178.195 96.4202L178.105 64.6752L224.184 38.0752L224.265 66.2752C224.309 81.8412 213.322 100.869 199.773 108.691C196.71 110.606 193.204 111.698 189.595 111.861Z" fill="#F2B361"/>
<path d="M206.592 63.8756C206.568 59.8246 204.092 57.9756 201.066 59.7486C198.04 61.5216 195.603 66.2426 195.627 70.2936C195.641 72.6426 196.482 74.2446 197.774 74.8346L195.774 95.5086L206.74 89.0906L204.511 70.8906C205.821 68.7809 206.539 66.3581 206.592 63.8756Z" fill="#3A4D57"/>
<path d="M208.405 37.2713L199.705 32.2142L199.635 7.53125L208.335 12.5882L208.405 37.2713Z" fill="#B58649"/>
<path d="M199.004 6.14355L207.704 11.2006C207.922 11.3555 208.096 11.5656 208.207 11.8094C208.318 12.0532 208.362 12.322 208.336 12.5886L199.636 7.53255C199.663 7.26582 199.619 6.9967 199.508 6.75267C199.397 6.50864 199.223 6.29845 199.004 6.14355Z" fill="#F2B361"/>
<path d="M206.144 6.3152C209.754 4.2312 212.704 5.91521 212.715 10.0602L212.785 34.7432L208.404 37.2712L208.334 12.5882C208.334 11.2122 207.353 10.6602 206.155 11.3512L182.865 24.7982C182.235 25.2074 181.71 25.7599 181.334 26.4106C180.958 27.0613 180.741 27.7917 180.701 28.5422L180.771 53.2252L176.392 55.7532L176.322 31.0712C176.443 28.8051 177.098 26.5996 178.232 24.6342C179.367 22.6688 180.949 20.9992 182.851 19.7612L206.144 6.3152Z" fill="#F2B361"/>
<path d="M202.104 0.806795C200.912 0.113795 199.263 0.206796 197.446 1.2578L174.156 14.7048C172.233 15.905 170.647 17.5751 169.549 19.5578L178.266 24.5898C179.363 22.6175 180.943 20.956 182.858 19.7608L206.148 6.3148C207.964 5.26579 209.614 5.17079 210.806 5.86379L202.104 0.806795Z" fill="#F5C281"/>
<path d="M167.623 26.0136L167.693 50.6956L176.393 55.7526L176.323 31.0706C176.399 28.7795 177.067 26.5469 178.26 24.5896L169.543 19.5576C168.359 21.5089 167.698 23.7324 167.623 26.0136Z" fill="#B58649"/>
<path d="M157.246 66.7136L161.597 64.1856C162.626 63.5856 164.051 63.6716 165.624 64.5796L161.273 67.1076C159.703 66.1996 158.275 66.1156 157.246 66.7136Z" fill="#F16935"/>
<path d="M169.618 77.9871L165.267 80.5161C165.839 80.1103 166.293 79.5602 166.583 78.9218C166.873 78.2835 166.989 77.5797 166.918 76.8821C166.815 74.9231 166.25 73.0163 165.269 71.3175C164.288 69.6188 162.919 68.1763 161.273 67.1081L165.624 64.5801C167.269 65.6485 168.638 67.0909 169.619 68.7894C170.6 70.4879 171.166 72.3943 171.269 74.3531C171.34 75.0507 171.225 75.7546 170.935 76.393C170.645 77.0314 170.19 77.5814 169.618 77.9871Z" fill="#F16935"/>
<path d="M161.274 67.1079C162.919 68.1762 164.288 69.6186 165.269 71.3173C166.25 73.0161 166.816 74.9229 166.919 76.8819C166.909 80.4819 164.367 81.9269 161.237 80.1199C159.592 79.0507 158.224 77.6077 157.243 75.9087C156.263 74.2096 155.698 72.3028 155.596 70.3439C155.604 66.7529 158.149 65.3039 161.274 67.1079Z" fill="#B54F28"/>
<path d="M298.645 333.751L287.822 327.461L287.738 297.734L298.562 304.024L298.645 333.751Z" fill="#AFACA3"/>
<path d="M338.724 239.295L287.655 268.78L269.055 279.521L279.879 285.811L298.479 275.07L349.548 245.585L338.724 239.295Z" fill="#EDEAE1"/>
<path d="M279.957 314.766L269.133 308.475L269.051 279.521L279.875 285.811L279.957 314.766Z" fill="#AFACA3"/>
<path d="M349.548 245.585L349.714 304.267L298.645 333.751L298.561 304.024L279.961 314.766L279.879 285.811L298.479 275.07L349.548 245.585Z" fill="#E9E5D9"/>
<path d="M300.854 300.041L282.254 310.783L282.186 287.139L347.26 249.568L347.412 302.939L300.942 329.769L300.854 300.041Z" fill="#F9F8F7"/>
<path d="M291.897 287.739C291.886 285.916 290.773 285.084 289.41 285.882C288.659 286.427 288.047 287.139 287.622 287.963C287.196 288.788 286.971 289.7 286.962 290.627C286.912 291.025 286.976 291.428 287.147 291.79C287.318 292.153 287.59 292.458 287.929 292.671L287.029 301.971L291.964 299.083L290.964 290.893C291.552 289.944 291.874 288.855 291.897 287.739Z" fill="#3A4D57"/>
<path d="M304.813 323.678L303.189 322.735L303.17 315.919L304.794 316.863L304.813 323.678Z" fill="#B58649"/>
<path d="M304.794 316.862L303.17 315.918L309.102 312.493L310.726 313.437L304.794 316.862Z" fill="#F5C281"/>
<path d="M310.725 313.438L310.744 320.254L304.812 323.678L304.793 316.863L310.725 313.438Z" fill="#F2B361"/>
<path d="M304.784 313.402L303.16 312.458L303.141 305.647L304.764 306.591L304.784 313.402Z" fill="#B58649"/>
<path d="M304.766 306.592L303.143 305.648L309.075 302.223L310.699 303.167L304.766 306.592Z" fill="#F5C281"/>
<path d="M310.698 303.167L310.717 309.978L304.785 313.403L304.766 306.592L310.698 303.167Z" fill="#F2B361"/>
<path d="M304.754 303.13L303.13 302.186L303.111 295.37L304.735 296.313L304.754 303.13Z" fill="#B58649"/>
<path d="M304.735 296.317L303.111 295.374L309.043 291.949L310.667 292.892L304.735 296.317Z" fill="#F5C281"/>
<path d="M310.666 292.893L310.685 299.709L304.753 303.131L304.734 296.315L310.666 292.893Z" fill="#F2B361"/>
<path d="M314.3 318.201L312.677 317.258L312.658 310.442L314.282 311.386L314.3 318.201Z" fill="#B54F28"/>
<path d="M314.28 311.386L312.656 310.442L318.583 307.02L320.207 307.964L314.28 311.386Z" fill="#F4875D"/>
<path d="M320.204 307.964L320.223 314.78L314.296 318.202L314.277 311.386L320.204 307.964Z" fill="#F16935"/>
<path d="M314.27 307.93L312.646 306.986L312.627 300.175L314.25 301.119L314.27 307.93Z" fill="#B58649"/>
<path d="M314.25 301.115L312.627 300.171L318.554 296.749L320.177 297.693L314.25 301.115Z" fill="#F5C281"/>
<path d="M320.177 297.693L320.196 304.504L314.269 307.926L314.25 301.115L320.177 297.693Z" fill="#F2B361"/>
<path d="M314.242 297.656L312.619 296.712L312.6 289.896L314.224 290.839L314.242 297.656Z" fill="#B58649"/>
<path d="M314.222 290.84L312.598 289.897L318.525 286.475L320.149 287.419L314.222 290.84Z" fill="#F5C281"/>
<path d="M320.15 287.418L320.169 294.234L314.242 297.656L314.223 290.84L320.15 287.418Z" fill="#F2B361"/>
<path d="M323.786 312.724L322.162 311.78L322.143 304.964L323.767 305.908L323.786 312.724Z" fill="#6FC4F0"/>
<path d="M323.767 305.908L322.143 304.964L328.07 301.542L329.694 302.485L323.767 305.908Z" fill="#6FC4F0"/>
<path d="M329.693 302.486L329.712 309.302L323.785 312.724L323.766 305.908L329.693 302.486Z" fill="#F5931D"/>
<path d="M323.756 302.449L322.132 301.505L322.113 294.694L323.737 295.638L323.756 302.449Z" fill="#B58649"/>
<path d="M323.737 295.638L322.113 294.694L328.04 291.272L329.663 292.215L323.737 295.638Z" fill="#F5C281"/>
<path d="M329.663 292.217L329.682 299.028L323.755 302.45L323.736 295.639L329.663 292.217Z" fill="#F2B361"/>
<path d="M323.727 292.18L322.103 291.236L322.084 284.42L323.708 285.364L323.727 292.18Z" fill="#B58649"/>
<path d="M323.704 285.363L322.08 284.419L328.007 280.997L329.631 281.941L323.704 285.363Z" fill="#F5C281"/>
<path d="M329.634 281.941L329.653 288.757L323.726 292.179L323.707 285.363L329.634 281.941Z" fill="#F2B361"/>
<path d="M345.277 300.421L332.547 307.8V305.914L345.277 298.534V300.421Z" fill="#3A4D57"/>
<path d="M345.277 296.507L332.547 303.887V302L345.277 294.621V296.507Z" fill="#3A4D57"/>
<path d="M345.277 292.593L332.547 299.972V298.086L345.277 290.707V292.593Z" fill="#3A4D57"/>
<path d="M345.277 288.679L332.547 296.058V294.172L345.277 286.792V288.679Z" fill="#3A4D57"/>
<path d="M345.277 284.765L332.547 292.145V290.259L345.277 282.88V284.765Z" fill="#3A4D57"/>
<path d="M345.277 280.851L332.547 288.23V286.344L345.277 278.965V280.851Z" fill="#3A4D57"/>
<path d="M345.277 276.937L332.547 284.316V282.43L345.277 275.05V276.937Z" fill="#3A4D57"/>
<path d="M345.277 273.023L332.547 280.403V278.517L345.277 271.138V273.023Z" fill="#3A4D57"/>
<path d="M345.021 268.72L303.111 293.085V278.344L345.021 253.979V268.72Z" fill="#3A4D57"/>
<path d="M310.926 280.065V279.981C310.925 279.431 311.072 278.89 311.35 278.415C311.628 277.941 312.028 277.549 312.509 277.281C313.615 276.643 314.099 277.016 314.099 278.421V278.582L313.166 279.121C313.166 278.337 312.988 278.079 312.516 278.352L312.464 278.382C312.287 278.483 312.14 278.629 312.036 278.804C311.932 278.979 311.875 279.178 311.87 279.382V279.43C311.87 279.867 312.002 280.02 312.66 279.757C313.638 279.368 314.134 279.527 314.134 280.64V280.717C314.139 281.281 313.99 281.836 313.703 282.321C313.415 282.807 313.001 283.205 312.505 283.473C311.446 284.085 310.887 283.773 310.887 282.334V282.265L311.82 281.727C311.82 282.479 312.05 282.661 312.483 282.411L312.534 282.382C312.726 282.274 312.887 282.118 313.001 281.929C313.114 281.739 313.175 281.523 313.179 281.303V281.265C313.179 280.834 313.013 280.693 312.361 280.954C311.386 281.342 310.926 281.148 310.926 280.065Z" fill="#F9F8F7"/>
<path d="M317.398 274.561V275.637L315.584 276.684V278.004L317.109 277.124V278.198L315.584 279.079V280.523L317.398 279.475V280.55L314.65 282.136V276.148L317.398 274.561Z" fill="#F9F8F7"/>
<path d="M319.541 278.338L319.593 278.308C319.815 278.148 319.991 277.932 320.101 277.681C320.21 277.429 320.249 277.153 320.215 276.882L321.148 276.344V276.412C321.199 277.014 321.075 277.618 320.789 278.15C320.504 278.683 320.07 279.121 319.541 279.412C318.372 280.087 317.854 279.519 317.854 277.446V277.139C317.854 275.066 318.372 273.9 319.541 273.225C320.606 272.61 321.148 272.895 321.148 274.392V274.669L320.215 275.208C320.215 274.386 320.082 273.987 319.593 274.269L319.541 274.299C318.941 274.645 318.798 275.399 318.798 276.593V276.901C318.798 278.099 318.942 278.684 319.541 278.338Z" fill="#F9F8F7"/>
<path d="M321.666 276.189V272.097L322.599 271.558V275.612C322.599 276.25 322.748 276.486 323.278 276.18C323.515 276.049 323.707 275.85 323.829 275.608C323.951 275.367 323.998 275.094 323.964 274.825V270.771L324.897 270.232V274.324C324.949 274.919 324.823 275.515 324.534 276.037C324.246 276.559 323.809 276.983 323.278 277.255C322.057 277.959 321.666 277.494 321.666 276.189Z" fill="#F9F8F7"/>
<path d="M326.447 275.329L325.514 275.867V269.879L326.989 269.028C327.72 268.606 328.549 268.38 328.549 269.969V270.123C328.584 270.88 328.33 271.622 327.84 272.198L328.549 274.115L327.541 274.697L326.925 272.903L326.447 273.179V275.329ZM327.029 271.769C327.221 271.652 327.377 271.483 327.479 271.282C327.581 271.08 327.624 270.854 327.605 270.629V270.553C327.605 269.877 327.282 269.934 327.029 270.079L326.447 270.415V272.105L327.029 271.769Z" fill="#F9F8F7"/>
<path d="M330.063 273.238L329.129 273.776V267.788L330.063 267.249V273.238Z" fill="#F9F8F7"/>
<path d="M332.475 271.846L331.542 272.384V267.471L330.506 268.071V266.997L333.518 265.258V266.33L332.475 266.93V271.846Z" fill="#F9F8F7"/>
<path d="M335.883 269.876L334.95 270.415V268.58L333.66 265.172L334.68 264.583L335.418 266.775L336.149 263.735L337.168 263.147L335.883 268.041V269.876Z" fill="#F9F8F7"/>
<path d="M17.7734 269.551L17.8864 309.284C17.858 309.567 17.9049 309.852 18.0226 310.111C18.1403 310.369 18.3245 310.592 18.5564 310.757L49.0124 328.457C48.7804 328.293 48.5961 328.07 48.4784 327.811C48.3606 327.552 48.3137 327.267 48.3424 326.984L48.2294 287.251C48.2763 286.221 48.6442 285.233 49.2814 284.423L18.7644 266.803C18.1624 267.597 17.8167 268.555 17.7734 269.551Z" fill="#B54F28"/>
<path d="M72.2776 236.222C72.0155 236.1 71.7258 236.051 71.4383 236.079C71.1508 236.107 70.8761 236.212 70.6426 236.382L20.0676 265.582C19.5549 265.895 19.1124 266.311 18.7676 266.803L49.2846 284.422C49.6199 283.963 50.0423 283.576 50.5276 283.281L101.103 254.081C101.336 253.911 101.611 253.806 101.898 253.778C102.186 253.75 102.476 253.799 102.738 253.921L72.2776 236.222Z" fill="#F4875D"/>
<path d="M101.104 254.081C102.374 253.348 103.404 253.936 103.41 255.395L103.522 295.127C103.48 295.922 103.251 296.696 102.853 297.385C102.455 298.075 101.9 298.66 101.232 299.094L50.6564 328.294C49.3834 329.029 48.3514 328.441 48.3474 326.983L48.2344 287.25C48.277 286.454 48.5076 285.679 48.9074 284.989C49.3072 284.299 49.8647 283.714 50.5344 283.281L101.104 254.081Z" fill="#F16935"/>
<path d="M50.8043 325.353L50.6973 287.244C50.7397 286.884 50.8555 286.536 51.0375 286.223C51.2195 285.909 51.4637 285.636 51.7553 285.42L100.941 257.03L101.049 295.139C101.007 295.499 100.891 295.846 100.709 296.159C100.528 296.473 100.284 296.746 99.9933 296.961L50.8043 325.353ZM51.9313 287.248L52.0313 323.218L99.3713 295.887C99.5766 295.672 99.7275 295.411 99.8113 295.125L99.7113 259.159L52.3743 286.489C52.1695 286.704 52.0187 286.964 51.9343 287.248H51.9313Z" fill="#B54F28"/>
<path d="M66.7573 302.619L64.5813 301.355L64.5293 301.324L66.7053 302.588L66.7573 302.619Z" fill="#F4875D"/>
<path d="M71.1624 290.029L73.3384 291.293C72.8085 291.048 72.2226 290.948 71.6413 291.005C71.06 291.062 70.5046 291.274 70.0324 291.617L67.8574 290.352C68.3296 290.009 68.8849 289.798 69.466 289.741C70.047 289.684 70.6327 289.784 71.1624 290.029Z" fill="#617179"/>
<path d="M66.6849 295.193L64.5039 293.93C65.2894 292.464 66.4442 291.23 67.8539 290.349L70.0289 291.614C68.6213 292.495 67.4685 293.729 66.6849 295.193Z" fill="#617179"/>
<path d="M70.0331 291.612C72.5991 290.13 74.6871 291.32 74.6951 294.273C74.6103 295.881 74.1467 297.447 73.3419 298.842C72.5371 300.237 71.414 301.422 70.0641 302.3C69.5846 302.652 69.0175 302.864 68.425 302.915C67.8326 302.966 67.2376 302.853 66.7051 302.588L62.3461 305.105C60.5681 306.131 59.1251 305.305 59.1191 303.266C59.1772 302.152 59.4979 301.068 60.0551 300.103C60.6123 299.137 61.3902 298.317 62.3251 297.709L66.6841 295.192C67.469 293.727 68.6236 292.493 70.0331 291.612Z" fill="#3A4D57"/>
<path d="M62.3267 297.71L66.6857 295.193L64.5047 293.93L60.1457 296.447C59.2259 297.021 58.4642 297.815 57.9297 298.759L60.1097 300.017C60.6449 299.075 61.407 298.282 62.3267 297.71Z" fill="#617179"/>
<path d="M59.1202 303.267C59.1604 302.115 59.5032 300.993 60.1142 300.016L57.9342 298.758C57.3261 299.734 56.9851 300.853 56.9452 302.003C56.9048 302.399 56.9703 302.798 57.1349 303.161C57.2995 303.523 57.5574 303.836 57.8822 304.066L60.0582 305.331C59.7333 305.1 59.4753 304.788 59.3105 304.425C59.1457 304.063 59.0801 303.663 59.1202 303.267Z" fill="#2C3A41"/>
<path d="M70.4473 292.869C72.2073 291.807 73.6373 292.661 73.6473 294.769C73.5978 295.907 73.2854 297.019 72.7346 298.017C72.1838 299.015 71.4095 299.871 70.4723 300.52C68.7123 301.582 67.2833 300.727 67.2773 298.613C67.3271 297.476 67.6391 296.366 68.1891 295.369C68.739 294.373 69.5119 293.517 70.4473 292.869Z" fill="#E9E5D9"/>
<path d="M21.7093 309.059L20.4883 308.359V272.419L21.7093 273.119V309.059Z" fill="#3A4D57"/>
<path d="M24.3265 310.573L23.1055 309.873V273.93L24.3265 274.63V310.573Z" fill="#3A4D57"/>
<path d="M26.9437 312.087L25.7227 311.387V275.447L26.9437 276.152V312.087Z" fill="#3A4D57"/>
<path d="M29.5628 313.601L28.3418 312.901V276.961L29.5628 277.666V313.601Z" fill="#3A4D57"/>
<path d="M32.18 315.115L30.959 314.41V278.47L32.18 279.17V315.115Z" fill="#3A4D57"/>
<path d="M34.7972 316.63L33.5762 315.93V279.99L34.7972 280.69V316.63Z" fill="#3A4D57"/>
<path d="M37.4144 318.143L36.1934 317.443V281.503L37.4144 282.203V318.143Z" fill="#3A4D57"/>
<path d="M40.0335 319.657L38.8125 318.957V283.017L40.0335 283.722V319.657Z" fill="#3A4D57"/>
<path d="M42.6507 321.171L41.4297 320.471V284.53L42.6507 285.235V321.171Z" fill="#3A4D57"/>
<path d="M45.2679 322.685L44.0469 321.98V286.04L45.2679 286.74V322.685Z" fill="#3A4D57"/>
<path d="M84.6662 282.323C84.5647 282.277 84.4524 282.258 84.3411 282.269C84.2298 282.28 84.1235 282.32 84.0332 282.386L78.0402 285.846C77.783 286.013 77.569 286.239 77.4157 286.505C77.2624 286.77 77.1741 287.068 77.1582 287.374L77.1772 294.261C77.1662 294.371 77.1844 294.481 77.2299 294.581C77.2754 294.681 77.3466 294.768 77.4362 294.831L78.6992 295.565C78.6096 295.502 78.5384 295.415 78.4929 295.315C78.4474 295.215 78.4292 295.105 78.4402 294.995L78.4212 288.108C78.4371 287.802 78.5254 287.504 78.6787 287.238C78.832 286.973 79.046 286.747 79.3032 286.58L85.2962 283.119C85.3867 283.054 85.493 283.013 85.6043 283.003C85.7155 282.992 85.8277 283.011 85.9292 283.057L84.6662 282.323Z" fill="#AFACA3"/>
<path d="M85.2969 283.12C85.7869 282.838 86.1869 283.063 86.1879 283.625L86.2079 290.512C86.1913 290.819 86.1025 291.118 85.9487 291.384C85.7949 291.65 85.5805 291.877 85.3229 292.045L79.3299 295.505C78.8399 295.788 78.4429 295.559 78.4409 294.996L78.4219 288.11C78.4377 287.803 78.5258 287.505 78.6791 287.239C78.8324 286.973 79.0465 286.748 79.3039 286.581L85.2969 283.12Z" fill="#E9E5D9"/>
<path d="M95.7297 275.642C95.6281 275.596 95.5159 275.577 95.4047 275.588C95.2934 275.599 95.1871 275.64 95.0967 275.705L89.1037 279.165C88.8462 279.332 88.632 279.558 88.4785 279.824C88.325 280.089 88.2367 280.388 88.2207 280.694L88.2407 287.58C88.2297 287.69 88.2479 287.8 88.2934 287.9C88.3389 288 88.4101 288.087 88.4997 288.15L89.7627 288.885C89.6731 288.821 89.602 288.735 89.5566 288.635C89.5111 288.534 89.4929 288.424 89.5037 288.314L89.4837 281.429C89.4997 281.123 89.588 280.824 89.7415 280.559C89.895 280.293 90.1092 280.067 90.3667 279.9L96.3597 276.44C96.45 276.374 96.5564 276.334 96.6677 276.323C96.7791 276.312 96.8913 276.331 96.9927 276.378L95.7297 275.642Z" fill="#6FC4F0"/>
<path d="M96.3604 276.44C96.8504 276.157 97.2494 276.382 97.2514 276.945L97.2714 283.831C97.2548 284.138 97.166 284.437 97.0122 284.703C96.8585 284.969 96.644 285.196 96.3864 285.364L90.3924 288.824C89.9034 289.107 89.5064 288.878 89.5044 288.315L89.4844 281.43C89.5003 281.123 89.5887 280.825 89.7422 280.559C89.8957 280.293 90.1099 280.068 90.3674 279.901L96.3604 276.44Z" fill="#F5931D"/>
<path d="M88.3529 109.729C90.7769 108.329 92.7458 109.452 92.7528 112.237L92.8788 156.63C92.7988 158.149 92.3607 159.626 91.6006 160.943C90.8404 162.26 89.7796 163.378 88.5048 164.206L49.8708 186.511C47.4468 187.911 45.4708 186.786 45.4658 184.001L45.3398 139.608C45.4204 138.09 45.859 136.612 46.6196 135.295C47.3803 133.979 48.4416 132.861 49.7168 132.032L88.3529 109.729Z" fill="#3A4D57"/>
<path d="M48.4297 139.599C48.5129 138.626 48.8099 137.682 49.2996 136.836C49.7893 135.991 50.4596 135.263 51.2627 134.706L89.6687 112.529L89.7927 156.629C89.7107 157.604 89.4146 158.548 88.9256 159.395C88.4366 160.242 87.7667 160.971 86.9637 161.529L48.5547 183.709L48.4297 139.599Z" fill="#89949A"/>
<path d="M23.5879 126.967L23.7139 171.36C23.6595 171.9 23.7494 172.446 23.9744 172.94C24.1995 173.435 24.5516 173.861 24.9949 174.175L46.7489 186.817C46.3056 186.503 45.9535 186.077 45.7284 185.582C45.5034 185.088 45.4135 184.542 45.4679 184.002L45.3419 139.609C45.3904 138.101 45.8231 136.631 46.5989 135.338L24.8099 122.759C24.0549 124.036 23.6346 125.484 23.5879 126.967Z" fill="#2C3A41"/>
<path d="M69.7206 96.7799C69.2201 96.548 68.6668 96.4541 68.1179 96.5079C67.569 96.5617 67.0444 96.7613 66.5985 97.0859L27.9645 119.386C26.6388 120.216 25.5519 121.377 24.8105 122.754L46.6045 135.338C47.3436 133.987 48.4181 132.848 49.7245 132.033L88.3575 109.733C88.8037 109.409 89.3282 109.21 89.877 109.156C90.4258 109.102 90.979 109.196 91.4796 109.427L69.7206 96.7799Z" fill="#617179"/>
<path d="M73.3604 129.387L83.2854 135.155C80.9214 133.78 77.6464 133.973 74.0324 136.055L64.1074 130.287C67.7214 128.205 70.9954 128.013 73.3604 129.387Z" fill="#E9E5D9"/>
<path d="M64.8616 166.856L54.9366 161.088C52.6016 159.731 51.1546 156.846 51.1426 152.745C51.1196 144.496 56.9226 134.44 64.1066 130.292L74.0316 136.06C66.8476 140.208 61.0446 150.26 61.0686 158.513C61.0796 162.614 62.5276 165.499 64.8616 166.856Z" fill="#E9E5D9"/>
<path d="M83.2537 156.324C88.3365 147.566 88.3444 138.079 83.2715 135.135C78.1985 132.191 69.9656 136.904 64.8829 145.662C59.8001 154.421 59.7921 163.907 64.8651 166.851C69.9381 169.795 78.171 165.082 83.2537 156.324Z" fill="#F9F8F7"/>
<path d="M68.279 165.882C64.936 165.882 62.933 163.126 62.92 158.509C62.898 150.861 68.298 141.509 74.957 137.665C76.4337 136.74 78.1242 136.211 79.865 136.13C83.209 136.13 85.214 138.885 85.227 143.502C85.248 151.151 79.848 160.502 73.19 164.346C71.7122 165.271 70.0208 165.8 68.279 165.882Z" fill="#3A4D57"/>
<path d="M69.8035 161.959C67.3425 161.959 65.8675 159.929 65.8575 156.53C65.8415 150.898 69.8175 144.013 74.7205 141.182C75.8078 140.5 77.0526 140.111 78.3345 140.052C80.7965 140.052 82.2725 142.081 82.2825 145.48C82.2975 151.112 78.3215 157.997 73.4195 160.827C72.3314 161.508 71.086 161.898 69.8035 161.959Z" fill="#89949A"/>
<path d="M70.5634 160.018C68.5384 160.018 67.3244 158.348 67.3164 155.551C67.4518 153.021 68.1828 150.558 69.4499 148.364C70.7171 146.169 72.4845 144.305 74.6084 142.923C75.5032 142.362 76.5275 142.042 77.5824 141.992C79.6084 141.992 80.8224 143.662 80.8304 146.459C80.695 148.99 79.964 151.452 78.6969 153.647C77.4297 155.841 75.6623 157.705 73.5384 159.087C72.6432 159.648 71.6186 159.969 70.5634 160.018Z" fill="#3A4D57"/>
<path d="M73.125 153.436C72.579 153.436 72.252 152.986 72.25 152.231C72.2862 151.549 72.4833 150.884 72.8251 150.292C73.1669 149.7 73.6439 149.198 74.217 148.825C74.4577 148.674 74.7332 148.588 75.017 148.574C75.563 148.574 75.891 149.024 75.893 149.779C75.8563 150.462 75.6591 151.126 75.3173 151.718C74.9755 152.31 74.4988 152.812 73.926 153.185C73.6849 153.336 73.4091 153.422 73.125 153.436Z" fill="#89949A"/>
<path d="M375.204 130.716C376.956 131.727 376.965 133.366 375.225 134.377L314.514 169.662C313.534 170.161 312.451 170.421 311.351 170.421C310.252 170.421 309.168 170.161 308.189 169.662L276.335 151.271C274.584 150.26 274.57 148.619 276.314 147.605L337.031 112.321C338.011 111.822 339.094 111.562 340.193 111.562C341.293 111.562 342.376 111.822 343.356 112.321L375.204 130.716Z" fill="#F4875D"/>
<path d="M317.944 163.13C317.442 163.147 316.944 163.044 316.491 162.83L288.104 146.438C287.949 146.348 287.821 146.22 287.732 146.065C287.643 145.911 287.596 145.736 287.596 145.557C287.596 145.379 287.643 145.203 287.732 145.049C287.821 144.894 287.949 144.766 288.104 144.677L338.755 115.277C339.203 115.065 339.696 114.964 340.191 114.983C340.694 114.965 341.195 115.068 341.651 115.283L370.427 131.897C370.542 131.963 370.637 132.059 370.704 132.174C370.77 132.289 370.805 132.419 370.805 132.552C370.805 132.685 370.77 132.815 370.704 132.93C370.637 133.046 370.542 133.141 370.427 133.208L319.388 162.83C318.937 163.044 318.442 163.146 317.944 163.13Z" fill="#3A4D57"/>
<path d="M308.189 169.664L276.335 151.273C275.971 151.111 275.656 150.855 275.424 150.531C275.192 150.207 275.05 149.827 275.014 149.43L274.99 157.794C275.026 158.191 275.167 158.572 275.399 158.896C275.632 159.221 275.947 159.478 276.311 159.64L308.165 178.03C309.024 178.488 309.977 178.74 310.949 178.767V170.4C309.985 170.37 309.04 170.118 308.189 169.664Z" fill="#B54F28"/>
<path d="M375.23 134.377L314.514 169.662C313.418 170.236 312.183 170.492 310.949 170.4V178.765C312.175 178.853 313.402 178.596 314.49 178.025L375.204 142.741C375.562 142.58 375.871 142.327 376.1 142.007C376.328 141.688 376.468 141.314 376.504 140.923L376.528 132.559C376.492 132.949 376.353 133.323 376.125 133.643C375.897 133.962 375.588 134.215 375.23 134.377Z" fill="#F16935"/>
<path d="M299.884 154.612C302.02 155.846 302.252 157.712 300.403 158.779C299.26 159.297 298.012 159.539 296.759 159.487C295.506 159.435 294.282 159.09 293.186 158.479C291.051 157.245 290.819 155.379 292.668 154.312C293.811 153.794 295.059 153.552 296.312 153.604C297.565 153.656 298.789 154.001 299.884 154.612Z" fill="#F16935"/>
<path d="M301.356 129.124L296.535 126.324L302.564 106.824L307.385 109.624L301.356 129.124Z" fill="#6FC4F0"/>
<path d="M302.51 87.4669L302.565 106.822L307.386 109.622L307.331 90.2669C307.35 89.6465 307.519 89.0399 307.824 88.4989L302.996 85.7109C302.696 86.249 302.529 86.8512 302.51 87.4669Z" fill="#6FC4F0"/>
<path d="M338.554 65.0779C338.331 64.9745 338.084 64.9327 337.838 64.9568C337.593 64.9809 337.359 65.07 337.16 65.2149L304.46 84.0949C303.834 84.491 303.328 85.0504 302.996 85.7129L307.824 88.5009C308.157 87.846 308.66 87.2931 309.281 86.9009L341.981 68.0209C342.18 67.8761 342.414 67.7872 342.659 67.7633C342.904 67.7394 343.151 67.7814 343.374 67.8849L338.554 65.0779Z" fill="#6FC4F0"/>
<path d="M341.981 68.0157C343.06 67.3927 343.94 67.8897 343.944 69.1297L344.002 89.5637C343.966 90.2403 343.771 90.8988 343.432 91.4856C343.093 92.0724 342.62 92.571 342.052 92.9407L311.276 110.709L301.355 129.124L307.385 109.624L307.33 90.2687C307.366 89.5925 307.562 88.9345 307.901 88.3483C308.24 87.7621 308.712 87.2643 309.28 86.8957L341.981 68.0157Z" fill="#F5931D"/>
<path d="M309.383 90.2626C309.42 89.9484 309.521 89.6453 309.68 89.3718C309.839 89.0983 310.052 88.8604 310.307 88.6725L341.895 70.4355L341.951 89.5686C341.914 89.8843 341.813 90.1891 341.654 90.4643C341.495 90.7394 341.281 90.9791 341.026 91.1685L309.747 109.228L309.438 109.802L309.383 90.2626Z" fill="#F9F8F7"/>
<path d="M317.195 92.9809L316.615 97.3969L315.552 98.0109L314.889 93.0469L315.757 92.5469L316.142 96.1599L316.681 92.0129L317.713 91.4129L318.252 94.9369L318.637 90.8799L319.505 90.3799L318.842 96.1079L317.774 96.7239L317.195 92.9809Z" fill="#F16935"/>
<path d="M321.604 89.1562L322.604 93.9243L321.715 94.4373L321.515 93.4013L320.535 93.9673L320.344 95.2253L319.451 95.7413L320.451 89.8173L321.604 89.1562ZM320.704 92.9183L321.361 92.5393L321.032 90.7673L320.704 92.9183Z" fill="#F16935"/>
<path d="M323.797 93.2374L322.965 93.7174V88.3854L324.279 87.6264C324.931 87.2494 325.671 87.0484 325.671 88.4634V88.6004C325.702 89.2742 325.476 89.9348 325.039 90.4484L325.671 92.1554L324.771 92.6734L324.222 91.0734L323.796 91.3194L323.797 93.2374ZM324.315 90.0664C324.487 89.9621 324.626 89.8119 324.717 89.6327C324.807 89.4535 324.846 89.2525 324.829 89.0524V88.9844C324.829 88.3844 324.541 88.4324 324.315 88.5624L323.797 88.8624V90.3624L324.315 90.0664Z" fill="#F16935"/>
<path d="M329.092 90.1797L328.214 90.6867L326.92 88.1247L326.946 89.1827V91.4187L326.16 91.8727V86.5397L327.038 86.0327L328.327 88.5987L328.302 87.5397V85.3037L329.092 84.8477V90.1797Z" fill="#F16935"/>
<path d="M330.521 89.3545L329.689 89.8345V84.5025L330.521 84.0215V89.3545Z" fill="#F16935"/>
<path d="M334.049 87.3193L333.171 87.8263L331.877 85.2643L331.903 86.3223V88.5583L331.117 89.0113V83.6793L331.995 83.1723L333.284 85.7373L333.258 84.6793V82.4433L334.049 81.9863V87.3193Z" fill="#F16935"/>
<path d="M334.533 84.5094V84.2354C334.533 82.3904 335.033 81.3294 336.068 80.7354C337.023 80.1844 337.526 80.4274 337.526 81.7604V82.0074L336.694 82.4874C336.694 81.7554 336.576 81.4004 336.114 81.6664L336.068 81.6934C335.519 82.0104 335.38 82.6854 335.38 83.7514V84.0254C335.38 85.0914 335.513 85.6094 336.099 85.2714L336.145 85.2444C336.364 85.116 336.551 84.9383 336.689 84.7254V83.8704L336.161 84.1764V83.2184L337.521 82.4334V84.7854C337.19 85.3784 336.707 85.8724 336.121 86.2164C335.031 86.8394 334.533 86.3554 334.533 84.5094Z" fill="#F16935"/>
<path d="M370.422 133.211C370.537 133.145 370.633 133.049 370.699 132.934C370.766 132.819 370.801 132.688 370.801 132.555C370.801 132.423 370.766 132.292 370.699 132.177C370.633 132.062 370.537 131.966 370.422 131.899L341.646 115.286C341.191 115.071 340.69 114.969 340.186 114.986C339.691 114.968 339.199 115.069 338.75 115.28L336.816 116.403L368.183 134.513L370.422 133.211Z" fill="#919DA8"/>
<path d="M336.815 116.402L288.098 144.676C287.943 144.766 287.815 144.894 287.726 145.049C287.637 145.203 287.59 145.378 287.59 145.557C287.59 145.735 287.637 145.911 287.726 146.065C287.815 146.22 287.943 146.348 288.098 146.437L316.491 162.829C316.949 163.027 317.442 163.128 317.941 163.128C318.44 163.128 318.933 163.027 319.391 162.829L368.185 134.509L336.815 116.402Z" fill="#3A4D57"/>
<path d="M367.94 132.967C367.88 132.967 367.821 132.952 367.769 132.922L365.904 131.845C365.825 131.799 365.768 131.725 365.744 131.637C365.721 131.549 365.733 131.456 365.778 131.377C365.824 131.299 365.898 131.241 365.986 131.218C366.074 131.194 366.167 131.206 366.246 131.252L368.111 132.329C368.176 132.367 368.227 132.425 368.255 132.494C368.284 132.564 368.289 132.641 368.27 132.713C368.25 132.786 368.207 132.85 368.148 132.896C368.088 132.942 368.015 132.967 367.94 132.967Z" fill="#3A4D57"/>
<path d="M355.397 125.729C355.337 125.729 355.278 125.713 355.226 125.683L349.326 122.273C349.25 122.227 349.196 122.152 349.174 122.066C349.153 121.98 349.165 121.889 349.21 121.812C349.254 121.735 349.327 121.678 349.413 121.654C349.498 121.629 349.59 121.639 349.668 121.681L355.574 125.09C355.639 125.128 355.69 125.187 355.718 125.256C355.747 125.326 355.752 125.403 355.732 125.476C355.712 125.548 355.67 125.612 355.61 125.658C355.55 125.704 355.477 125.729 355.402 125.729H355.397Z" fill="#3A4D57"/>
<path d="M343.136 118.647C343.077 118.647 343.018 118.631 342.967 118.602L342.537 118.354C342.498 118.331 342.463 118.301 342.436 118.266C342.409 118.23 342.389 118.189 342.377 118.146C342.353 118.058 342.366 117.965 342.411 117.886C342.456 117.807 342.531 117.75 342.619 117.727C342.706 117.703 342.8 117.715 342.878 117.761L343.308 118.009C343.373 118.046 343.423 118.104 343.452 118.174C343.481 118.243 343.486 118.321 343.467 118.393C343.447 118.466 343.404 118.53 343.345 118.576C343.285 118.622 343.212 118.647 343.136 118.647Z" fill="#3A4D57"/>
<path d="M341.895 117.93C341.835 117.93 341.776 117.914 341.724 117.884L341.43 117.714C341.352 117.669 341.295 117.594 341.271 117.506C341.248 117.419 341.26 117.325 341.306 117.247C341.351 117.168 341.426 117.111 341.514 117.088C341.602 117.064 341.695 117.077 341.773 117.122L342.067 117.292C342.133 117.33 342.183 117.388 342.212 117.458C342.241 117.527 342.246 117.605 342.226 117.677C342.207 117.75 342.164 117.814 342.104 117.86C342.044 117.906 341.971 117.93 341.895 117.93Z" fill="#3A4D57"/>
<path d="M340.676 117.23C340.616 117.23 340.558 117.214 340.506 117.184L340.106 116.953C340.065 116.932 340.028 116.903 339.999 116.867C339.969 116.831 339.947 116.79 339.934 116.746C339.921 116.701 339.917 116.654 339.922 116.608C339.928 116.562 339.942 116.518 339.966 116.478C339.989 116.438 340.02 116.403 340.057 116.375C340.094 116.347 340.136 116.327 340.181 116.316C340.226 116.305 340.273 116.304 340.319 116.311C340.364 116.319 340.408 116.336 340.447 116.361L340.847 116.591C340.912 116.629 340.962 116.687 340.991 116.757C341.019 116.826 341.024 116.903 341.005 116.976C340.985 117.049 340.942 117.113 340.883 117.159C340.823 117.205 340.75 117.23 340.675 117.23H340.676Z" fill="#3A4D57"/>
<path d="M332.224 128.179C333.304 128.803 333.313 129.479 332.479 129.958L332.397 130.006C331.792 130.339 331.104 130.49 330.415 130.44L326.375 130.511L326.897 130.801L328.97 132.001L328.528 132.258L325.205 130.33L325.505 130.152L330.229 130.07C330.789 130.118 331.352 130.011 331.854 129.759L331.92 129.721C332.571 129.343 332.502 128.837 331.811 128.438L331.77 128.415C331.375 128.189 330.923 128.083 330.468 128.109C330.014 128.135 329.577 128.293 329.21 128.562L328.724 128.282L328.887 128.182C329.386 127.867 329.965 127.7 330.555 127.699C331.146 127.699 331.724 127.865 332.224 128.179Z" fill="#919DA8"/>
<path d="M343.404 138.708L344.284 139.216L343.842 139.473L342.961 138.965L341.561 139.781L341.075 139.5L342.475 138.684L340.197 137.369L340.523 137.18L346.37 136.438L346.841 136.71L343.404 138.708ZM344.839 137.308L345.539 136.908L341.232 137.461L341.825 137.792L342.915 138.421L344.837 137.304" fill="#919DA8"/>
<path d="M341.888 133.759C342.968 134.383 342.977 135.054 342.158 135.529L342.058 135.589C341.756 135.754 341.424 135.857 341.082 135.892C340.739 135.926 340.394 135.891 340.065 135.789C340.388 136.189 340.335 136.629 339.694 137.001L339.587 137.063C339.094 137.301 338.549 137.413 338.002 137.387C337.454 137.361 336.922 137.199 336.454 136.915C335.298 136.247 335.406 135.556 336.454 134.947L336.525 134.906L337.012 135.187C336.091 135.721 336.125 136.218 336.862 136.643L336.928 136.682C337.256 136.881 337.63 136.993 338.014 137.009C338.397 137.024 338.779 136.942 339.122 136.77L339.214 136.717C339.89 136.324 339.735 135.845 339.114 135.485L338.336 135.036L338.768 134.785L339.521 135.219C339.823 135.415 340.173 135.528 340.533 135.546C340.893 135.563 341.252 135.485 341.572 135.319L341.623 135.289C342.243 134.929 342.179 134.426 341.499 134.033L341.432 133.995C341.038 133.769 340.587 133.663 340.134 133.691C339.681 133.718 339.246 133.877 338.882 134.149L338.396 133.868L338.559 133.768C339.057 133.453 339.633 133.286 340.222 133.284C340.811 133.283 341.388 133.447 341.888 133.759Z" fill="#919DA8"/>
<path d="M336.385 133.374L336.999 133.729L336.389 134.084L335.775 133.729L336.385 133.374Z" fill="#919DA8"/>
<path d="M336.319 130.543C337.399 131.167 337.408 131.838 336.574 132.322L336.493 132.37C335.888 132.703 335.2 132.854 334.511 132.804L330.471 132.875L330.993 133.165L333.066 134.365L332.623 134.622L329.297 132.702L329.602 132.524L334.325 132.441C334.885 132.491 335.448 132.383 335.951 132.131L336.017 132.093C336.668 131.715 336.599 131.209 335.908 130.81L335.867 130.787C335.472 130.561 335.019 130.455 334.565 130.481C334.11 130.507 333.673 130.665 333.307 130.935L332.82 130.654L332.983 130.554C333.482 130.239 334.059 130.07 334.649 130.068C335.239 130.066 335.818 130.231 336.319 130.543Z" fill="#919DA8"/>
<path d="M333.436 135.088L334.046 134.733L334.66 135.088L334.05 135.443L333.436 135.088Z" fill="#919DA8"/>
</svg>
