<svg width="495" height="329" viewBox="0 0 495 329" fill="none" xmlns="http://www.w3.org/2000/svg">

<style>
.r1 {
  animation-name: rotate2;
  animation-fill-mode: both;
	animation-duration: 3.5s;
  transform-origin: center;
  transform-box: fill-box;
	animation-iteration-count: infinite;
  animation-timing-function: linear;
}

@keyframes  rotate2{
	from{
    transform: rotate(0deg);
    }
    to{
        transform: rotate(-360deg);

    }
}


.v1 {
    transform-origin: center;
    animation-name:transtX;
    transform-box: fill-box;
    animation-fill-mode: both;
    animation-duration: 6.5s;
    animation-iteration-count: infinite;
}

@keyframes  transtX{
	0% {
   transform: translateX(0px);
   }
	50% {
       transform: translateX(-28px);

   }
	100% { 
       transform: translateX(0px);

   }
}
.v2 {
    transform-origin: center;
    animation-name:transtX1;
    transform-box: fill-box;
    animation-fill-mode: both;
    animation-duration: 6.5s;
    animation-iteration-count: infinite;
}

@keyframes  transtX1{
	0% {
   transform: translateX(0px);
   }
	50% {
       transform: translateX(28px);

   }
	100% { 
       transform: translateX(0px);

   }
}
</style>




<path d="M476.237 237.154C479.141 232.327 481.353 227.116 482.81 221.675L494.444 219.446L494.564 206.578L494.684 193.709L483.094 191.264C481.738 185.797 479.623 180.547 476.811 175.668L483.456 165.873L474.44 156.689L465.425 147.505L455.505 153.967C450.678 151.064 445.468 148.851 440.027 147.394L437.797 135.76L424.929 135.64L412.061 135.521L409.615 147.111C404.148 148.466 398.899 150.581 394.019 153.394L384.225 146.749L375.04 155.763L365.857 164.778L372.319 174.695C369.414 179.522 367.202 184.732 365.746 190.174L354.111 192.404L353.991 205.272L353.871 218.139L365.462 220.585C366.817 226.051 368.932 231.301 371.745 236.181L365.1 245.975L374.114 255.159L383.128 264.344L393.046 257.883C397.873 260.786 403.084 262.999 408.525 264.456L410.754 276.089L423.623 276.209L436.491 276.33L438.936 264.738C444.403 263.383 449.653 261.268 454.532 258.454L464.326 265.101L473.512 256.087L482.696 247.072L476.237 237.154ZM401.759 228.033C397.386 223.579 394.433 217.929 393.272 211.796C392.111 205.663 392.794 199.324 395.236 193.58C397.678 187.836 401.769 182.945 406.99 179.526C412.212 176.107 418.33 174.313 424.572 174.371C430.813 174.429 436.897 176.337 442.054 179.853C447.211 183.369 451.209 188.335 453.544 194.124C455.878 199.912 456.444 206.263 455.169 212.373C453.893 218.483 450.835 224.078 446.38 228.449C440.408 234.311 432.351 237.559 423.983 237.481C415.615 237.403 407.621 234.005 401.759 228.033Z" fill="url(#paint0_linear_132_3137)"/>
<path class="r1" d="M170.636 133.258C172.424 129.451 173.669 125.412 174.336 121.258L182.808 118.715L181.915 109.147L181.022 99.5791L172.226 98.647C170.802 94.6888 168.83 90.9499 166.368 87.5392L170.557 79.7559L163.16 73.6224L155.763 67.488L148.89 73.0451C145.083 71.2562 141.043 70.0103 136.89 69.344L134.346 60.8721L124.778 61.765L115.21 62.6579L114.279 71.4545C110.32 72.8777 106.581 74.8493 103.171 77.3116L95.3886 73.1235L89.2533 80.5202L83.1198 87.9168L88.676 94.79C86.8872 98.5973 85.6417 102.637 84.9759 106.791L76.5039 109.334L77.3959 118.902L78.2897 128.47L87.0854 129.402C88.5094 133.36 90.4813 137.098 92.9434 140.509L88.7544 148.292L96.152 154.426L103.549 160.56L110.422 155.004C114.229 156.792 118.268 158.038 122.422 158.704L124.965 167.177L134.533 166.288L144.102 165.395L145.033 156.598C148.991 155.174 152.73 153.202 156.141 150.74L163.923 154.929L170.057 147.532L176.191 140.135L170.636 133.258ZM114.615 132.164C111.028 129.189 108.403 125.218 107.073 120.752C105.742 116.286 105.766 111.526 107.141 107.073C108.516 102.621 111.18 98.6757 114.797 95.7374C118.414 92.7991 122.821 90.9994 127.461 90.5657C132.101 90.132 136.765 91.084 140.864 93.3011C144.963 95.5182 148.312 98.901 150.488 103.022C152.664 107.142 153.57 111.816 153.09 116.451C152.61 121.086 150.767 125.475 147.793 129.063C143.804 133.873 138.068 136.902 131.846 137.483C125.624 138.064 119.426 136.149 114.615 132.161V132.164Z" fill="url(#paint1_linear_132_3137)"/>
<path d="M454.566 326.775H453.759V269.44C453.751 263.306 451.311 257.426 446.974 253.089C442.637 248.751 436.756 246.311 430.622 246.304H371.632C365.284 246.296 359.198 243.771 354.709 239.283C350.22 234.794 347.695 228.708 347.688 222.36V115.185C347.68 109.051 345.24 103.171 340.903 98.8338C336.566 94.4965 330.686 92.0563 324.552 92.0484H174.133V91.2412H324.552C330.9 91.2485 336.985 93.7734 341.474 98.262C345.962 102.751 348.487 108.836 348.494 115.184V222.358C348.502 228.492 350.942 234.373 355.279 238.71C359.617 243.048 365.497 245.488 371.632 245.496H430.622C436.971 245.502 443.057 248.027 447.546 252.516C452.035 257.005 454.56 263.092 454.566 269.44V326.775Z" fill="#64A4FF"/>
<path d="M212.69 54.9277C212.69 54.9277 221.794 91.1795 199.936 101.09C178.078 111 182.265 92.854 182.265 92.854C182.265 92.854 173.3 90.3633 197.699 76.5285C209.198 70.0083 212.69 54.9277 212.69 54.9277Z" fill="#BBD070"/>
<path d="M269.934 58.0898C269.934 58.0898 274.415 89.6893 233.047 103.349C191.68 117.009 185.79 134.335 185.79 134.335C185.79 134.335 184.552 64.2972 269.934 58.0898Z" fill="#97A43C"/>
<path d="M185.602 121.462C173.336 116.781 202.492 91.6766 224.9 92.3543C247.307 93.0319 262.491 101.325 277.5 97.8211C277.5 97.8211 246.004 144.517 185.602 121.462Z" fill="#48753A"/>
<path d="M226.811 142.441C227.518 132.912 228.011 123.994 228.289 115.687C225.989 114.469 223.225 113.042 221.013 111.995C214.167 108.736 204.629 104.346 198.508 101.538C194.925 99.8917 191.415 98.6887 191.415 98.6887C191.415 98.6887 166.953 96.3447 164.966 96.4697C162.346 97.1759 159.775 98.0549 157.271 99.1009C148.596 102.392 131.872 109.095 129.21 111.008C125.305 113.803 111.334 182.297 110.96 186.949C110.595 191.467 129.964 197.65 147.898 202.386C147.885 209.329 147.745 219.057 147.587 227.938C147.563 229.455 147.535 230.947 147.506 232.388H225.981C225.876 230.863 225.783 229.358 225.708 227.938C225.7 227.748 225.688 227.563 225.68 227.376C225.381 221.362 224.212 210.589 224.51 200.098C224.51 200.098 224.32 189.038 225.418 184.278C225.541 163.257 226.811 142.441 226.811 142.441ZM127.308 182.712C127.437 173.795 139.311 157.209 139.311 157.209C139.492 157.127 139.678 157.057 139.867 156.999C139.875 157.007 140.48 156.914 140.48 156.922C140.48 156.931 142.325 155.175 142.337 155.175C142.773 156.761 146.707 179.162 147.671 192.204C136.515 190.011 127.238 186.965 127.303 182.712H127.308Z" fill="#DBD8E3"/>
<path d="M228.265 227.934C227.749 224.217 227.262 220.505 226.82 216.871C226.82 216.851 226.812 216.839 226.812 216.818C226.671 215.607 226.526 214.413 226.389 213.223C226.381 213.166 226.377 213.102 226.369 213.034C225.795 208.027 225.32 203.225 224.977 198.828C224.759 195.528 224.906 192.214 225.416 188.947C226.784 166.46 227.458 142.753 227.458 142.753C228.177 133.05 228.588 123.979 228.862 115.526C228.862 115.526 198.146 101.01 195.361 100.178C195.361 100.178 201.188 113.858 205.558 144.439C207.236 156.184 210.347 175.955 212.606 196.133C213.828 207.022 216.12 218.113 217.863 227.93C218.13 229.448 218.384 230.932 218.617 232.381H228.899C228.68 230.903 228.469 229.421 228.265 227.934Z" fill="#323657"/>
<path d="M177.126 191.817C178.336 180.447 179.425 169.102 178.9 162.885C174.664 112.905 162.677 99.6725 160.933 97.7354C159.59 98.2479 154.474 100.169 152.977 100.761C144.778 103.994 128.067 109.917 125.815 111.535C121.91 114.331 106.513 186.139 106.048 190.781C105.737 193.92 125.832 200.479 146.331 206.335C146.142 211.955 146.674 219.883 144.806 228.162C144.344 229.569 144.047 231.024 143.92 232.499L172.497 232.387C172.67 230.91 172.852 229.429 173.034 227.936C173.581 223.467 174.147 218.895 174.711 214.033C183.285 216.251 189.108 217.681 189.108 217.681C189.108 217.681 197.158 204.072 199.493 198.561C199.897 197.619 189.536 195.13 177.126 191.817ZM140.172 174.612C139.898 164.38 139.949 157.241 139.949 157.241C140.962 160.746 142.362 170.764 143.597 180.722C139.446 178.632 140.224 176.679 140.172 174.612Z" fill="#323657"/>
<path d="M163.682 97.2459C163.682 97.2459 166.793 91.3669 165.933 74.6756C165.695 70.0516 190.222 85.6411 190.222 85.6411C190.222 85.6411 190.136 87.2353 190.084 89.3859C190.057 90.2815 190.041 91.262 190.041 92.2707C190.041 92.5443 190.041 92.827 190.041 93.1061C190.045 93.5621 190.049 94.0136 190.056 94.466C190.069 95.0269 190.09 95.575 190.117 96.1077C190.145 96.7087 190.186 97.2769 190.243 97.7977C190.423 98.9199 190.728 100.019 191.15 101.074C192.28 103.669 172.864 103.819 163.682 97.2459Z" fill="#EEA987"/>
<path d="M184.248 107.867L188.768 113.94C188.768 113.94 186.123 117.486 181.416 114.868L184.248 107.867Z" fill="#E8734D"/>
<path d="M187.559 114.187C187.559 114.187 204.119 154.635 200.586 206.013L195.363 215.493L189.473 207.419C189.473 207.419 188.523 139.184 183.818 114.026L187.559 114.187Z" fill="#E8734D"/>
<path d="M189.084 102.204L184.245 107.867C184.245 107.867 176.477 106.362 174.197 102.304C171.917 98.245 189.084 102.204 189.084 102.204Z" fill="#EEA987"/>
<path d="M190.197 97.2471C190.197 97.2471 189.635 101.564 184.248 107.865L190.129 115.766L193.312 99.3749L190.197 97.2471Z" fill="#C4C1CC"/>
<path d="M165.161 92.0576C165.161 92.0576 176.391 104.761 184.246 107.867L180.593 116.896L162.668 97.1231L165.161 92.0576Z" fill="#C4C1CC"/>
<path d="M280.622 206.992C280.622 206.992 265.715 192.533 255.937 190.129C251.417 189.016 245.463 182.776 239.806 175.441C237.941 173.026 236.112 170.49 234.372 167.981C234.369 167.978 234.367 167.975 234.367 167.971C227.426 157.949 221.986 148.343 221.986 148.343C221.986 148.343 201.465 124.3 217.934 113.582C217.934 113.582 224.989 113.429 228.86 115.531C232.839 117.692 241.327 135.408 242.767 138.545C244.207 141.682 259.797 170.817 260.841 171.47C261.885 172.123 263.625 174.52 269.864 177.879C277.501 181.991 289.499 194.022 289.499 194.022L280.622 206.992Z" fill="#323657"/>
<path d="M209.061 223.725C208.045 223.697 207.041 223.506 206.086 223.16C206.086 223.16 204.528 222.156 203.378 221.518C203.083 221.348 202.779 221.196 202.466 221.062C200.68 220.54 198.989 219.734 197.459 218.675C195.498 217.182 189.107 211.203 189.107 211.203L193.238 204.853L195.145 198.565C195.145 198.565 210.045 200.047 212.032 201.229C212.222 201.34 212.404 201.462 212.58 201.593C214.166 202.756 214.86 204.289 215.62 204.993C215.894 205.255 218.493 208.033 218.348 209.16C218.31 209.79 218.112 210.4 217.772 210.933C217.432 211.465 216.962 211.902 216.406 212.202C216.406 212.202 215.88 215.247 214.308 216.608C214.171 217.441 213.843 218.232 213.352 218.918C212.861 219.605 212.218 220.169 211.474 220.568C211.474 220.568 210.753 223.383 209.061 223.725Z" fill="#EFAA88"/>
<path d="M185.337 31.6187C185.337 31.6187 212.268 25.1268 206.595 59.2235C200.922 93.3201 194.465 96.0882 178.057 89.2907C161.649 82.4933 162.791 60.6827 161.815 50.011C160.838 39.3392 176.722 32.1167 185.337 31.6187Z" fill="#EEA886"/>
<path d="M171.189 55.2293C170.789 52.2341 164.843 51.2218 164.432 55.7263C164.02 60.2309 167.308 68.0799 169.547 67.27C171.786 66.4602 171.742 59.359 171.189 55.2293Z" fill="#EEA886"/>
<path d="M163.387 67.4405C163.387 67.4405 163.926 56.7158 167.835 56.3236C171.743 55.9314 172.409 60.2381 172.409 60.2381L176.372 60.9258C176.372 60.9258 174.985 51.5536 178.868 49.8554C182.752 48.1572 204.262 54.6537 207.359 51.851C210.455 49.0483 208.699 30.0213 202.988 27.4995C197.277 24.9777 181.525 19.3641 170.16 27.3025C170.16 27.3025 161.198 26.4132 159.976 33.6539C158.755 40.8946 160.876 62.1069 163.387 67.4405Z" fill="#16202E"/>
<path d="M200.232 198.56L189.112 217.679C189.112 217.679 159.653 210.088 152.781 208.149L168.493 189.447C168.493 189.447 191.659 194.743 200.232 198.56Z" fill="#323657"/>
<path d="M190.123 96.1091C186.018 95.7658 182.056 94.443 178.568 92.252C175.08 90.0609 172.169 87.0653 170.078 83.5166C175.393 88.8476 182.525 91.9748 190.046 92.2722C190.046 92.5458 190.046 92.8285 190.046 93.1076C190.051 93.5636 190.055 94.0151 190.062 94.4675C190.075 95.032 190.099 95.5802 190.123 96.1091Z" fill="#A77860"/>
<path d="M389.598 265.569C389.117 264.931 388.471 264.435 387.729 264.137C386.987 263.838 386.178 263.747 385.389 263.874C384.599 264.001 383.86 264.341 383.249 264.857C382.638 265.374 382.18 266.047 381.924 266.804C381.711 267.433 381.643 268.102 381.726 268.761C381.808 269.42 382.039 270.051 382.401 270.608C382.763 271.165 383.247 271.632 383.815 271.976C384.384 272.319 385.023 272.528 385.684 272.589C385.798 272.598 385.914 272.607 386.03 272.607C386.103 272.607 386.176 272.607 386.248 272.603H386.325C387.121 272.56 387.89 272.301 388.55 271.855C389.21 271.409 389.736 270.791 390.072 270.069C390.408 269.346 390.542 268.546 390.458 267.754C390.375 266.961 390.078 266.207 389.598 265.57V265.569ZM387.212 271.315C386.908 271.425 386.59 271.49 386.267 271.508C386.194 271.508 386.12 271.512 386.046 271.512C385.172 271.5 384.339 271.142 383.73 270.516C383.12 269.89 382.784 269.048 382.795 268.175C382.798 267.941 382.826 267.708 382.879 267.48C382.904 267.372 382.934 267.265 382.971 267.161C383.149 266.633 383.459 266.159 383.87 265.783C384.282 265.408 384.782 265.143 385.324 265.013C385.866 264.883 386.432 264.893 386.969 265.041C387.506 265.19 387.997 265.472 388.396 265.861C388.794 266.251 389.087 266.735 389.248 267.269C389.408 267.803 389.43 268.368 389.313 268.913C389.195 269.458 388.941 269.964 388.575 270.384C388.208 270.804 387.742 271.124 387.218 271.314L387.212 271.315Z" fill="#4DA8F2"/>
<path d="M221.133 182.858C237.875 200.096 259.995 221.796 259.995 221.796L268.642 205.379C268.642 205.379 248.995 182.346 235.675 166.978C231.597 168.981 224.098 173.757 221.133 182.858Z" fill="#EEA886"/>
<path d="M210.793 206.03C212.755 206.953 214.654 208.004 216.477 209.178C217.653 210.149 222.422 213.719 223.579 214.559C224.735 215.399 221.835 217.787 213.309 214.095C204.784 210.402 210.793 206.03 210.793 206.03Z" fill="#EEA886"/>
<path d="M211.189 156.704L203.334 229.745H306.736L314.591 156.704H211.189Z" fill="#F5931D"/>
<path d="M312.639 226.372H208.426L216.37 152.525H320.582L312.639 226.372ZM209.324 225.564H311.915L319.685 153.331H217.093L209.324 225.564Z" fill="#F5931D"/>
<path d="M195.103 229.742H212.373V223.171H195.103V229.742Z" fill="#F5931D"/>
<mask id="mask0_132_3137" style="mask-type:luminance" maskUnits="userSpaceOnUse" x="28" y="229" width="282" height="6">
<path d="M309.982 229.593H28.9629V234.043H309.982V229.593Z" fill="white"/>
</mask>
<g mask="url(#mask0_132_3137)">
<path d="M33.286 229.593H28.9629V234.043H33.286V229.593Z" fill="#96CBFF"/>
<path d="M37.6082 229.593H33.2852V234.043H37.6082V229.593Z" fill="#95CAFF"/>
<path d="M41.9324 229.593H37.6094V234.043H41.9324V229.593Z" fill="#94C9FF"/>
<path d="M46.2547 229.593H41.9316V234.043H46.2547V229.593Z" fill="#93C9FF"/>
<path d="M50.5809 229.593H46.2578V234.043H50.5809V229.593Z" fill="#92C8FF"/>
<path d="M54.9012 229.593H50.5781V234.043H54.9012V229.593Z" fill="#91C7FF"/>
<path d="M59.2254 229.593H54.9023V234.043H59.2254V229.593Z" fill="#90C6FF"/>
<path d="M63.5477 229.593H59.2246V234.043H63.5477V229.593Z" fill="#8FC6FF"/>
<path d="M67.8728 229.593H63.5488V234.043H67.8728V229.593Z" fill="#8EC5FF"/>
<path d="M72.1942 229.593H67.8711V234.043H72.1942V229.593Z" fill="#8DC4FF"/>
<path d="M76.5184 229.593H72.1953V234.043H76.5184V229.593Z" fill="#8CC3FF"/>
<path d="M80.8407 229.593H76.5176V234.043H80.8407V229.593Z" fill="#8BC2FF"/>
<path d="M85.1688 229.593H80.8457V234.043H85.1688V229.593Z" fill="#8AC2FF"/>
<path d="M89.4871 229.593H85.1641V234.043H89.4871V229.593Z" fill="#89C1FF"/>
<path d="M93.8133 229.593H89.4902V234.043H93.8133V229.593Z" fill="#88C0FF"/>
<path d="M98.1336 229.593H93.8105V234.043H98.1336V229.593Z" fill="#87BFFF"/>
<path d="M102.462 229.593H98.1387V234.043H102.462V229.593Z" fill="#86BFFF"/>
<path d="M106.782 229.593H102.459V234.043H106.782V229.593Z" fill="#85BEFF"/>
<path d="M111.106 229.593H106.783V234.043H111.106V229.593Z" fill="#6FC4F0"/>
<path d="M115.429 229.593H111.105V234.043H115.429V229.593Z" fill="#83BCFF"/>
<path d="M119.755 229.593H115.432V234.043H119.755V229.593Z" fill="#82BBFF"/>
<path d="M124.077 229.593H119.754V234.043H124.077V229.593Z" fill="#81BBFF"/>
<path d="M128.401 229.593H124.078V234.043H128.401V229.593Z" fill="#80BAFF"/>
<path d="M132.722 229.593H128.398V234.043H132.722V229.593Z" fill="#7FB9FF"/>
<path d="M137.046 229.593H132.723V234.043H137.046V229.593Z" fill="#7EB8FF"/>
<path d="M141.37 229.593H137.047V234.043H141.37V229.593Z" fill="#7DB7FF"/>
<path d="M145.694 229.593H141.371V234.043H145.694V229.593Z" fill="#7CB7FF"/>
<path d="M150.016 229.593H145.693V234.043H150.016V229.593Z" fill="#7BB6FF"/>
<path d="M154.339 229.593H150.016V234.043H154.339V229.593Z" fill="#7AB5FF"/>
<path d="M158.663 229.593H154.34V234.043H158.663V229.593Z" fill="#79B4FF"/>
<path d="M162.986 229.593H158.662V234.043H162.986V229.593Z" fill="#78B4FF"/>
<path d="M167.309 229.593H162.986V234.043H167.309V229.593Z" fill="#77B3FF"/>
<path d="M171.634 229.593H167.311V234.043H171.634V229.593Z" fill="#76B2FF"/>
<path d="M175.958 229.593H171.635V234.043H175.958V229.593Z" fill="#74B1FF"/>
<path d="M180.282 229.593H175.959V234.043H180.282V229.593Z" fill="#73B0FF"/>
<path d="M184.602 229.593H180.279V234.043H184.602V229.593Z" fill="#72B0FF"/>
<path d="M188.925 229.593H184.602V234.043H188.925V229.593Z" fill="#71AFFF"/>
<path d="M193.249 229.593H188.926V234.043H193.249V229.593Z" fill="#70AEFF"/>
<path d="M197.573 229.593H193.25V234.043H197.573V229.593Z" fill="#6FADFF"/>
<path d="M201.897 229.593H197.574V234.043H201.897V229.593Z" fill="#6EADFF"/>
<path d="M206.22 229.593H201.896V234.043H206.22V229.593Z" fill="#6DACFF"/>
<path d="M210.546 229.593H206.223V234.043H210.546V229.593Z" fill="#6CABFF"/>
<path d="M214.868 229.593H210.545V234.043H214.868V229.593Z" fill="#6BAAFF"/>
<path d="M219.19 229.593H214.867V234.043H219.19V229.593Z" fill="#6AA9FF"/>
<path d="M223.514 229.593H219.191V234.043H223.514V229.593Z" fill="#69A9FF"/>
<path d="M227.837 229.593H223.514V234.043H227.837V229.593Z" fill="#68A8FF"/>
<path d="M232.161 229.593H227.838V234.043H232.161V229.593Z" fill="#67A7FF"/>
<path d="M236.483 229.593H232.16V234.043H236.483V229.593Z" fill="#66A6FF"/>
<path d="M240.807 229.593H236.484V234.043H240.807V229.593Z" fill="#65A6FF"/>
<path d="M245.13 229.593H240.807V234.043H245.13V229.593Z" fill="#64A5FF"/>
<path d="M249.454 229.593H245.131V234.043H249.454V229.593Z" fill="#6FC4F0"/>
<path d="M253.777 229.593H249.453V234.043H253.777V229.593Z" fill="#62A3FF"/>
<path d="M258.102 229.593H253.779V234.043H258.102V229.593Z" fill="#61A2FF"/>
<path d="M262.425 229.593H258.102V234.043H262.425V229.593Z" fill="#60A2FF"/>
<path d="M266.747 229.593H262.424V234.043H266.747V229.593Z" fill="#5FA1FF"/>
<path d="M271.071 229.593H266.748V234.043H271.071V229.593Z" fill="#5EA0FF"/>
<path d="M275.395 229.593H271.072V234.043H275.395V229.593Z" fill="#5D9FFF"/>
<path d="M279.718 229.593H275.395V234.043H279.718V229.593Z" fill="#5C9EFF"/>
<path d="M284.04 229.593H279.717V234.043H284.04V229.593Z" fill="#5B9EFF"/>
<path d="M288.364 229.593H284.041V234.043H288.364V229.593Z" fill="#5A9DFF"/>
<path d="M292.688 229.593H288.365V234.043H292.688V229.593Z" fill="#599CFF"/>
<path d="M297.011 229.593H292.688V234.043H297.011V229.593Z" fill="#589BFF"/>
<path d="M301.334 229.593H297.01V234.043H301.334V229.593Z" fill="#579BFF"/>
<path d="M305.657 229.593H301.334V234.043H305.657V229.593Z" fill="#569AFF"/>
<path d="M309.981 229.593H305.658V234.043H309.981V229.593Z" fill="#5599FF"/>
</g>
<path d="M481.706 324.549H238.227V329H481.706V324.549Z" fill="#F5931D"/>
<path d="M253.217 192.049C252.385 196.115 254.283 199.938 257.454 200.585C260.626 201.233 263.87 198.462 264.701 194.395C265.531 190.328 263.634 186.506 260.464 185.859C257.294 185.211 254.049 187.982 253.217 192.049Z" fill="#CFA345"/>
<path d="M450.427 163.097C450.427 163.097 452.812 167.14 453.82 167.801C455.188 168.697 454.329 169.604 453.68 169.604C453.031 169.604 449.715 169.842 448.985 169.013C448.254 168.184 447.89 165.7 447.213 165.049C446.535 164.399 445.831 161.817 447.544 161.189C449.057 160.634 450.427 163.097 450.427 163.097Z" fill="#6069A8"/>
<path d="M449.394 161.322C449.394 161.322 452.125 166.057 452.597 166.758C453.068 167.458 451.71 167.455 450.864 167.122C450.018 166.79 447.908 163.395 447.603 162.776C447.394 162.273 447.371 161.711 447.54 161.192L449.394 161.322Z" fill="#202338"/>
<path d="M446.627 163.87L447.257 168.725L447.591 168.74L447.487 165.247L446.627 163.87Z" fill="#6069A8"/>
<path d="M426.776 163.095C426.776 163.095 429.161 167.138 430.168 167.799C431.536 168.695 430.679 169.602 430.029 169.602C429.38 169.602 426.065 169.84 425.334 169.011C424.603 168.182 424.24 165.698 423.562 165.048C422.884 164.397 422.157 161.748 423.892 161.187C425.414 160.698 426.776 163.095 426.776 163.095Z" fill="#6069A8"/>
<path d="M425.885 161.331C425.885 161.331 428.473 166.056 428.943 166.757C429.413 167.457 428.058 167.454 427.217 167.121C426.376 166.789 424.26 163.394 423.956 162.775C423.746 162.272 423.722 161.71 423.89 161.191L425.885 161.331Z" fill="#202338"/>
<path d="M422.975 163.87L423.605 168.725L423.939 168.74L423.835 165.247L422.975 163.87Z" fill="#6069A8"/>
<path d="M416.197 126.301L437.782 136.136C438.506 136.406 439.141 136.872 439.614 137.484C440.088 138.095 440.381 138.826 440.461 139.595C441.303 147.944 447.55 161.191 447.55 161.191C449.556 162.171 449.399 161.32 449.399 161.32C448.137 157.266 446.599 140.558 446.05 133.84C445.934 132.418 445.862 131.443 445.848 131.132C445.837 130.92 445.604 130.642 445.205 130.318C442.243 127.917 430.056 122.944 430.056 122.944C420.902 122.713 416.197 126.301 416.197 126.301Z" fill="#202338"/>
<path d="M412.12 130.526C412.788 136.363 421.117 135.692 421.117 135.692H431.21C429.657 139.198 428.426 142.838 427.535 146.568C426.449 151.849 423.886 161.193 423.886 161.193C423.886 161.193 424.055 161.51 425.881 161.332C425.881 161.332 433.804 145.541 436.837 141.571C438.23 138.992 439.191 136.203 439.681 133.313C439.79 132.382 439.723 131.663 439.376 131.373C438.66 130.825 437.916 130.317 437.147 129.849C433.985 127.856 428.495 124.787 425.436 124.099C421.338 123.178 414.856 121.454 414.856 121.454C413.762 122.673 412.95 124.117 412.477 125.685C412.004 127.253 411.882 128.906 412.12 130.526Z" fill="#202338"/>
<path d="M418.992 85.5852C418.097 83.7476 417.825 81.6683 418.218 79.6624C418.954 76.6079 421.789 73.5645 425.939 74.9617C430.088 76.3589 433.443 79.583 430.955 83.3105C428.467 87.038 433.206 88.7217 431.999 90.4956C430.792 92.2695 431.249 94.1209 431.76 94.5341C432.271 94.9473 433.92 96.4175 433.739 98.1586C433.559 99.8996 425.688 93.084 425.688 93.084C425.688 93.084 421.402 84.4716 418.992 85.5852Z" fill="#464240"/>
<path d="M431.642 122.245C431.642 122.245 431.018 125.281 414.896 121.448C414.896 121.448 420.3 119.653 431.642 122.245Z" fill="#EB4747"/>
<path d="M414.712 122.3L413.963 123.731L431.641 124.246C430.71 121.124 431.012 116.898 431.175 113.689C431.374 109.767 433.539 107.046 433.308 103.083C434.474 103.271 434.676 103.307 435.843 103.486C434.058 98.3978 433.446 95.8778 427.899 93.9197C426.323 93.3191 424.625 93.1122 422.952 93.3168C416.527 93.8467 414.59 93.9224 411.436 99.743C416.374 100.529 415.562 102.303 417.059 107.216C417.789 109.612 418.552 112.286 418.16 114.814C417.775 117.302 414.712 120.03 414.712 122.3Z" fill="#5F8CC9"/>
<path d="M424.965 95.1542C422.336 94.6572 422.896 93.1951 422.896 93.1951C422.896 93.1951 423.017 92.3743 423.064 91.3273C423.077 91.0601 423.084 90.7801 423.084 90.4928C423.084 90.0606 423.059 89.6289 423.011 89.1995C422.795 87.4347 427.783 88.4872 427.783 88.4872C427.783 88.4872 427.496 92.0587 428.183 93.1286C428.87 94.1984 427.596 95.6504 424.965 95.1542Z" fill="#EEA886"/>
<path d="M419.951 93.186C419.951 93.186 425.255 99.3085 427.215 100.729C427.215 100.729 429.467 98.6929 428.078 93.3183C428.078 93.3183 425.519 92.0359 419.951 93.186Z" fill="#EEA886"/>
<path d="M420.094 78.4475C420.094 78.4475 417.34 83.7537 420.072 88.78C422.803 93.8062 428.17 86.5911 428.517 85.7447C428.865 84.8983 430.706 80.1101 427.043 78.6545C423.381 77.1989 420.873 77.0074 420.094 78.4475Z" fill="#EEA886"/>
<path d="M421.009 80.3287C421.009 80.3287 419.114 82.8185 418.889 84.6581C418.505 82.2927 418.995 79.8682 420.268 77.8379C422.403 74.4953 427.828 77.6792 428.555 79.0144C429.282 80.3497 431.412 81.5262 427.834 87.2647C427.834 87.2647 421.398 82.7939 421.009 80.3287Z" fill="#464240"/>
<path d="M425.405 89.3125C424.848 90.2095 424.029 90.9135 423.059 91.329C423.071 91.0618 423.079 90.7818 423.078 90.4945C423.954 90.3409 424.764 89.9294 425.405 89.3125Z" fill="#A77860"/>
<path d="M397.578 117.526C397.578 117.526 396.268 118.108 395.648 117.844C395.041 117.635 394.405 117.528 393.763 117.528C393.359 117.528 392.091 117.072 392.114 117.57C392.136 118.068 394.171 118.411 394.588 118.566C395.005 118.721 393.341 119.635 393.186 120.042C393.031 120.449 394.909 123.118 395.968 122.357C397.027 121.596 397.6 120.077 397.817 119.986C398.092 119.828 398.357 119.654 398.611 119.463L397.578 117.526Z" fill="#EEA886"/>
<path d="M393.387 119.805C393.387 119.805 390.317 122.35 390.268 122.694C390.22 123.038 390.381 123.198 390.68 122.968C390.978 122.737 393.724 120.596 393.724 120.596C393.724 120.596 390.648 124.23 390.545 124.499C390.484 124.657 390.779 124.985 390.95 124.879C391.122 124.773 394.394 121.352 394.394 121.352C394.394 121.352 391.529 124.751 391.512 125.005C391.515 125.069 391.537 125.131 391.574 125.183C391.611 125.235 391.662 125.275 391.722 125.299C391.781 125.322 391.846 125.329 391.909 125.316C391.972 125.304 392.03 125.275 392.076 125.23C392.308 124.993 395.159 121.995 395.159 121.995C395.159 121.995 393.243 124.604 393.36 124.834C393.432 124.974 393.675 125.269 394.146 124.579C394.618 123.89 395.917 122.39 395.917 122.39L393.387 119.805Z" fill="#EEA886"/>
<path d="M430.16 135.691H421.12C421.12 135.691 412.791 136.358 412.124 130.524C411.886 128.903 412.008 127.25 412.481 125.682C412.954 124.114 413.766 122.669 414.861 121.45C414.861 121.45 419.26 122.621 423.101 123.548C425.385 123.074 427.717 122.871 430.049 122.941C430.049 122.941 446.331 128.322 445.842 131.155C445.843 131.157 439.032 127.515 430.16 135.691Z" fill="#F5931D"/>
<path d="M424.275 125.588L441.513 125.334L432.81 129.753L424.275 125.588Z" fill="#5E5853"/>
<path d="M429.629 123.386C426.83 124.293 423.825 124.344 420.998 123.53L420.775 121.755L430.562 122.302L429.629 123.386Z" fill="#5F8CC9"/>
<path d="M432.809 129.753L424.275 126.447V125.588L433.487 128.91L432.809 129.753Z" fill="#91887F"/>
<path d="M429.571 124.207C429.56 124.353 429.587 124.499 429.65 124.632C429.712 124.764 429.807 124.878 429.926 124.963C430.045 125.048 430.184 125.101 430.33 125.117C430.475 125.132 430.622 125.11 430.757 125.052L431.76 124.626C431.907 124.563 432.028 124.454 432.105 124.314C432.182 124.175 432.21 124.014 432.184 123.857C431.767 121.25 430.874 111.102 432.18 109.355C432.584 108.841 432.906 108.267 433.135 107.654C433.997 109.879 435.07 112.743 435.497 114.285L443.64 125.118L446.37 125.81C444.643 121.475 442.589 117.276 440.227 113.251C439.694 111.82 438.165 107.488 436.812 103.63C435.957 101.194 435.17 98.9479 434.751 97.7404C434.537 97.1295 434.115 96.6131 433.56 96.2811C432.298 95.5269 430.197 94.3394 428.291 93.4137L428.267 93.4027C428.207 93.3735 428.147 93.3434 428.085 93.3115H428.08C431.705 98.7947 430.291 114.278 429.576 124.18L429.571 124.207Z" fill="#EDDAD3"/>
<path d="M416.118 93.7854C414.957 93.9678 412.078 96.7586 410.554 99.5796C408.809 102.798 407.035 106.464 405.703 107.669C403.256 109.887 396.407 117.723 396.08 117.533C396.728 118.404 397.441 119.224 398.213 119.986C398.341 120.042 409.472 110.396 410.542 108.927C411.556 107.533 414.267 101.686 415.078 101.813C415.857 103.566 416.52 105.369 417.061 107.21L417.107 107.366C417.69 109.724 417.77 112.179 417.343 114.571C416.808 116.988 415.909 119.309 414.677 121.457C414.628 121.591 414.606 121.735 414.612 121.878C414.618 122.021 414.653 122.162 414.714 122.292C414.738 122.366 414.777 122.435 414.828 122.494C414.879 122.554 414.941 122.602 415.01 122.638L418.279 123.849L419.047 124.133C419.283 124.22 419.535 124.253 419.786 124.23C420.036 124.206 420.278 124.126 420.493 123.996C420.708 123.867 420.892 123.69 421.029 123.479C421.167 123.269 421.255 123.03 421.288 122.781C422.018 117.191 422.93 111.48 423.667 109.328C424.628 106.638 425.013 103.776 424.796 100.928C424.58 98.0797 423.767 95.3087 422.41 92.7949C420.297 93.0151 418.196 93.3457 416.118 93.7854Z" fill="#EDDAD3"/>
<path d="M432.809 129.753L437.935 115.755L454.463 116.028L449.575 128.925L432.809 129.753Z" fill="#6E6760"/>
<path d="M443.226 121.949C442.721 122.958 442.873 124.056 443.566 124.402C444.259 124.747 445.227 124.212 445.732 123.203C446.236 122.195 446.084 121.097 445.392 120.751C444.699 120.404 443.729 120.941 443.226 121.949Z" fill="#807066"/>
<path d="M425.803 83.7326C426.095 84.1883 426.256 84.7151 426.27 85.2559C426.285 85.7967 426.151 86.3312 425.884 86.8016C424.905 88.2234 426.131 89.6198 426.34 91.1228C426.548 92.6259 422.257 96.6243 427.034 98.6362C431.81 100.648 433.327 97.3229 432.112 95.4924C430.781 93.7936 430.015 91.7204 429.923 89.5641C429.824 86.9584 428.964 82.8917 425.803 83.7326Z" fill="#464240"/>
<path d="M402.457 76.8926H412.423V85.6372L410.906 84.1123H402.462L402.457 76.8926Z" fill="#FFCB55"/>
<path d="M346.511 187.73C346.511 187.73 324.792 208.398 335.357 224.486C345.922 240.573 350.867 226.483 350.867 226.483C350.867 226.483 358.013 228.64 347.407 208.799C342.411 199.451 346.511 187.73 346.511 187.73Z" fill="#BBD070"/>
<path d="M306.36 165.321C306.36 165.321 289.769 184.819 311.951 211.82C334.133 238.821 330.694 253.093 330.694 253.093C330.694 253.093 361.572 206.15 306.36 165.321Z" fill="#97A43C"/>
<path d="M335.693 244.947C346.016 247.034 337.663 217.02 322.184 207.869C306.705 198.719 292.855 197.826 284.186 189.014C284.186 189.014 284.859 234.668 335.693 244.947Z" fill="#48753A"/>
<path d="M268.232 258.111C268.232 258.111 268.707 256.939 268.78 256.762C269.082 256.436 269.452 256.18 269.864 256.012C270.336 255.776 270.856 255.649 271.384 255.641C271.458 255.664 271.527 255.704 271.585 255.758C271.642 255.811 271.688 255.876 271.717 255.949C271.79 256.113 271.819 256.292 271.803 256.471C271.886 256.539 271.949 256.627 271.989 256.727C272.028 256.827 272.042 256.935 272.028 257.042C272.107 257.118 272.16 257.216 272.183 257.323C272.205 257.431 272.195 257.542 272.154 257.643C272.222 257.704 272.27 257.783 272.293 257.871C272.316 257.959 272.312 258.052 272.283 258.138C272.072 258.268 271.873 258.418 271.688 258.584C271.021 259.035 270.296 259.392 269.532 259.646C269.532 259.646 268.443 259.667 268.232 258.111Z" fill="#EEA886"/>
<path d="M269.91 257.469C269.921 257.742 269.895 258.016 269.834 258.282C269.748 258.465 271.122 258.862 271.122 258.862C271.122 258.862 270.682 257.474 269.91 257.469Z" fill="#CF8C6C"/>
<path d="M244.266 319.533L244.866 317.663L247.404 318.073L247.025 319.76L244.266 319.533Z" fill="#3B3F66"/>
<path d="M265.084 319.309L265.226 320.336L268.005 319.873L267.858 318.338L265.084 319.309Z" fill="#555C94"/>
<path d="M259.062 290.521C259.062 290.521 258.654 292.752 258.178 295.228C258.095 295.66 258.011 296.098 257.926 296.534C257.462 298.92 256.992 301.215 256.819 301.69C256.425 302.77 247.914 318.365 247.914 318.365C247.914 318.365 244.433 318.1 244.303 317.653C244.303 317.653 251.438 300.718 251.398 300.101C251.357 299.485 252.269 282.125 252.269 282.125C252.269 282.125 258.874 289.519 259.062 290.521Z" fill="#354C70"/>
<path d="M262.945 281.129C262.945 281.129 266.275 298.184 266.559 299.487C266.844 300.79 268.11 318.261 268.11 318.261C268.11 318.261 267.361 319.805 264.597 319.224C264.597 319.224 260.827 300.455 260.51 299.825C259.277 297.385 253.226 285.56 252.64 283.873C252.28 282.689 252.14 281.45 252.226 280.216C252.226 280.216 256.718 277.689 262.945 281.129Z" fill="#354C70"/>
<path d="M261.548 259.039C261.548 259.039 263.007 262.68 263.372 262.573C263.736 262.467 267.936 257.536 267.936 257.536C267.936 257.536 269.857 259.933 269.599 260.207C269.242 260.591 264.284 268.833 263.601 268.684C262.919 268.535 259.871 263.497 259.871 263.497C259.871 263.497 259.703 259.699 261.548 259.039Z" fill="#DEB135"/>
<path d="M255.303 252.091C256.983 253.355 258.596 254.705 260.137 256.135C261.181 257.282 264.067 262.045 263.859 263.477C263.147 268.084 262.746 272.735 262.658 277.396C262.637 280.66 263.676 281.493 263.029 281.542C262.285 281.598 252.755 285.052 251.344 285.472C251.344 285.472 252.269 273.981 252.736 272.652C253.204 271.323 251.238 257.427 255.303 252.091Z" fill="#F2C344"/>
<path d="M279.695 246.6L280.544 250.881L281.394 255.167C278.009 254.247 274.461 254.101 271.012 254.74L270.637 252.853L270.26 250.953C273.691 250.226 276.915 248.739 279.695 246.6Z" fill="#D9D0C4"/>
<path d="M265.227 320.331C265.227 320.331 267.324 319.925 267.398 319.862C267.472 319.799 267.922 318.969 268.246 319.113C268.569 319.258 268.575 320.266 268.891 320.437C269.208 320.607 271.712 322.299 272.02 322.607C272.329 322.916 274.225 322.734 274.442 323.27C274.659 323.805 274.677 325.07 271.848 324.772C269.019 324.474 265.788 324.934 265.179 324.6C264.57 324.266 265.031 321.152 265.227 320.331Z" fill="#6FC4F0"/>
<path d="M244.231 319.485C244.231 319.485 246.368 319.419 246.45 319.368C246.532 319.317 247.11 318.571 247.407 318.766C247.704 318.961 247.547 319.952 247.832 320.176C248.117 320.4 250.32 322.466 250.574 322.821C250.827 323.176 252.729 323.299 252.858 323.861C252.988 324.424 252.803 325.676 250.058 324.929C247.314 324.182 244.051 324.12 243.503 323.694C242.954 323.267 243.907 320.257 244.231 319.485Z" fill="#6FC4F0"/>
<path d="M260.826 281.921C260.826 281.921 261.083 282.96 261.492 283.185C261.902 283.41 259.577 285.629 259.577 285.629C259.224 284.894 258.918 284.138 258.66 283.365C259.337 282.819 260.062 282.335 260.826 281.921Z" fill="#EEA987"/>
<path d="M253.623 256.582C253.623 256.582 250.905 269.513 250.682 270.837C250.471 272.09 258.652 284.053 258.652 284.053L261.372 282.439C261.372 282.439 254.771 270.437 254.781 269.889C254.791 269.342 257.949 258.917 257.949 258.917C258.126 258.631 258.244 258.312 258.293 257.98C258.343 257.647 258.324 257.308 258.238 256.984C258.152 256.659 258 256.355 257.791 256.091C257.583 255.827 257.323 255.608 257.028 255.449C256.732 255.289 256.406 255.192 256.072 255.163C255.737 255.133 255.399 255.173 255.08 255.279C254.761 255.385 254.468 255.556 254.217 255.78C253.966 256.004 253.764 256.277 253.623 256.582Z" fill="#F5931D"/>
<path d="M262.414 282.813C262.816 284.709 263.093 286.628 263.244 288.559C263.19 289.906 258.169 286.441 258.423 285.1L262.414 282.813Z" fill="#3C5780"/>
<path d="M255.305 252.088C255.305 252.088 262.203 259.624 261.78 258.789C260.265 255.81 259.208 255.307 259.226 254.752C259.244 254.326 259.409 253.087 259.438 252.672C259.492 251.882 259.55 251.24 259.55 251.24C259.55 251.24 256.125 246.429 256.276 248.069C256.236 249.462 255.905 250.831 255.305 252.088Z" fill="#EEA886"/>
<path d="M261.875 243.221C262.272 244.108 262.593 245.027 262.837 245.968C262.79 246.474 262.777 246.982 262.799 247.489C263.021 248.241 263.201 249.005 263.34 249.777C263.262 250.214 262.344 249.986 262.218 250.705C262.092 251.425 261.424 252.773 261.091 252.803C260.237 252.873 256.966 251.54 256.758 250.856C256.549 250.172 255.365 246.356 254.996 245.63C254.628 244.904 260.758 240.928 261.317 242.073L261.875 243.221Z" fill="#EEA886"/>
<path d="M253.535 244.872C253.103 242.983 255.274 242.75 255.274 242.75C255.274 242.75 256.688 241.103 260.072 241.299C263.456 241.496 262.94 245.911 262.94 245.911C261.829 245.73 260.699 245.699 259.58 245.819C259.518 246.602 259.513 247.389 259.567 248.173L258.29 248.059C258.29 248.059 258.432 246.385 257.819 246.306C257.206 246.226 256.998 249.849 255.86 250.647C255.845 250.469 255.793 250.297 255.706 250.141C255.367 249.547 255.07 248.929 254.819 248.293C254.292 247.192 253.862 246.048 253.535 244.872Z" fill="#16202E"/>
<path d="M258.673 246.706C258.629 246.546 258.543 246.399 258.426 246.281C258.308 246.162 258.162 246.077 258.001 246.031C257.841 245.986 257.671 245.983 257.509 246.023C257.347 246.062 257.198 246.143 257.076 246.257C256.26 246.861 257.099 249.018 257.897 249.007C258.695 248.996 259.011 247.822 258.673 246.706Z" fill="#EEA886"/>
<path d="M256.57 250.253C256.634 250.551 256.753 250.834 256.92 251.089C257.669 251.693 258.53 252.144 259.453 252.414L259.322 253.752C259.322 253.752 256.421 252.633 256.57 250.253Z" fill="#C48A6F"/>
<mask id="mask1_132_3137" style="mask-type:luminance" maskUnits="userSpaceOnUse" x="268" y="254" width="5" height="6">
<path d="M271.781 259.416L272.268 259.184L270.061 254.503L268.824 255.085L270.695 259.056C270.737 259.155 270.8 259.245 270.88 259.318C270.959 259.392 271.054 259.447 271.157 259.481C271.259 259.515 271.368 259.527 271.476 259.516C271.584 259.505 271.688 259.471 271.781 259.416Z" fill="white"/>
</mask>
<g mask="url(#mask1_132_3137)">
<path d="M268.877 254.503H268.824V259.625H268.877V254.503Z" fill="#96CBFF"/>
<path d="M268.929 254.503H268.875V259.625H268.929V254.503Z" fill="#95CAFF"/>
<path d="M268.983 254.503H268.93V259.625H268.983V254.503Z" fill="#94C9FF"/>
<path d="M269.036 254.503H268.982V259.625H269.036V254.503Z" fill="#93C9FF"/>
<path d="M269.09 254.503H269.037V259.625H269.09V254.503Z" fill="#92C8FF"/>
<path d="M269.144 254.503H269.09V259.625H269.144V254.503Z" fill="#91C7FF"/>
<path d="M269.194 254.503H269.141V259.625H269.194V254.503Z" fill="#90C6FF"/>
<path d="M269.249 254.503H269.195V259.625H269.249V254.503Z" fill="#8FC6FF"/>
<path d="M269.301 254.503H269.248V259.625H269.301V254.503Z" fill="#8EC5FF"/>
<path d="M269.355 254.503H269.301V259.625H269.355V254.503Z" fill="#8DC4FF"/>
<path d="M269.406 254.503H269.354V259.625H269.406V254.503Z" fill="#8CC3FF"/>
<path d="M269.46 254.503H269.406V259.625H269.46V254.503Z" fill="#8BC2FF"/>
<path d="M269.514 254.503H269.461V259.625H269.514V254.503Z" fill="#8AC2FF"/>
<path d="M269.567 254.503H269.514V259.625H269.567V254.503Z" fill="#89C1FF"/>
<path d="M269.619 254.503H269.566V259.625H269.619V254.503Z" fill="#88C0FF"/>
<path d="M269.673 254.503H269.619V259.625H269.673V254.503Z" fill="#87BFFF"/>
<path d="M269.725 254.503H269.672V259.625H269.725V254.503Z" fill="#86BFFF"/>
<path d="M269.778 254.503H269.725V259.625H269.778V254.503Z" fill="#85BEFF"/>
<path d="M269.831 254.503H269.777V259.625H269.831V254.503Z" fill="#6FC4F0"/>
<path d="M269.884 254.503H269.83V259.625H269.884V254.503Z" fill="#83BCFF"/>
<path d="M269.938 254.503H269.885V259.625H269.938V254.503Z" fill="#82BBFF"/>
<path d="M269.99 254.503H269.938V259.625H269.99V254.503Z" fill="#81BBFF"/>
<path d="M270.042 254.503H269.988V259.625H270.042V254.503Z" fill="#80BAFF"/>
<path d="M270.097 254.503H270.043V259.625H270.097V254.503Z" fill="#7FB9FF"/>
<path d="M270.149 254.503H270.096V259.625H270.149V254.503Z" fill="#7EB8FF"/>
<path d="M270.201 254.503H270.148V259.625H270.201V254.503Z" fill="#7DB7FF"/>
<path d="M270.255 254.503H270.201V259.625H270.255V254.503Z" fill="#7CB7FF"/>
<path d="M270.308 254.503H270.254V259.625H270.308V254.503Z" fill="#7BB6FF"/>
<path d="M270.361 254.503H270.309V259.625H270.361V254.503Z" fill="#7AB5FF"/>
<path d="M270.412 254.503H270.359V259.625H270.412V254.503Z" fill="#79B4FF"/>
<path d="M270.468 254.503H270.414V259.625H270.468V254.503Z" fill="#78B4FF"/>
<path d="M270.52 254.503H270.467V259.625H270.52V254.503Z" fill="#77B3FF"/>
<path d="M270.573 254.503H270.52V259.625H270.573V254.503Z" fill="#76B2FF"/>
<path d="M270.625 254.503H270.572V259.625H270.625V254.503Z" fill="#74B1FF"/>
<path d="M270.679 254.503H270.625V259.625H270.679V254.503Z" fill="#73B0FF"/>
<path d="M270.731 254.503H270.678V259.625H270.731V254.503Z" fill="#72B0FF"/>
<path d="M270.786 254.503H270.732V259.625H270.786V254.503Z" fill="#71AFFF"/>
<path d="M270.838 254.503H270.785V259.625H270.838V254.503Z" fill="#70AEFF"/>
<path d="M270.892 254.503H270.838V259.625H270.892V254.503Z" fill="#6FADFF"/>
<path d="M270.944 254.503H270.891V259.625H270.944V254.503Z" fill="#6EADFF"/>
<path d="M270.997 254.503H270.943V259.625H270.997V254.503Z" fill="#6DACFF"/>
<path d="M271.049 254.503H270.996V259.625H271.049V254.503Z" fill="#6CABFF"/>
<path d="M271.103 254.503H271.049V259.625H271.103V254.503Z" fill="#6BAAFF"/>
<path d="M271.156 254.503H271.104V259.625H271.156V254.503Z" fill="#6AA9FF"/>
<path d="M271.208 254.503H271.154V259.625H271.208V254.503Z" fill="#69A9FF"/>
<path d="M271.262 254.503H271.209V259.625H271.262V254.503Z" fill="#68A8FF"/>
<path d="M271.316 254.503H271.262V259.625H271.316V254.503Z" fill="#67A7FF"/>
<path d="M271.367 254.503H271.314V259.625H271.367V254.503Z" fill="#66A6FF"/>
<path d="M271.421 254.503H271.367V259.625H271.421V254.503Z" fill="#65A6FF"/>
<path d="M271.473 254.503H271.42V259.625H271.473V254.503Z" fill="#64A5FF"/>
<path d="M271.526 254.503H271.473V259.625H271.526V254.503Z" fill="#6FC4F0"/>
<path d="M271.58 254.503H271.527V259.625H271.58V254.503Z" fill="#62A3FF"/>
<path d="M271.632 254.503H271.578V259.625H271.632V254.503Z" fill="#61A2FF"/>
<path d="M271.686 254.503H271.633V259.625H271.686V254.503Z" fill="#60A2FF"/>
<path d="M271.739 254.503H271.686V259.625H271.739V254.503Z" fill="#5FA1FF"/>
<path d="M271.791 254.503H271.738V259.625H271.791V254.503Z" fill="#5EA0FF"/>
<path d="M271.845 254.503H271.791V259.625H271.845V254.503Z" fill="#5D9FFF"/>
<path d="M271.897 254.503H271.844V259.625H271.897V254.503Z" fill="#5C9EFF"/>
<path d="M271.95 254.503H271.896V259.625H271.95V254.503Z" fill="#5B9EFF"/>
<path d="M272.004 254.503H271.951V259.625H272.004V254.503Z" fill="#5A9DFF"/>
<path d="M272.058 254.503H272.004V259.625H272.058V254.503Z" fill="#599CFF"/>
<path d="M272.11 254.503H272.057V259.625H272.11V254.503Z" fill="#589BFF"/>
<path d="M272.161 254.503H272.107V259.625H272.161V254.503Z" fill="#579BFF"/>
<path d="M272.215 254.503H272.162V259.625H272.215V254.503Z" fill="#569AFF"/>
<path d="M272.269 254.503H272.215V259.625H272.269V254.503Z" fill="#5599FF"/>
</g>
<path d="M271.238 255.706C271.238 255.706 269.858 256.464 269.953 256.702C269.972 256.766 270.008 256.823 270.056 256.87C270.103 256.917 270.162 256.951 270.226 256.969L269.799 257.538C269.799 257.538 269.73 258.076 270.335 257.994C270.335 257.994 270.218 258.49 270.791 258.342C270.791 258.342 270.859 258.702 271.137 258.681C271.54 258.546 271.926 258.362 272.285 258.134C272.285 258.134 272.418 257.941 272.156 257.64C272.198 257.538 272.208 257.427 272.186 257.319C272.163 257.212 272.109 257.114 272.03 257.038C272.047 256.931 272.036 256.822 271.996 256.721C271.956 256.621 271.89 256.533 271.805 256.467C271.805 256.467 271.933 255.793 271.385 255.637C271.385 255.637 271.297 255.674 271.238 255.706Z" fill="#DB9C7C"/>
<mask id="mask2_132_3137" style="mask-type:luminance" maskUnits="userSpaceOnUse" x="266" y="250" width="7" height="6">
<path d="M267.205 255.524L272.074 254.612L271.281 250.62L266.447 251.721L267.205 255.524Z" fill="white"/>
</mask>
<g mask="url(#mask2_132_3137)">
<path d="M266.536 250.623H266.449V255.523H266.536V250.623Z" fill="#96CBFF"/>
<path d="M266.622 250.623H266.535V255.523H266.622V250.623Z" fill="#95CAFF"/>
<path d="M266.711 250.623H266.623V255.523H266.711V250.623Z" fill="#94C9FF"/>
<path d="M266.796 250.623H266.709V255.523H266.796V250.623Z" fill="#93C9FF"/>
<path d="M266.882 250.623H266.795V255.523H266.882V250.623Z" fill="#92C8FF"/>
<path d="M266.969 250.623H266.883V255.523H266.969V250.623Z" fill="#91C7FF"/>
<path d="M267.055 250.623H266.969V255.523H267.055V250.623Z" fill="#90C6FF"/>
<path d="M267.141 250.623H267.055V255.523H267.141V250.623Z" fill="#8FC6FF"/>
<path d="M267.227 250.623H267.141V255.523H267.227V250.623Z" fill="#8EC5FF"/>
<path d="M267.313 250.623H267.227V255.523H267.313V250.623Z" fill="#8DC4FF"/>
<path d="M267.402 250.623H267.314V255.523H267.402V250.623Z" fill="#8CC3FF"/>
<path d="M267.487 250.623H267.4V255.523H267.487V250.623Z" fill="#8BC2FF"/>
<path d="M267.573 250.623H267.486V255.523H267.573V250.623Z" fill="#8AC2FF"/>
<path d="M267.661 250.623H267.574V255.523H267.661V250.623Z" fill="#89C1FF"/>
<path d="M267.747 250.623H267.66V255.523H267.747V250.623Z" fill="#88C0FF"/>
<path d="M267.833 250.623H267.746V255.523H267.833V250.623Z" fill="#87BFFF"/>
<path d="M267.919 250.623H267.832V255.523H267.919V250.623Z" fill="#86BFFF"/>
<path d="M268.007 250.623H267.92V255.523H268.007V250.623Z" fill="#85BEFF"/>
<path d="M268.093 250.623H268.006V255.523H268.093V250.623Z" fill="#6FC4F0"/>
<path d="M268.18 250.623H268.094V255.523H268.18V250.623Z" fill="#83BCFF"/>
<path d="M268.266 250.623H268.18V255.523H268.266V250.623Z" fill="#82BBFF"/>
<path d="M268.352 250.623H268.266V255.523H268.352V250.623Z" fill="#81BBFF"/>
<path d="M268.438 250.623H268.352V255.523H268.438V250.623Z" fill="#80BAFF"/>
<path d="M268.524 250.623H268.438V255.523H268.524V250.623Z" fill="#7FB9FF"/>
<path d="M268.612 250.623H268.525V255.523H268.612V250.623Z" fill="#7EB8FF"/>
<path d="M268.698 250.623H268.611V255.523H268.698V250.623Z" fill="#7DB7FF"/>
<path d="M268.784 250.623H268.697V255.523H268.784V250.623Z" fill="#7CB7FF"/>
<path d="M268.87 250.623H268.783V255.523H268.87V250.623Z" fill="#7BB6FF"/>
<path d="M268.958 250.623H268.871V255.523H268.958V250.623Z" fill="#7AB5FF"/>
<path d="M269.047 250.623H268.959V255.523H269.047V250.623Z" fill="#79B4FF"/>
<path d="M269.13 250.623H269.043V255.523H269.13V250.623Z" fill="#78B4FF"/>
<path d="M269.218 250.623H269.131V255.523H269.218V250.623Z" fill="#77B3FF"/>
<path d="M269.303 250.623H269.217V255.523H269.303V250.623Z" fill="#76B2FF"/>
<path d="M269.389 250.623H269.303V255.523H269.389V250.623Z" fill="#74B1FF"/>
<path d="M269.475 250.623H269.389V255.523H269.475V250.623Z" fill="#73B0FF"/>
<path d="M269.563 250.623H269.477V255.523H269.563V250.623Z" fill="#72B0FF"/>
<path d="M269.649 250.623H269.562V255.523H269.649V250.623Z" fill="#71AFFF"/>
<path d="M269.736 250.623H269.648V255.523H269.736V250.623Z" fill="#70AEFF"/>
<path d="M269.823 250.623H269.736V255.523H269.823V250.623Z" fill="#6FADFF"/>
<path d="M269.911 250.623H269.824V255.523H269.911V250.623Z" fill="#6EADFF"/>
<path d="M269.995 250.623H269.908V255.523H269.995V250.623Z" fill="#6DACFF"/>
<path d="M270.083 250.623H269.996V255.523H270.083V250.623Z" fill="#6CABFF"/>
<path d="M270.171 250.623H270.084V255.523H270.171V250.623Z" fill="#6BAAFF"/>
<path d="M270.255 250.623H270.168V255.523H270.255V250.623Z" fill="#6AA9FF"/>
<path d="M270.341 250.623H270.254V255.523H270.341V250.623Z" fill="#69A9FF"/>
<path d="M270.426 250.623H270.34V255.523H270.426V250.623Z" fill="#68A8FF"/>
<path d="M270.517 250.623H270.43V255.523H270.517V250.623Z" fill="#67A7FF"/>
<path d="M270.602 250.623H270.516V255.523H270.602V250.623Z" fill="#66A6FF"/>
<path d="M270.686 250.623H270.6V255.523H270.686V250.623Z" fill="#65A6FF"/>
<path d="M270.774 250.623H270.688V255.523H270.774V250.623Z" fill="#64A5FF"/>
<path d="M270.862 250.623H270.775V255.523H270.862V250.623Z" fill="#6FC4F0"/>
<path d="M270.946 250.623H270.859V255.523H270.946V250.623Z" fill="#62A3FF"/>
<path d="M271.032 250.623H270.945V255.523H271.032V250.623Z" fill="#61A2FF"/>
<path d="M271.12 250.623H271.033V255.523H271.12V250.623Z" fill="#60A2FF"/>
<path d="M271.209 250.623H271.121V255.523H271.209V250.623Z" fill="#5FA1FF"/>
<path d="M271.294 250.623H271.207V255.523H271.294V250.623Z" fill="#5EA0FF"/>
<path d="M271.38 250.623H271.293V255.523H271.38V250.623Z" fill="#5D9FFF"/>
<path d="M271.468 250.623H271.381V255.523H271.468V250.623Z" fill="#5C9EFF"/>
<path d="M271.553 250.623H271.467V255.523H271.553V250.623Z" fill="#5B9EFF"/>
<path d="M271.639 250.623H271.553V255.523H271.639V250.623Z" fill="#5A9DFF"/>
<path d="M271.727 250.623H271.641V255.523H271.727V250.623Z" fill="#599CFF"/>
<path d="M271.811 250.623H271.725V255.523H271.811V250.623Z" fill="#589BFF"/>
<path d="M271.897 250.623H271.811V255.523H271.897V250.623Z" fill="#579BFF"/>
<path d="M271.984 250.623H271.896V255.523H271.984V250.623Z" fill="#569AFF"/>
<path d="M272.073 250.623H271.986V255.523H272.073V250.623Z" fill="#5599FF"/>
</g>
<path d="M268.823 256.731C269.39 256.713 269.956 256.784 270.501 256.942C270.635 256.998 270.756 257.075 270.756 257.222C270.756 257.369 270.544 257.553 270.078 257.587C269.714 257.637 269.359 257.737 269.023 257.885C269.023 257.885 268.532 257.787 268.823 256.731Z" fill="#EEA886"/>
<path d="M258.175 295.224C258.092 295.656 258.008 296.094 257.924 296.53L255.158 289.213C255.524 289.952 258.175 295.224 258.175 295.224Z" fill="#293B57"/>
<path d="M62.4406 127.476H106.056C107.604 127.476 109.089 128.091 110.184 129.185C111.278 130.28 111.893 131.765 111.893 133.313V202.212C111.893 203.76 111.278 205.245 110.184 206.339C109.089 207.434 107.604 208.049 106.056 208.049H62.4406C60.8925 208.049 59.4078 207.434 58.3132 206.339C57.2185 205.245 56.6035 203.76 56.6035 202.212V133.313C56.6035 131.765 57.2185 130.28 58.3132 129.185C59.4078 128.091 60.8925 127.476 62.4406 127.476Z" fill="#F5931D"/>
<path d="M106.022 179.514H103.156V201.314H106.022V179.514Z" fill="#E3F2FF"/>
<path d="M100.363 181.956H97.498V201.314H100.363V181.956Z" fill="#E3F2FF"/>
<path d="M94.2046 185.135H91.3398V201.314H94.2046V185.135Z" fill="#E3F2FF"/>
<path d="M87.8979 189.143H85.0332V201.316H87.8979V189.143Z" fill="#E3F2FF"/>
<path d="M67.9375 186.559L67.3164 186.339L72.7184 171.184L84.4327 168.083L88.6427 151.45L97.6828 147.461L99.7075 134.527L100.359 134.629L98.2784 147.918L89.2036 151.924L84.9772 168.62L73.2228 171.73L67.9375 186.559Z" fill="#E3F2FF"/>
<path d="M86.0659 167.239C86.2858 167.508 86.4209 167.837 86.4542 168.183C86.4875 168.529 86.4174 168.877 86.2529 169.183C86.0883 169.489 85.8367 169.74 85.5298 169.903C85.223 170.066 84.8746 170.134 84.5287 170.1C84.1829 170.065 83.8552 169.928 83.587 169.707C83.3188 169.486 83.1221 169.19 83.0219 168.858C82.9217 168.525 82.9224 168.17 83.024 167.837C83.1255 167.505 83.3234 167.21 83.5925 166.99C83.9536 166.695 84.4169 166.556 84.8808 166.603C85.3446 166.649 85.7709 166.878 86.0659 167.239Z" fill="#F5931D"/>
<path d="M86.0322 169.968C85.7126 170.23 85.3226 170.391 84.9116 170.43C84.5007 170.47 84.0871 170.387 83.7233 170.192C83.3595 169.996 83.0618 169.698 82.8678 169.333C82.6738 168.969 82.5923 168.555 82.6335 168.144C82.6747 167.733 82.8368 167.344 83.0993 167.025C83.3618 166.706 83.7129 166.473 84.1082 166.353C84.5036 166.234 84.9253 166.235 85.3203 166.356C85.7152 166.476 86.0655 166.711 86.3268 167.031C86.6771 167.459 86.8428 168.01 86.7876 168.561C86.7323 169.111 86.4607 169.618 86.0322 169.968ZM83.8078 167.247C83.5886 167.425 83.4274 167.665 83.3445 167.935C83.2616 168.206 83.2607 168.494 83.342 168.765C83.4233 169.036 83.5831 169.276 83.8012 169.456C84.0193 169.636 84.2859 169.747 84.5672 169.775C84.8484 169.804 85.1317 169.748 85.3812 169.615C85.6307 169.482 85.8352 169.278 85.9688 169.029C86.1023 168.78 86.1589 168.497 86.1314 168.215C86.1039 167.934 85.9935 167.667 85.8143 167.448C85.5746 167.156 85.2288 166.971 84.8527 166.933C84.4766 166.895 84.1008 167.008 83.8078 167.247Z" fill="#E3F2FF"/>
<path d="M90.3331 150.675C90.553 150.944 90.6883 151.272 90.7217 151.618C90.7551 151.964 90.6852 152.312 90.5208 152.619C90.3564 152.925 90.1048 153.175 89.798 153.339C89.4912 153.502 89.1428 153.571 88.7969 153.536C88.4511 153.501 88.1233 153.365 87.855 153.144C87.5867 152.923 87.39 152.627 87.2897 152.294C87.1893 151.962 87.1899 151.607 87.2914 151.274C87.3928 150.942 87.5906 150.647 87.8596 150.427C88.0382 150.281 88.244 150.171 88.465 150.104C88.686 150.037 88.918 150.015 89.1478 150.038C89.3775 150.061 89.6004 150.129 89.8038 150.238C90.0072 150.348 90.187 150.496 90.3331 150.675Z" fill="#F5931D"/>
<path d="M90.29 153.404C89.9704 153.665 89.5804 153.826 89.1695 153.866C88.7585 153.906 88.3449 153.823 87.9811 153.627C87.6173 153.432 87.3196 153.133 87.1256 152.769C86.9316 152.404 86.8501 151.99 86.8913 151.58C86.9325 151.169 87.0946 150.779 87.3571 150.461C87.6196 150.142 87.9707 149.908 88.366 149.789C88.7614 149.67 89.1832 149.671 89.5781 149.791C89.973 149.912 90.3233 150.147 90.5846 150.466C90.9344 150.895 91.0999 151.445 91.0446 151.996C90.9894 152.547 90.718 153.053 90.29 153.404ZM88.0656 150.682C87.8464 150.861 87.6852 151.101 87.6023 151.371C87.5194 151.641 87.5185 151.93 87.5998 152.201C87.6811 152.471 87.841 152.712 88.0591 152.892C88.2771 153.072 88.5437 153.183 88.825 153.211C89.1062 153.239 89.3895 153.183 89.639 153.05C89.8886 152.918 90.093 152.714 90.2266 152.464C90.3601 152.215 90.4167 151.932 90.3892 151.651C90.3617 151.369 90.2513 151.103 90.0721 150.884C89.8324 150.592 89.4866 150.406 89.1105 150.369C88.7344 150.331 88.3586 150.444 88.0656 150.682Z" fill="#E3F2FF"/>
<path d="M99.233 146.572C99.4532 146.841 99.5885 147.169 99.622 147.516C99.6554 147.862 99.5854 148.21 99.4208 148.517C99.2563 148.823 99.0045 149.074 98.6974 149.237C98.3903 149.4 98.0417 149.469 97.6956 149.434C97.3495 149.399 97.0215 149.263 96.7531 149.041C96.4848 148.82 96.288 148.524 96.1878 148.191C96.0876 147.858 96.0885 147.503 96.1902 147.17C96.292 146.837 96.4901 146.543 96.7595 146.323C96.9383 146.176 97.1441 146.067 97.3651 146C97.5862 145.934 97.8182 145.911 98.0478 145.935C98.2775 145.958 98.5004 146.026 98.7038 146.135C98.9071 146.244 99.087 146.393 99.233 146.572Z" fill="#F5931D"/>
<path d="M99.1899 149.301C98.8702 149.562 98.4802 149.723 98.0692 149.762C97.6582 149.802 97.2447 149.719 96.8809 149.523C96.5172 149.328 96.2196 149.029 96.0257 148.665C95.8318 148.3 95.7504 147.886 95.7917 147.475C95.8331 147.065 95.9953 146.675 96.2579 146.357C96.5205 146.038 96.8717 145.804 97.267 145.685C97.6624 145.566 98.0842 145.567 98.479 145.688C98.8739 145.808 99.2241 146.044 99.4854 146.363C99.8351 146.792 100 147.342 99.945 147.893C99.8896 148.444 99.618 148.95 99.1899 149.301ZM96.9645 146.578C96.7453 146.757 96.584 146.996 96.501 147.267C96.4179 147.537 96.4169 147.826 96.4981 148.096C96.5793 148.367 96.739 148.608 96.9571 148.788C97.1751 148.968 97.4416 149.079 97.7228 149.107C98.0041 149.136 98.2874 149.08 98.537 148.947C98.7865 148.814 98.9911 148.611 99.1247 148.361C99.2584 148.112 99.3151 147.829 99.2878 147.548C99.2604 147.267 99.1502 147 98.971 146.781C98.7312 146.489 98.3855 146.304 98.0095 146.266C97.6336 146.228 97.2579 146.34 96.9645 146.578Z" fill="#E3F2FF"/>
<path d="M74.397 170.493C74.6171 170.763 74.7525 171.091 74.786 171.437C74.8195 171.783 74.7496 172.132 74.5851 172.438C74.4206 172.744 74.169 172.995 73.862 173.159C73.555 173.322 73.2064 173.391 72.8603 173.356C72.5143 173.321 72.1863 173.185 71.9179 172.964C71.6494 172.743 71.4525 172.447 71.3522 172.114C71.2518 171.781 71.2524 171.426 71.354 171.093C71.4555 170.76 71.6534 170.465 71.9226 170.245C72.1013 170.099 72.3071 169.989 72.5282 169.923C72.7493 169.856 72.9814 169.833 73.2112 169.856C73.441 169.879 73.664 169.948 73.8675 170.057C74.0709 170.166 74.2509 170.314 74.397 170.493Z" fill="#F5931D"/>
<path d="M74.3579 173.22C74.0381 173.481 73.6481 173.642 73.2371 173.681C72.8261 173.721 72.4126 173.638 72.0489 173.442C71.6852 173.247 71.3876 172.948 71.1937 172.584C70.9998 172.219 70.9184 171.805 70.9597 171.394C71.001 170.984 71.1632 170.594 71.4258 170.276C71.6884 169.957 72.0396 169.723 72.435 169.604C72.8303 169.485 73.2521 169.486 73.647 169.607C74.0419 169.727 74.3921 169.962 74.6534 170.282C75.0035 170.711 75.1691 171.261 75.1137 171.812C75.0583 172.363 74.7864 172.869 74.3579 173.22ZM72.1334 170.498C71.9143 170.677 71.753 170.916 71.6701 171.187C71.5872 171.457 71.5863 171.746 71.6676 172.016C71.749 172.287 71.9088 172.528 72.1269 172.708C72.345 172.887 72.6115 172.998 72.8928 173.027C73.174 173.055 73.4574 172.999 73.7069 172.866C73.9564 172.733 74.1608 172.529 74.2944 172.28C74.4279 172.031 74.4845 171.748 74.457 171.467C74.4295 171.185 74.3191 170.918 74.1399 170.7C73.9001 170.408 73.5542 170.223 73.1781 170.185C72.802 170.147 72.4263 170.26 72.1334 170.499V170.498Z" fill="#E3F2FF"/>
<path d="M63.7379 150.347H78.8149C78.9807 150.346 79.1451 150.379 79.2984 150.442C79.4517 150.505 79.5911 150.598 79.7085 150.715C79.826 150.832 79.9191 150.971 79.9827 151.125C80.0462 151.278 80.0789 151.442 80.0789 151.608V152.731C80.0793 152.897 80.0469 153.061 79.9835 153.215C79.9201 153.368 79.827 153.508 79.7095 153.625C79.5921 153.743 79.4526 153.836 79.299 153.899C79.1455 153.963 78.981 153.995 78.8149 153.995H63.7388C63.5729 153.995 63.4086 153.962 63.2554 153.899C63.1021 153.835 62.9629 153.742 62.8456 153.624C62.7284 153.507 62.6355 153.368 62.5721 153.214C62.5088 153.061 62.4763 152.897 62.4766 152.731V151.608C62.4766 151.274 62.6095 150.953 62.846 150.716C63.0826 150.48 63.4034 150.347 63.7379 150.347Z" fill="#EBEBEB"/>
<path d="M63.7379 143.972H78.8149C78.9807 143.971 79.1451 144.004 79.2984 144.067C79.4517 144.13 79.5911 144.223 79.7085 144.34C79.826 144.457 79.9191 144.596 79.9827 144.75C80.0462 144.903 80.0789 145.067 80.0789 145.233V146.356C80.0792 146.522 80.0466 146.686 79.9831 146.84C79.9196 146.994 79.8264 147.133 79.7089 147.25C79.5914 147.368 79.4518 147.461 79.2983 147.524C79.1447 147.588 78.9801 147.62 78.8139 147.62H63.7388C63.5729 147.62 63.4086 147.587 63.2554 147.524C63.1021 147.46 62.9629 147.367 62.8456 147.249C62.7284 147.132 62.6355 146.993 62.5721 146.839C62.5088 146.686 62.4763 146.522 62.4766 146.356V145.233C62.4766 144.899 62.6095 144.578 62.846 144.341C63.0826 144.105 63.4034 143.972 63.7379 143.972Z" fill="#EBEBEB"/>


<g class="v2"> 
<path d="M49.8482 156.927C49.8482 156.927 49.3384 161.959 50.2678 163.22C50.2678 163.22 47.8053 162.684 47.2361 161.836C46.667 160.989 49.8482 156.927 49.8482 156.927Z" fill="#16202E"/>
<path d="M65.2163 172.997C65.2163 172.997 66.1092 172.397 66.2487 172.31C66.6178 172.225 67.001 172.221 67.3714 172.3C67.817 172.359 68.2434 172.517 68.6191 172.764C68.6609 172.816 68.6908 172.877 68.7065 172.942C68.7223 173.007 68.7236 173.074 68.7103 173.14C68.6833 173.29 68.6183 173.431 68.5215 173.549C68.5469 173.637 68.5497 173.729 68.5298 173.818C68.5099 173.907 68.4678 173.989 68.4075 174.057C68.426 174.149 68.4169 174.244 68.3813 174.33C68.3458 174.417 68.2854 174.491 68.2078 174.543C68.2264 174.618 68.2226 174.697 68.1968 174.77C68.171 174.843 68.1244 174.906 68.0628 174.953C67.8519 174.944 67.6407 174.954 67.4316 174.983C66.7462 174.982 66.0641 174.887 65.4042 174.702C65.4042 174.702 64.3955 174.486 65.2163 172.997Z" fill="#EEA886"/>
<path d="M66.7383 173.415C66.6265 173.62 66.4882 173.81 66.327 173.979C66.1847 174.07 67.0146 174.965 67.0146 174.965C67.0146 174.965 67.2992 173.758 66.7383 173.415Z" fill="#CF8C6C"/>
<path d="M64.6911 173.084C65.0035 173.049 65.31 172.974 65.6032 172.861C65.9497 172.701 65.5375 174.61 65.5375 174.61C65.1221 174.315 64.6481 174.111 64.1475 174.014C63.5958 173.996 64.6911 173.084 64.6911 173.084Z" fill="#EEA886"/>
<path d="M41.4109 223.945C42.1364 225.031 42.9284 226.07 43.7822 227.058C43.7822 227.058 45.008 227.696 45.0454 228.202C45.1174 229.162 45.1676 229.728 43.556 229.773C41.9444 229.819 40.9366 229.769 40.6375 228.793C40.4463 228.179 40.1759 227.593 39.8331 227.05L39.71 229.591H39.3451C39.3451 229.591 39.1828 227.044 39.1627 226.68C39.1427 226.317 38.9019 224.921 39.6689 224.302C39.9164 224.12 40.2002 223.994 40.5009 223.933C40.8016 223.871 41.112 223.876 41.4109 223.945Z" fill="#162D40"/>
<path d="M44.0129 227.19C43.3848 227.337 42.7307 227.332 42.1049 227.175C41.0679 226.915 40.0729 224.433 39.7701 224.226L39.502 223.223H41.5221C41.5443 223.699 41.6609 224.166 41.8651 224.597C42.5197 225.51 43.2374 226.377 44.0129 227.19Z" fill="#162D40"/>
<path d="M52.8068 222.987C53.0111 223.438 53.2663 223.864 53.5674 224.257C53.9322 224.733 55.0668 226.688 55.5666 226.823C56.0664 226.959 57.6096 227.232 57.7455 228.095C57.8814 228.958 57.9498 229.571 56.4285 229.639C54.9072 229.707 53.9085 229.798 53.1816 228.727C52.6608 228.013 52.0238 227.391 51.2974 226.887V229.675H50.7073C50.6282 228.633 50.4841 227.597 50.2759 226.574C50.0687 225.957 50.0376 225.294 50.186 224.66C50.3343 224.026 50.6563 223.447 51.1159 222.986C52.524 221.831 52.8068 222.987 52.8068 222.987Z" fill="#162D40"/>
<path d="M55.5678 226.823C55.5678 226.823 54.2052 227.164 53.6826 226.823C53.16 226.483 51.3851 223.483 50.7969 223.303C50.7969 223.303 51.3669 222.147 52.8079 222.987C52.8079 222.987 55.1811 226.324 55.5678 226.823Z" fill="#162D40"/>
<path d="M40.6376 181.291C39.4461 182.917 38.6136 184.779 38.1952 186.751C37.6744 189.713 38.5034 199.658 38.4797 201.123C38.456 202.588 37.1883 207.143 37.4601 209.902C37.7318 212.662 39.1601 224.176 39.1601 224.176L42.4881 224.115C42.4881 224.115 41.8214 211.691 41.9911 210.533C42.1607 209.376 42.7034 204.449 42.7709 203.967C42.8384 203.484 46.5631 190.883 46.5631 188.747C46.5631 186.611 45.2708 177.807 40.6376 181.291Z" fill="#1D3B54"/>
<path d="M50.2914 182.268C50.2914 182.268 53.447 194.312 53.821 195.981C54.1949 197.651 54.9446 199.829 54.9109 200.136C54.8771 200.442 54.5141 205.584 54.5141 205.584L53.6167 223.089H50.2914C50.2914 223.089 49.2243 211.952 49.0528 209.705C48.8814 207.458 50.2795 203.984 49.9384 203.03C49.5973 202.076 44.4543 191.077 44.4543 191.077C44.4543 191.077 40.5626 178.771 50.2914 182.268Z" fill="#1D3B54"/>
<path d="M49.3081 164.241C50.1535 164.363 50.9338 164.765 51.5243 165.382C52.3598 166.35 53.065 167.423 53.622 168.574C53.871 169.122 57.3723 174.169 57.5538 174.282C57.7353 174.395 59.2648 173.994 60.4915 173.892C62.19 173.656 63.8621 173.259 65.4849 172.706L65.9291 174.966C65.9291 174.966 58.5689 177.337 56.8698 176.923C54.7931 176.411 50.0122 170.277 50.0122 170.277C50.0122 170.277 46.4488 166.106 49.3081 164.241Z" fill="#EDDAD3"/>
<path d="M47.1068 163.353C47.8192 163.699 48.5549 163.995 49.3084 164.238C49.8766 164.352 52.0792 167.213 52.465 168.258C52.8508 169.302 52.465 170.868 51.6706 172.706C50.8762 174.545 51.625 175.159 51.262 176.999C50.9626 179.612 50.8641 182.244 50.9674 184.872C51.0349 185.894 40.4562 187.821 38.3457 185.959C38.3457 185.959 39.774 181.247 41.4676 179.477C41.8324 179.094 41.7941 176.543 41.5451 175.909C41.2962 175.274 38.4789 170.528 38.4789 170.528C38.4789 170.528 38.2727 165.715 39.5013 164.761C40.5674 163.932 43.4768 163.636 43.9985 163.455C45.0207 163.239 46.0728 163.205 47.1068 163.353Z" fill="#EDDAD3"/>
<path d="M47.6311 167L48.6243 165.837L47.7616 162.774C47.5708 164.175 47.5271 165.591 47.6311 167Z" fill="#D1C0BA"/>
<path d="M41.4028 164.241C40.7513 164.097 40.0699 164.186 39.4775 164.493C38.8852 164.801 38.4197 165.306 38.1624 165.922C36.9822 168.192 37.2768 169.418 37.0041 170.439C36.7314 171.461 35.6424 178.295 35.5749 178.59C35.5074 178.886 34.4622 182.36 34.5981 183.424C34.734 184.488 35.7108 192.574 35.6652 192.846C35.6196 193.119 37.5495 192.585 37.5495 192.585C37.5495 192.585 37.4701 184.332 37.5385 183.647C37.6069 182.963 37.6744 179.391 38.1852 178.471C38.6959 177.55 39.9564 171.932 40.2281 171.357C40.4999 170.781 43.1403 164.979 41.4028 164.241Z" fill="#EEA886"/>
<path d="M47.8909 161.467C47.737 162.787 47.6509 164.114 47.6328 165.443C47.6328 165.443 45.9337 167.145 44.002 163.455C44.5069 162.323 44.5786 161.045 44.2035 159.863C43.5915 157.791 47.8909 161.467 47.8909 161.467Z" fill="#EEA886"/>
<path d="M47.6346 165.445V166.996L45.8105 165.378L47.6346 165.445Z" fill="#EEA886"/>
<path d="M47.6267 166.999L46.815 165.996L44.0789 163.271L43.0547 163.727L47.6267 166.999Z" fill="#D1C0BA"/>
<path d="M48.6177 165.832L49.87 166.178L47.7559 162.77L48.6177 165.832Z" fill="#FAE6DE"/>
<path d="M46.822 165.993L45.6783 167.825L43.0215 163.658L44.1597 163.079L46.822 165.993Z" fill="#FAE6DE"/>
<path d="M52.6403 173.386C52.8625 171.936 52.8536 170.46 52.6138 169.013C52.6138 169.013 52.3739 170.347 51.793 172.425L52.6403 173.386Z" fill="#D1C0BA"/>
<path d="M39.9453 173.026C39.9453 173.026 41.0753 169.286 41.1419 169.081C41.1116 170.805 40.9411 172.523 40.6321 174.219C40.6321 174.219 40.2162 173.493 39.9453 173.026Z" fill="#D1C0BA"/>
<path d="M82.0446 154.287L64.2598 176.698L64.88 177.176L82.0446 154.287Z" fill="#54281A"/>
<path d="M68.4826 172.739C68.4826 172.739 67.1482 172.614 67.1008 172.831C67.084 172.885 67.0812 172.942 67.0925 172.998C67.1038 173.054 67.1289 173.106 67.1656 173.149L66.5928 173.347C66.5928 173.347 66.2873 173.692 66.7515 173.924C66.7515 173.924 66.4341 174.216 66.9093 174.387C66.9093 174.387 66.7853 174.673 66.9914 174.792C67.3398 174.889 67.6987 174.944 68.0603 174.955C68.0603 174.955 68.2427 174.883 68.2053 174.545C68.2838 174.494 68.3449 174.42 68.3806 174.333C68.4162 174.246 68.4248 174.151 68.405 174.059C68.4684 173.993 68.5126 173.91 68.5327 173.821C68.5527 173.731 68.548 173.638 68.519 173.551C68.519 173.551 68.9304 173.136 68.6194 172.766C68.5743 172.754 68.5286 172.746 68.4826 172.739Z" fill="#DB9C7C"/>
<path d="M66.2924 172.308C66.7008 172.565 67.0659 172.886 67.3741 173.258C67.4425 173.363 67.4908 173.475 67.4215 173.577C67.3522 173.679 67.1132 173.71 66.7667 173.514C66.4863 173.375 66.1879 173.276 65.8802 173.22C65.8802 173.22 65.5828 172.916 66.2924 172.308Z" fill="#EEA886"/>
<path d="M46.5091 151.263C46.5091 151.263 49.5188 151.185 50.0715 154.748C50.6242 158.31 49.3419 161.441 48.8448 161.943C48.3478 162.444 45.3335 162.064 44.6248 160.21C43.9162 158.356 42.8773 157.01 43.0333 155.419C43.1893 153.828 42.8071 151.203 46.5091 151.263Z" fill="#EEA886"/>
<path d="M50.2009 156.096C50.2009 156.096 51.0072 151.651 47.0088 150.856C43.0104 150.061 41.6132 152.793 41.2328 154.418C40.8525 156.044 41.3022 160.627 41.3022 160.627C42.592 161.781 44.021 162.769 45.5559 163.568C45.5559 163.568 44.2243 158.69 44.726 155.196C46.5163 155.476 48.3399 155.469 50.128 155.174C50.128 155.174 50.1955 155.904 50.2009 156.096Z" fill="#16202E"/>
<path d="M47.8219 162.138C46.9335 162.05 46.0841 161.728 45.3594 161.207C45.998 161.974 46.8222 162.564 47.7535 162.923C47.7535 162.923 47.8274 162.298 47.8219 162.138Z" fill="#A77860"/>
<path d="M41.8771 185.084L30.2539 186.98L31.6562 195.577L43.2794 193.681L41.8771 185.084Z" fill="#366E9C"/>
<path d="M35.2613 195.426C35.1705 195.282 35.1034 195.125 35.0625 194.96C35.0625 194.96 35.0552 194.651 35.0379 194.432C35.034 194.376 35.0267 194.32 35.016 194.265C34.9234 193.969 34.8778 193.662 34.881 193.352C35.0348 192.623 35.2303 191.904 35.4665 191.197L36.4953 191.234L37.463 191.129C37.9234 191.971 38.3215 192.845 38.6541 193.746C38.6564 193.782 38.6564 193.819 38.6541 193.856C38.617 194.108 38.554 194.355 38.4662 194.594C38.4562 194.657 38.313 195.274 38.1434 195.36C38.0524 195.413 37.9495 195.442 37.8442 195.444C37.7389 195.447 37.6347 195.422 37.5414 195.374C37.2891 195.488 37.0098 195.529 36.7352 195.493C36.6071 195.551 36.4672 195.58 36.3265 195.575C36.1857 195.571 36.0478 195.534 35.9235 195.468C35.9235 195.468 35.4656 195.628 35.2613 195.426Z" fill="#EEA886"/>
<path d="M41.4023 164.241C40.7508 164.097 40.0693 164.186 39.477 164.493C38.8846 164.801 38.4191 165.306 38.1618 165.922C37.4018 167.255 36.9467 168.739 36.8293 170.269C36.6806 171.317 35.2414 177.534 35.1721 177.83C35.1028 178.125 34.6313 182.011 34.5975 183.426C34.572 184.502 34.8246 191.554 34.7799 191.827C34.7352 192.099 38.0405 191.349 38.0405 191.349C38.0405 191.349 37.6757 184.846 37.7431 184.165C37.8107 182.462 37.9935 180.767 38.2904 179.089C38.6816 177.918 40.2257 172.012 40.4975 171.433C40.7693 170.853 43.1397 164.979 41.4023 164.241Z" fill="#EDDAD3"/>
</g>
<g class="v1">
    <path d="M147.887 225.372L148.102 223.376C147.049 223.34 145.995 223.413 144.957 223.592C144.957 223.592 145.197 225.268 145.226 225.519C145.255 225.77 147.887 225.372 147.887 225.372Z" fill="#5C544D"/>
    <path d="M143.103 229.544C146.452 229.515 148.067 229.744 148.425 229.201C148.784 228.657 147.906 225.192 147.906 225.192C147.02 225.406 146.099 225.444 145.198 225.306C144.729 225.872 144.175 226.361 143.556 226.757C142.749 227.197 141.482 227.372 141.002 227.827C140.668 228.156 139.756 229.573 143.103 229.544Z" fill="#3C4145"/>
    <path d="M129.033 225.372L129.246 223.376C128.194 223.34 127.141 223.413 126.104 223.592C126.104 223.592 126.342 225.268 126.373 225.519C126.404 225.77 129.033 225.372 129.033 225.372Z" fill="#5C544D"/>
    <path d="M124.256 229.544C127.604 229.453 129.221 229.744 129.579 229.201C129.937 228.657 129.06 225.192 129.06 225.192C128.176 225.424 127.252 225.463 126.352 225.306C125.883 225.872 125.329 226.361 124.71 226.757C123.905 227.197 120.937 227.559 120.46 228.015C120.114 228.343 119.542 229.668 124.256 229.544Z" fill="#3C4145"/>
    <path d="M144.025 180.311C144.838 182.811 145.248 185.426 145.24 188.056C145.058 191.64 145.964 195.564 146.335 199.308C146.749 203.483 148.444 213.367 148.505 215.599C148.566 217.832 148.242 224.964 148.242 224.964L144.85 225.043C144.85 225.043 142.001 207.764 141.264 206.001C140.527 204.238 136.866 191.667 136.744 190.257C136.621 188.847 144.025 180.311 144.025 180.311Z" fill="#DBD8E3"/>
    <path d="M129.761 181.05C129.761 181.05 127.898 190.876 127.653 193.07C127.408 195.263 127.243 203.689 127.12 205.06C126.997 206.43 126.299 223.005 125.645 225.043H129.981C129.981 225.043 133.309 212.993 133.309 207.293C133.309 201.593 135.881 194.9 137.542 191.139C139.203 187.378 143.002 187.288 144.018 180.31C144.022 180.31 131.144 178.838 129.761 181.05Z" fill="#DBD8E3"/>
    <path d="M138.571 147.471C138.571 147.471 135.153 146.195 133.578 148.797C132.003 151.399 132.153 156.608 133.876 157.249C135.599 157.889 138.187 157.554 139.069 155.926C140.026 154.221 140.587 152.322 140.711 150.371C140.659 149.737 140.431 149.129 140.053 148.617C139.675 148.105 139.162 147.708 138.571 147.471Z" fill="#EEA886"/>
    <path d="M134.453 157.087C134.529 157.534 134.498 157.992 134.362 158.424C134.134 158.866 138.662 158.88 138.662 158.88C138.903 157.379 139.259 155.898 139.726 154.45C140.424 152.419 134.453 157.087 134.453 157.087Z" fill="#EEA886"/>
    <path d="M139.729 154.448C139.729 154.448 139.416 154.964 138.141 154.764C136.866 154.564 135.308 152.867 134.776 152.681C134.243 152.495 134.239 152.182 134.239 152.182L133.905 152.668L133.339 152.705C133.339 152.705 133.855 151.186 133.076 150.567C132.298 149.948 133.885 145.653 137.976 147.083C137.976 147.083 140.908 147.662 141.085 149.444C141.194 151.216 140.717 152.974 139.729 154.448Z" fill="#FCCCA2"/>
    <path d="M134.096 158.373C134.096 158.373 134.11 157.53 134.492 157.449C136.045 157.226 137.613 157.137 139.18 157.184V158.166C139.18 158.166 138.276 158.719 134.096 158.373Z" fill="#E2D2CA"/>
    <path d="M134.325 151.531C134.397 151.231 135.158 150.375 135.451 151.292C135.744 152.21 135.009 153.443 134.601 153.337C134.192 153.231 134.144 152.291 134.325 151.531Z" fill="#EEA886"/>
    <path d="M134.094 158.373C134.094 158.373 131.991 159.129 129.554 160.165C128.715 160.516 127.984 161.085 127.438 161.814C126.892 162.542 126.55 163.402 126.448 164.306C126.287 165.948 124.538 174.668 124.209 175.407C123.879 176.146 120.002 187.998 119.865 188.243C119.729 188.488 123.031 189.861 123.25 189.751C123.469 189.642 127.007 178.94 127.361 178.148C127.361 178.148 129.398 171.731 129.452 170.775C129.452 170.775 129.511 173.501 129.62 174.266C129.728 175.031 127.809 189.889 127.864 190.299C127.919 190.708 136.59 191.23 140.061 190.846C142.178 190.61 144.274 190.216 146.332 189.666C146.332 189.666 143.601 177.94 143.687 176.64C143.869 173.806 144.816 168.472 144.816 168.472L147.643 173.806L144.021 183.126L144.85 185.954C144.85 185.954 151.582 175.783 151.8 174.853C151.867 173.847 151.628 172.844 151.115 171.976C150.76 171.211 148.426 165.388 147.88 164.567C147.333 163.746 146.409 160.463 144.178 159.551C142.548 158.964 140.877 158.5 139.178 158.161L134.094 158.373Z" fill="#6FC4F0"/>
    <path d="M132.305 182.551L116.447 178.485L113.611 189.548L129.468 193.614L132.305 182.551Z" fill="#F25F54"/>
    <path d="M118.484 190.662C118.484 190.662 118.028 191.392 117.865 191.603C117.702 191.815 118.273 191.944 118.517 191.731C118.761 191.519 118.484 190.662 118.484 190.662Z" fill="#C98462"/>
    <path d="M121.793 193.162C121.925 193.028 122.036 192.874 122.12 192.706C122.12 192.706 122.199 192.371 122.27 192.137C122.287 192.075 122.308 192.015 122.332 191.955C122.505 191.656 122.628 191.331 122.697 190.992C122.768 190.541 122.965 188.511 122.965 188.511L121.737 188.201L120.751 187.993C119.932 188.776 119.18 189.626 118.504 190.534C118.493 190.573 118.484 190.613 118.478 190.654C118.459 190.936 118.469 191.219 118.509 191.499C118.509 191.57 118.515 192.275 118.679 192.411C118.766 192.491 118.871 192.547 118.985 192.574C119.099 192.601 119.219 192.599 119.332 192.567C119.579 192.75 119.872 192.861 120.179 192.886C120.304 192.98 120.45 193.043 120.604 193.072C120.758 193.1 120.916 193.093 121.067 193.051C121.067 193.051 121.519 193.334 121.793 193.162Z" fill="#DE9D7D"/>
</g>
<path d="M126.58 180.334C126.58 180.334 123.765 188.858 123.248 189.753C122.03 189.483 120.879 188.97 119.863 188.245L122.953 179.047L126.58 180.334Z" fill="#6FC4F0"/>
<path d="M380.476 193.624C380.476 193.624 390.924 162.986 370.991 153.488C351.058 143.99 334.127 157.719 330.93 165.149C327.732 172.578 328.578 186.088 331.305 195.509C334.032 204.929 333.636 219.269 327.711 224.065C321.787 228.862 314.441 236.827 314.804 253.041C315.03 263.1 354.387 227.31 354.387 227.31L380.476 193.624Z" fill="#252E3B"/>
<path d="M352.464 230.069C352.464 230.069 336.077 233.701 329.572 237.502C323.066 241.304 308.625 258.788 308.625 266.306C308.625 273.824 371.79 280.846 371.79 280.846L383.763 324.556C383.763 324.556 415.689 316.765 419.49 310.303C423.29 303.842 407.364 257.533 404.638 248.161C401.857 238.6 390.41 231.934 377.111 230.069C368.933 228.956 360.642 228.956 352.464 230.069Z" fill="#F5931D"/>
<path d="M375.972 229.92C375.972 229.92 375.608 249.835 359.809 250.427C344.011 251.019 347.302 231.324 347.302 231.324C347.302 231.324 358.858 226.644 375.972 229.92Z" fill="#EEA886"/>
<path d="M382.659 169.818C382.659 169.818 388.246 201.851 372.335 224.99C355.856 248.955 382.659 169.818 382.659 169.818Z" fill="#252E3B"/>
<path d="M372.587 215.836C372.587 215.836 371.492 225.363 373.323 231.288C375.153 237.214 349.172 237.376 349.186 232.504C349.203 226.97 351.844 222.347 349.356 212.861C346.868 203.375 372.587 215.836 372.587 215.836Z" fill="#EEA886"/>
<path d="M352.43 217.053C352.43 217.053 360.638 225.6 371.127 217.945C371.127 217.945 370.26 223.408 362.714 224.113C355.168 224.818 352.43 217.053 352.43 217.053Z" fill="#A77860"/>
<path d="M362.703 158.712C362.703 158.712 383.438 164.848 380.476 193.624C377.514 222.4 363.968 220.917 362.703 221.129C361.438 221.342 345.353 222.398 340.276 187.488C335.198 152.577 362.703 158.712 362.703 158.712Z" fill="#EEA886"/>
<path d="M357.352 171.543C357.352 171.543 368.619 189.466 380.477 193.624C380.477 193.624 386.953 163.55 360.209 157.249C333.465 150.947 337.655 187.624 339.651 197.404C343.777 187.695 349.794 178.903 357.352 171.543Z" fill="#252E3B"/>
<path d="M342.24 168.843C342.24 168.843 348.169 157.357 358.185 156.844C368.202 156.332 374.156 165.019 374.156 165.019C372.742 162.008 370.477 159.476 367.641 157.738C364.804 156 361.521 155.13 358.195 155.237C346.15 155.238 342.24 168.843 342.24 168.843Z" fill="#88C0FF"/>
<path d="M383.012 259.177L390.044 324.551H297.495L290.463 259.177H383.012Z" fill="#5FA0FF"/>
<path d="M387.816 322.307H294.454L287.34 256.127H380.697L387.816 322.307ZM295.179 321.502H386.918L379.974 256.93H288.235L295.179 321.502Z" fill="#5FA0FF"/>
<path d="M345.994 290.806C346.825 294.872 344.928 298.696 341.757 299.344C338.586 299.993 335.342 297.22 334.51 293.154C333.678 289.088 335.576 285.264 338.747 284.616C341.919 283.967 345.163 286.739 345.994 290.806Z" fill="#5189DB"/>
<path d="M381.295 324.548H398.564V317.977H381.295V324.548Z" fill="#5FA0FF"/>
<path d="M327.596 128.264C324.78 128.264 322.028 127.428 319.686 125.864C317.345 124.299 315.52 122.075 314.443 119.473C313.365 116.871 313.084 114.009 313.633 111.247C314.183 108.485 315.539 105.948 317.531 103.957C319.522 101.966 322.06 100.61 324.822 100.061C327.584 99.5123 330.446 99.7947 333.048 100.873C335.649 101.951 337.873 103.776 339.437 106.118C341.001 108.46 341.836 111.213 341.835 114.029C341.83 117.803 340.328 121.422 337.659 124.09C334.99 126.759 331.371 128.26 327.596 128.264ZM327.596 100.594C324.94 100.594 322.343 101.382 320.134 102.858C317.926 104.334 316.204 106.431 315.187 108.885C314.171 111.339 313.905 114.04 314.423 116.645C314.941 119.251 316.22 121.644 318.098 123.523C319.976 125.401 322.369 126.681 324.974 127.199C327.58 127.718 330.28 127.452 332.735 126.436C335.189 125.42 337.287 123.699 338.763 121.49C340.239 119.282 341.027 116.685 341.028 114.029C341.025 110.467 339.609 107.052 337.091 104.534C334.572 102.015 331.158 100.598 327.596 100.594Z" fill="#64A4FF"/>
<path d="M76.5001 273.019L76.4901 271.808C78.9042 271.788 81.3375 271.717 83.7216 271.609L83.7782 272.819C81.3786 272.931 78.9298 272.997 76.5001 273.019ZM69.2165 272.945C66.8242 272.877 64.3763 272.762 61.9412 272.611L62.0169 271.404C64.4383 271.557 66.8726 271.668 69.2512 271.736L69.2165 272.945ZM91.0444 272.332L90.9395 271.127C93.3281 270.919 95.7478 270.659 98.1328 270.356L98.286 271.557C95.8864 271.862 93.4485 272.124 91.0444 272.332ZM54.6795 272.031C52.1969 271.786 49.7627 271.47 47.447 271.093L47.6413 269.897C49.9332 270.271 52.3419 270.584 54.799 270.827L54.6795 272.031ZM105.49 270.493L105.29 269.299C107.623 268.908 110.016 268.46 112.403 267.968L112.648 269.154C110.245 269.649 107.834 270.098 105.49 270.493ZM40.2893 269.653C37.8496 269.061 35.4883 268.376 33.2666 267.613L33.6606 266.469C35.8431 267.218 38.1679 267.894 40.5712 268.476L40.2893 269.653ZM119.752 267.567L119.469 266.39C121.691 265.857 123.987 265.275 126.492 264.608L126.804 265.778C124.289 266.447 121.983 267.032 119.752 267.567ZM26.4883 264.855C24.2778 263.805 22.1428 262.603 20.0986 261.257L20.7662 260.247C22.7639 261.562 24.8502 262.737 27.01 263.763L26.4883 264.855ZM133.812 263.852L133.483 262.687C134.498 262.403 135.501 262.12 136.493 261.838C137.838 261.457 139.165 261.083 140.473 260.716L140.8 261.882C139.491 262.247 138.165 262.62 136.823 263.003L133.812 263.852ZM196.911 262.84C194.68 261.784 192.442 260.853 190.264 260.075L190.672 258.935C192.888 259.728 195.162 260.668 197.429 261.746L196.911 262.84ZM147.795 259.995L147.495 258.822C150.101 258.155 152.42 257.614 154.591 257.167L154.835 258.352C152.686 258.795 150.383 259.334 147.795 259.995ZM183.371 258.043C181.037 257.503 178.672 257.112 176.288 256.87L176.41 255.665C178.844 255.913 181.26 256.313 183.644 256.863L183.371 258.043ZM161.944 257.149L161.79 255.949C164.211 255.634 166.647 255.447 169.087 255.387L169.113 256.597C166.715 256.655 164.322 256.839 161.944 257.148V257.149ZM14.3171 256.726C12.5161 255.054 10.8705 253.223 9.40033 251.254L10.3707 250.531C11.7978 252.439 13.3946 254.214 15.1416 255.835L14.3171 256.726ZM5.56794 244.975C4.49153 242.768 3.60664 240.473 2.92302 238.115L4.08496 237.777C4.74966 240.068 5.61015 242.298 6.65692 244.443L5.56794 244.975ZM1.41724 230.923C1.09771 228.496 0.932909 226.051 0.923828 223.603L2.13411 223.596C2.14315 225.993 2.30429 228.386 2.61657 230.762L1.41724 230.923ZM2.49345 216.409L1.28956 216.286C1.53216 213.915 1.8988 211.481 2.37853 209.048L3.56419 209.283C3.09084 211.679 2.72967 214.079 2.49345 216.409ZM5.26788 202.273L4.10503 201.936C4.7662 199.577 5.56003 197.257 6.48271 194.987L7.5954 195.463C6.69329 197.688 5.91534 199.962 5.26514 202.273H5.26788Z" fill="#C2BEBC"/>
<path d="M389.858 55.3775C389.838 55.3602 387.816 53.5653 384.195 50.8738L384.917 49.9025C388.584 52.6286 390.642 54.4563 390.663 54.4746L389.858 55.3775ZM378.275 46.704C376.284 45.3751 374.226 44.0709 372.159 42.8269L372.782 41.7899C374.867 43.0431 376.94 44.3582 378.947 45.6971L378.275 46.704ZM365.871 39.2398C363.744 38.0925 361.573 36.988 359.421 35.9565L359.944 34.862C362.114 35.9018 364.302 37.0154 366.446 38.1718L365.871 39.2398ZM352.819 32.9951C350.582 32.0603 348.312 31.1801 346.07 30.3803L346.477 29.2402C348.736 30.0474 351.025 30.9357 353.281 31.8788L352.819 32.9951ZM260.842 31.513L260.816 30.3037C263.209 30.2475 265.595 30.0235 267.956 29.6333L268.152 30.8281C265.733 31.227 263.289 31.4559 260.838 31.513H260.842ZM253.518 31.1373C251.089 30.8291 248.684 30.3561 246.32 29.7218L246.632 28.5525C248.943 29.1721 251.293 29.6343 253.667 29.9361L253.518 31.1373ZM275.297 29.1828L274.956 28.0208C275.732 27.7928 276.525 27.5429 277.311 27.2793C278.824 26.7713 280.366 26.2952 281.897 25.8648L282.225 27.0294C280.714 27.4554 279.19 27.9251 277.696 28.4267C276.891 28.6957 276.084 28.9493 275.293 29.1828H275.297ZM339.2 28.1385C336.876 27.4535 334.525 26.8352 332.21 26.2998L332.484 25.1205C334.821 25.6605 337.197 26.2861 339.543 26.9775L339.2 28.1385ZM239.371 27.428C237.24 26.5971 235.054 25.6358 232.688 24.4894L233.216 23.3995C235.553 24.5323 237.71 25.4808 239.811 26.3007L239.371 27.428ZM289.237 25.3413L288.999 24.1556C291.37 23.6786 293.8 23.2864 296.21 22.9909L296.358 24.1921C293.972 24.483 291.576 24.8697 289.232 25.3413H289.237ZM325.125 24.8953C322.739 24.5022 320.331 24.1857 317.965 23.9568L318.082 22.752C320.474 22.9836 322.91 23.2992 325.321 23.7014L325.125 24.8953ZM112.395 23.7424L111.736 22.7273C113.809 21.383 115.886 20.0824 117.907 18.8639L118.533 19.9009C116.525 21.113 114.46 22.4054 112.395 23.7424ZM303.538 23.5847L303.483 22.3753C305.891 22.2622 308.341 22.2367 310.786 22.3014L310.755 23.5117C308.341 23.4479 305.922 23.4725 303.541 23.5847H303.538ZM226.206 21.1413C224.154 20.0259 222.117 18.8794 219.858 17.6044L220.453 16.5501C222.707 17.8269 224.74 18.967 226.784 20.0779L226.206 21.1413ZM124.799 16.2792L124.212 15.2194C126.382 14.0219 128.553 12.8819 130.664 11.833L131.203 12.9165C129.11 13.9581 126.956 15.089 124.799 16.2792ZM213.534 14.0684C211.162 12.7688 209.065 11.6661 207.128 10.6939L207.668 9.61128C209.623 10.5872 211.732 11.6971 214.116 13.0041L213.534 14.0684ZM137.76 9.86665L137.277 8.75579C139.557 7.76532 141.837 6.85237 144.049 6.04339L144.465 7.17978C142.273 7.97782 140.017 8.88165 137.76 9.86301V9.86665ZM200.575 7.66317C198.255 6.68273 196.049 5.85368 193.825 5.12769L194.202 3.97761C196.454 4.71363 198.691 5.55453 201.042 6.54866L200.575 7.66317ZM151.324 4.93434L150.99 3.77149C153.376 3.08381 155.763 2.49464 158.085 2.02767L158.325 3.21332C156.034 3.67116 153.679 4.25214 151.323 4.9307L151.324 4.93434ZM186.894 3.23339C184.553 2.72006 182.186 2.33491 179.803 2.07966L179.931 0.875763C182.358 1.13608 184.769 1.52823 187.153 2.05047L186.894 3.23339ZM165.445 2.11066L165.316 0.906769C167.743 0.645412 170.183 0.509641 172.624 0.5V1.71028C170.225 1.71887 167.827 1.85129 165.441 2.10702L165.445 2.11066Z" fill="#C2BEBC"/>
<path d="M239.036 276.124L208.611 267.277L217.732 264.526L239.036 276.124Z" fill="#D6D6D6"/>
<path d="M239.032 276.125L227.66 264.701L220.66 266.123L239.032 276.125Z" fill="#E8E8E8"/>
<path d="M215.604 269.31L215.849 272.83L239.032 276.122L215.604 269.31Z" fill="#C2C2C2"/>
<path d="M85.9062 43.8675L112.725 28.8681L103.507 28.2598L85.9062 43.8675Z" fill="#D6D6D6"/>
<path d="M85.9062 43.8673L94.1593 30.5926L101.084 30.4102L85.9062 43.8673Z" fill="#E8E8E8"/>
<path d="M106.557 32.3184L107.094 35.6984L85.9062 43.8684L106.557 32.3184Z" fill="#C2C2C2"/>
<defs>
<linearGradient id="paint0_linear_132_3137" x1="353.871" y1="205.925" x2="494.684" y2="205.925" gradientUnits="userSpaceOnUse">
<stop stop-color="#96CBFF"/>
<stop offset="1" stop-color="#5599FF"/>
</linearGradient>
<linearGradient id="paint1_linear_132_3137" x1="-133.871" y1="726.978" x2="-28.6306" y2="726.978" gradientUnits="userSpaceOnUse">
<stop stop-color="#96CBFF"/>
<stop offset="1" stop-color="#5599FF"/>
</linearGradient>
</defs>
</svg>
