<svg width="608" height="302" viewBox="0 0 608 302" fill="none" xmlns="http://www.w3.org/2000/svg">
<path d="M99.9294 157.135C99.9294 157.135 92.6579 148.652 99.4809 143.263C99.4809 143.263 104.465 140.246 108.529 140.491C108.529 140.491 102.77 150.147 104.633 151.107C106.496 152.068 110.274 139.885 110.274 139.885C110.274 139.885 121.615 138.786 125.264 140.54C125.264 140.54 115.568 148.474 117.611 148.946C119.653 149.418 130.125 141.631 130.125 141.631C130.125 141.631 140.681 143.427 140.118 149.866C139.555 156.306 135.917 158.294 134.318 158.123C132.719 157.951 123.368 154.382 123.165 155.692C122.961 157.002 128.59 161.282 132.533 161.482C132.533 161.482 125.091 169.69 120.145 167.321C115.199 164.952 114.776 161.197 111.693 159.789C108.61 158.381 105.978 158.384 107.251 159.821C108.524 161.257 114.104 162.653 115.867 165.771C117.63 168.89 119.211 170.994 114.095 170.224C108.979 169.454 100.66 165.71 100.295 161.422L99.9294 157.135Z" fill="#C8DBF4"/>
<path d="M134.929 150.041C134.929 150.041 106.259 148.936 99.9276 157.135C99.9276 157.135 98.5273 161.329 94.2185 165.148L93.5469 166.978C93.5469 166.978 98.5151 161.74 100.293 161.423C100.293 161.422 97.5125 151.264 134.929 150.041Z" fill="#C8DBF4"/>
<path d="M94.2179 165.147C94.2179 165.147 88.0642 169.699 87.6367 177.83L88.7536 177.93C88.7536 177.93 90.7189 169.522 94.2715 166.234C97.824 162.946 94.2179 165.147 94.2179 165.147Z" fill="#C8DBF4"/>
<path d="M74.5036 146.468C74.5036 146.468 86.0704 139.991 80.6726 131.2C80.6726 131.2 76.3543 125.802 71.7275 124.414C71.7275 124.414 74.1951 137.523 71.7275 137.831C69.2599 138.14 70.0312 123.026 70.0312 123.026C70.0312 123.026 57.8473 117.165 53.0664 117.628C53.0664 117.628 60.6234 130.429 58.1557 130.12C55.6881 129.812 47.2059 116.857 47.2059 116.857C47.2059 116.857 34.7135 114.543 32.7087 121.946C30.7039 129.35 33.9424 133.051 35.793 133.513C37.6437 133.976 49.5192 133.822 49.2107 135.364C48.9022 136.906 40.8824 139.373 36.41 137.986C36.41 137.986 41.3452 150.17 47.8227 149.553C54.3001 148.936 56.3051 144.926 60.3149 144.618C64.3247 144.309 67.2551 145.389 65.2501 146.468C63.2451 147.547 56.4594 146.822 53.2205 149.576C49.9816 152.329 47.36 154.025 53.3749 155.259C59.3897 156.492 70.1853 155.722 72.3445 151.095L74.5036 146.468Z" fill="#C8DBF4"/>
<path d="M38.4141 124.261C38.4141 124.261 70.8014 134.748 74.5027 146.47C74.5027 146.47 74.3485 151.713 77.5872 157.728V160.041C77.5872 160.041 74.1942 152.176 72.3435 151.096C72.3435 151.096 79.592 140.917 38.4141 124.261Z" fill="#C8DBF4"/>
<path d="M77.5886 157.728C77.5886 157.728 82.5834 165.313 79.7357 174.545L78.4508 174.2C78.4508 174.2 79.698 164.031 77.0848 158.915C74.4716 153.8 77.5886 157.728 77.5886 157.728Z" fill="#C8DBF4"/>
<path d="M92.9066 137.535C92.9066 137.535 77.6593 128.997 84.7747 117.409C84.7747 117.409 90.4671 110.293 96.5651 108.463C96.5651 108.463 93.3124 125.744 96.5651 126.15C99.8177 126.557 98.8022 106.633 98.8022 106.633C98.8022 106.633 114.863 98.9075 121.165 99.5174C121.165 99.5174 111.203 116.391 114.456 115.984C117.709 115.578 128.89 98.5008 128.89 98.5008C128.89 98.5008 145.357 95.4514 148 105.211C150.643 114.97 146.374 119.848 143.934 120.458C141.495 121.068 125.841 120.865 126.247 122.897C126.653 124.929 137.226 128.183 143.121 126.354C143.121 126.354 136.616 142.414 128.077 141.601C119.539 140.788 116.896 135.502 111.61 135.095C106.324 134.689 102.462 136.112 105.105 137.535C107.747 138.958 116.693 138.001 120.962 141.631C125.231 145.26 128.687 147.496 120.758 149.123C112.83 150.749 98.599 149.733 95.7528 143.635L92.9066 137.535Z" fill="#D4E4F8"/>
<path d="M140.479 108.26C140.479 108.26 97.7868 122.084 92.9078 137.535C92.9078 137.535 93.111 144.447 88.8418 152.375V155.425C88.8418 155.425 93.3144 145.057 95.754 143.633C95.754 143.633 86.199 130.216 140.479 108.26Z" fill="#D4E4F8"/>
<path d="M88.8421 152.374C88.8421 152.374 82.2582 162.372 86.0124 174.543L87.706 174.087C87.706 174.087 86.0617 160.683 89.5067 153.941C92.9516 147.199 88.8421 152.374 88.8421 152.374Z" fill="#D4E4F8"/>
<path d="M92.3925 200.936C96.3148 200.936 100.199 200.163 103.822 198.662C107.446 197.161 110.738 194.961 113.512 192.188C116.285 189.414 118.485 186.122 119.986 182.498C121.487 178.874 122.26 174.991 122.259 171.068H62.5254C62.5254 174.991 63.2979 178.874 64.7988 182.498C66.2998 186.122 68.4998 189.414 71.2732 192.188C74.0466 194.961 77.3392 197.161 80.9628 198.662C84.5865 200.163 88.4703 200.936 92.3925 200.936Z" fill="#D4E4F8"/>
<path d="M65.7979 198.771H118.987C119.471 198.77 119.951 198.866 120.398 199.051C120.845 199.236 121.251 199.507 121.593 199.849C121.936 200.192 122.207 200.598 122.392 201.045C122.578 201.492 122.673 201.971 122.673 202.455H62.1133C62.1133 201.478 62.5015 200.541 63.1925 199.85C63.8835 199.159 64.8207 198.771 65.7979 198.771Z" fill="#D4E4F8"/>
<path d="M122.94 171.068H61.5449V171.984H122.94V171.068Z" fill="#9FC1F4"/>
<path d="M246.509 299.454L246.656 299.451C247.863 299.429 248.795 298.443 248.682 297.307L240.631 216.905L233.605 217.532L245.166 298.368C245.22 298.681 245.385 298.964 245.633 299.164C245.88 299.364 246.191 299.467 246.509 299.454Z" fill="#6FC4F0"/>
<path d="M168.987 299.455L168.839 299.452C167.633 299.431 166.701 298.445 166.814 297.309L174.865 216.905L181.89 217.532L170.33 298.368C170.276 298.682 170.111 298.965 169.863 299.165C169.616 299.365 169.305 299.468 168.987 299.455Z" fill="#6FC4F0"/>
<path d="M303.307 299.454L303.455 299.451C304.662 299.43 305.594 298.443 305.48 297.307L297.429 216.905L290.404 217.532L301.965 298.368C302.018 298.681 302.184 298.964 302.431 299.164C302.678 299.364 302.99 299.467 303.307 299.454Z" fill="#6FC4F0"/>
<path d="M171.386 205.209L157.095 134.638C155.261 125.083 163.179 116.346 173.459 116.581L201.02 117.21C205.653 117.316 210.131 118.897 213.803 121.724C217.475 124.55 220.149 128.475 221.437 132.926L242.345 205.21L171.386 205.209Z" fill="#6FC4F0"/>
<path d="M180.032 205.209L165.742 134.638C163.907 125.083 171.825 116.346 182.106 116.581L209.666 117.21C214.299 117.316 218.777 118.897 222.449 121.724C226.121 124.55 228.795 128.475 230.083 132.926L250.991 205.21L180.032 205.209Z" fill="#6FC4F0"/>
<path d="M284.411 218.08H175.37C174.314 218.08 173.301 217.66 172.554 216.913C171.807 216.166 171.387 215.153 171.387 214.097V205.209H284.411C285.468 205.209 286.481 205.629 287.228 206.376C287.975 207.123 288.395 208.136 288.395 209.192V214.097C288.395 215.153 287.975 216.166 287.228 216.913C286.481 217.66 285.468 218.08 284.411 218.08Z" fill="#6FC4F0"/>
<path d="M226.54 218.08H296.051C297.823 218.08 299.26 216.643 299.26 214.871V208.418C299.26 206.645 297.823 205.209 296.051 205.209H226.54C224.768 205.209 223.331 206.645 223.331 208.418V214.871C223.331 216.643 224.768 218.08 226.54 218.08Z" fill="#6FC4F0"/>
<path d="M138.85 204.287V206.695C138.85 207.538 138.577 208.226 138.244 208.226H50.3832C50.0502 208.226 49.7773 207.538 49.7773 206.695V204.287C49.7773 203.445 50.0502 202.756 50.3832 202.756H138.244C138.577 202.756 138.85 203.445 138.85 204.287Z" fill="#9ABFE2"/>
<path d="M138.851 204.287V206.695C138.851 207.538 138.6 208.226 138.295 208.226H68.5426C68.2369 208.226 67.9863 207.538 67.9863 206.695V204.287C67.9863 203.445 68.2369 202.756 68.5426 202.756H138.295C138.6 202.756 138.851 203.445 138.851 204.287Z" fill="#BAD4F4"/>
<path d="M116.612 208.227H54.2363V299.142H116.612V208.227Z" fill="#C8DBF4"/>
<path d="M134.091 208.227H71.7148V299.142H134.091V208.227Z" fill="#DFEBFD"/>
<path d="M130.74 294.125H75.0684V210.797H130.74V294.125ZM75.6686 293.525H130.139V211.399H75.669L75.6686 293.525Z" fill="#6FC4F0"/>
<path d="M130.442 238.362H75.3711V238.963H130.442V238.362Z" fill="#6FC4F0"/>
<path d="M130.442 266.464H75.3711V267.065H130.442V266.464Z" fill="#6FC4F0"/>
<path d="M108.549 216.171H98.3294C98.0904 216.17 97.8615 216.075 97.6926 215.906C97.5236 215.737 97.4284 215.508 97.4277 215.269C97.4284 215.03 97.5235 214.801 97.6925 214.632C97.8615 214.463 98.0904 214.368 98.3294 214.367H108.549C108.788 214.368 109.016 214.463 109.185 214.632C109.354 214.801 109.45 215.03 109.45 215.269C109.45 215.508 109.354 215.737 109.185 215.906C109.016 216.075 108.788 216.17 108.549 216.171Z" fill="#6FC4F0"/>
<path d="M108.549 243.652H98.3294C98.0904 243.652 97.8615 243.556 97.6925 243.387C97.5235 243.218 97.4284 242.989 97.4277 242.75C97.4284 242.512 97.5236 242.283 97.6926 242.114C97.8615 241.945 98.0904 241.849 98.3294 241.849H108.549C108.788 241.849 109.016 241.945 109.185 242.114C109.354 242.283 109.45 242.512 109.45 242.75C109.45 242.989 109.354 243.218 109.185 243.387C109.016 243.556 108.788 243.651 108.549 243.652Z" fill="#6FC4F0"/>
<path d="M108.549 272.3H98.3294C98.0905 272.3 97.8615 272.204 97.6926 272.036C97.5236 271.867 97.4284 271.638 97.4277 271.399C97.4284 271.16 97.5236 270.931 97.6926 270.762C97.8615 270.593 98.0905 270.498 98.3294 270.497H108.549C108.788 270.498 109.016 270.593 109.185 270.762C109.354 270.931 109.45 271.16 109.45 271.399C109.45 271.638 109.354 271.867 109.185 272.035C109.016 272.204 108.788 272.3 108.549 272.3Z" fill="#6FC4F0"/>
<path d="M344.183 0H383.72C384.595 0 385.435 0.347679 386.054 0.966553C386.673 1.58543 387.02 2.4248 387.02 3.30002V41.4605C387.02 42.3357 386.673 43.1751 386.054 43.794C385.435 44.4129 384.595 44.7605 383.72 44.7605H344.183C343.308 44.7605 342.468 44.4128 341.849 43.7939C341.231 43.175 340.883 42.3356 340.883 41.4603V3.30002C340.883 2.4248 341.23 1.58543 341.849 0.966553C342.468 0.347679 343.308 0 344.183 0Z" fill="#C0D8FB"/>
<path d="M345.895 1.93848H382.007C382.403 1.93848 382.794 2.01644 383.16 2.16792C383.526 2.3194 383.858 2.54143 384.138 2.82133C384.418 3.10123 384.64 3.43352 384.791 3.79923C384.943 4.16494 385.021 4.5569 385.021 4.95274V39.8066C385.021 40.2024 384.943 40.5944 384.791 40.9601C384.64 41.3258 384.418 41.6581 384.138 41.938C383.858 42.2179 383.526 42.4399 383.16 42.5914C382.794 42.7429 382.403 42.8208 382.007 42.8208H345.895C345.499 42.8208 345.107 42.7429 344.742 42.5914C344.376 42.4399 344.044 42.2179 343.764 41.938C343.484 41.6581 343.262 41.3258 343.11 40.9601C342.959 40.5944 342.881 40.2024 342.881 39.8066V4.95252C342.881 4.15315 343.198 3.38651 343.764 2.82127C344.329 2.25603 345.096 1.93848 345.895 1.93848Z" fill="#DFEBFD"/>
<path d="M363.952 6.97969C364.48 6.97969 364.907 6.55182 364.907 6.02402C364.907 5.49622 364.48 5.06836 363.952 5.06836C363.424 5.06836 362.996 5.49622 362.996 6.02402C362.996 6.55182 363.424 6.97969 363.952 6.97969Z" fill="#6FC4F0"/>
<path d="M370.708 7.37534C370.8 7.21011 370.939 7.07582 371.107 6.98944C371.275 6.90305 371.465 6.86846 371.653 6.89004C371.84 6.91161 372.018 6.98839 372.162 7.11065C372.306 7.23291 372.41 7.39517 372.462 7.57691C372.514 7.75865 372.511 7.95171 372.453 8.13167C372.396 8.31163 372.286 8.47041 372.138 8.58793C371.99 8.70545 371.81 8.77643 371.622 8.79191C371.433 8.80738 371.245 8.76665 371.079 8.67486C370.858 8.55172 370.694 8.34566 370.625 8.10197C370.555 7.85828 370.585 7.59691 370.708 7.37534Z" fill="#6FC4F0"/>
<path d="M377.315 12.6242C377.474 12.5217 377.659 12.4687 377.848 12.4718C378.037 12.4749 378.221 12.5339 378.376 12.6415C378.532 12.749 378.652 12.9002 378.721 13.076C378.791 13.2517 378.807 13.4442 378.767 13.6289C378.727 13.8137 378.633 13.9824 378.497 14.1139C378.362 14.2454 378.19 14.3336 378.004 14.3675C377.818 14.4014 377.626 14.3794 377.453 14.3043C377.279 14.2292 377.132 14.1043 377.03 13.9455C376.892 13.7325 376.845 13.4736 376.898 13.2258C376.952 12.978 377.102 12.7616 377.315 12.6242Z" fill="#6FC4F0"/>
<path d="M380.589 20.749C380.778 20.7491 380.962 20.8052 381.12 20.9102C381.277 21.0152 381.399 21.1645 381.471 21.3391C381.544 21.5137 381.563 21.7059 381.526 21.8913C381.489 22.0766 381.398 22.2469 381.264 22.3805C381.13 22.5141 380.96 22.6051 380.775 22.642C380.589 22.6789 380.397 22.6599 380.223 22.5876C380.048 22.5152 379.899 22.3928 379.794 22.2356C379.689 22.0784 379.633 21.8937 379.633 21.7047C379.633 21.5792 379.658 21.4549 379.706 21.3389C379.754 21.223 379.824 21.1176 379.913 21.0289C380.002 20.9401 380.107 20.8697 380.223 20.8217C380.339 20.7737 380.463 20.749 380.589 20.749Z" fill="#6FC4F0"/>
<path d="M378.917 30.1773C379.05 30.311 379.141 30.4813 379.178 30.6666C379.215 30.852 379.196 31.0442 379.124 31.2188C379.051 31.3934 378.929 31.5426 378.772 31.6476C378.615 31.7527 378.43 31.8087 378.241 31.8087C378.052 31.8087 377.867 31.7527 377.71 31.6476C377.553 31.5426 377.43 31.3934 377.358 31.2188C377.286 31.0442 377.267 30.852 377.304 30.6666C377.34 30.4813 377.431 30.311 377.565 30.1773C377.744 29.9981 377.987 29.8975 378.241 29.8975C378.494 29.8975 378.737 29.9981 378.917 30.1773Z" fill="#6FC4F0"/>
<path d="M372.914 36.1937C373.048 36.3273 373.139 36.4976 373.176 36.683C373.213 36.8685 373.194 37.0607 373.122 37.2354C373.05 37.4101 372.927 37.5594 372.77 37.6645C372.613 37.7696 372.428 37.8257 372.239 37.8257C372.05 37.8257 371.865 37.7696 371.708 37.6645C371.551 37.5594 371.428 37.4101 371.356 37.2354C371.284 37.0607 371.265 36.8685 371.302 36.683C371.339 36.4976 371.43 36.3273 371.564 36.1937C371.743 36.0147 371.986 35.9141 372.239 35.9141C372.492 35.9141 372.735 36.0147 372.914 36.1937Z" fill="#6FC4F0"/>
<path d="M362.996 39.2945C362.996 39.1055 363.052 38.9208 363.157 38.7636C363.262 38.6064 363.411 38.4839 363.586 38.4116C363.761 38.3393 363.953 38.3204 364.138 38.3572C364.324 38.3941 364.494 38.4851 364.628 38.6188C364.761 38.7524 364.852 38.9227 364.889 39.1081C364.926 39.2935 364.907 39.4856 364.835 39.6603C364.762 39.8349 364.64 39.9841 364.483 40.0891C364.326 40.1941 364.141 40.2502 363.952 40.2502C363.698 40.2502 363.455 40.1495 363.276 39.9703C363.097 39.7911 362.996 39.548 362.996 39.2945Z" fill="#6FC4F0"/>
<path d="M357.166 7.37427C357.074 7.20905 356.935 7.07477 356.767 6.98841C356.599 6.90204 356.409 6.86747 356.221 6.88907C356.034 6.91067 355.857 6.98748 355.712 7.10976C355.568 7.23205 355.464 7.39432 355.412 7.57608C355.36 7.75783 355.363 7.95089 355.421 8.13084C355.479 8.3108 355.589 8.46956 355.737 8.58705C355.885 8.70455 356.064 8.77551 356.253 8.79095C356.441 8.80639 356.63 8.76561 356.795 8.67379C357.016 8.55062 357.18 8.34454 357.25 8.10085C357.319 7.85717 357.289 7.59582 357.166 7.37427Z" fill="#6FC4F0"/>
<path d="M350.558 12.6232C350.399 12.5208 350.213 12.4677 350.024 12.4708C349.835 12.4739 349.651 12.533 349.496 12.6405C349.34 12.748 349.22 12.8993 349.151 13.075C349.081 13.2508 349.066 13.4432 349.105 13.6279C349.145 13.8127 349.239 13.9815 349.375 14.1129C349.511 14.2444 349.682 14.3326 349.868 14.3665C350.054 14.4004 350.246 14.3784 350.419 14.3033C350.593 14.2282 350.74 14.1034 350.843 13.9446C350.98 13.7315 351.027 13.4726 350.974 13.2248C350.92 12.977 350.771 12.7606 350.558 12.6232Z" fill="#6FC4F0"/>
<path d="M347.286 20.7471C347.097 20.7471 346.912 20.8031 346.755 20.9081C346.598 21.0131 346.475 21.1624 346.403 21.337C346.33 21.5116 346.312 21.7038 346.348 21.8892C346.385 22.0746 346.476 22.2448 346.61 22.3785C346.744 22.5121 346.914 22.6032 347.099 22.64C347.285 22.6769 347.477 22.658 347.651 22.5857C347.826 22.5133 347.975 22.3908 348.08 22.2337C348.185 22.0765 348.241 21.8917 348.241 21.7027C348.241 21.4493 348.141 21.2062 347.961 21.027C347.782 20.8478 347.539 20.7471 347.286 20.7471Z" fill="#6FC4F0"/>
<path d="M348.956 30.175C348.822 30.3086 348.731 30.4789 348.694 30.6643C348.657 30.8497 348.676 31.0419 348.748 31.2167C348.821 31.3914 348.943 31.5407 349.1 31.6458C349.258 31.7508 349.442 31.8069 349.631 31.8069C349.821 31.8069 350.005 31.7508 350.163 31.6458C350.32 31.5407 350.442 31.3914 350.514 31.2167C350.587 31.0419 350.606 30.8497 350.569 30.6643C350.532 30.4789 350.441 30.3086 350.307 30.175C350.128 29.996 349.885 29.8955 349.631 29.8955C349.378 29.8955 349.135 29.996 348.956 30.175Z" fill="#6FC4F0"/>
<path d="M355.633 37.8244C356.161 37.8244 356.589 37.3965 356.589 36.8687C356.589 36.341 356.161 35.9131 355.633 35.9131C355.106 35.9131 354.678 36.341 354.678 36.8687C354.678 37.3965 355.106 37.8244 355.633 37.8244Z" fill="#6FC4F0"/>
<path d="M363.695 21.7057C363.695 21.5167 363.751 21.3319 363.856 21.1747C363.961 21.0176 364.111 20.8951 364.285 20.8227C364.46 20.7504 364.652 20.7315 364.837 20.7684C365.023 20.8052 365.193 20.8963 365.327 21.0299C365.46 21.1636 365.551 21.3338 365.588 21.5192C365.625 21.7046 365.606 21.8968 365.534 22.0714C365.462 22.246 365.339 22.3953 365.182 22.5003C365.025 22.6053 364.84 22.6613 364.651 22.6613C364.398 22.6613 364.154 22.5606 363.975 22.3814C363.796 22.2022 363.695 21.9591 363.695 21.7057Z" fill="#6FC4F0"/>
<path d="M364.783 9.76562H364.521V21.705H364.783V9.76562Z" fill="#6FC4F0"/>
<path d="M370.619 16.412L364.289 21.3809L364.772 21.9967L371.102 17.0278L370.619 16.412Z" fill="#6FC4F0"/>
<path d="M266.377 190.44C260.478 200.707 253.059 204.67 253.059 204.67H222.191C222.191 204.67 270.877 182.607 266.377 190.44Z" fill="#233862"/>
<path d="M304.446 292.442C304.112 295.68 308.617 296.517 313.841 296.833C319.065 297.15 317.474 298.203 324.624 299.577C331.774 300.951 334.665 299.022 335.193 298.059C335.665 297.206 332.348 295.827 328.816 294.271C328.371 294.077 327.926 293.877 327.481 293.677C323.505 291.877 321.302 288.271 318.223 284.916C315.308 281.738 312.614 271.635 312.614 271.635L302.902 269.452C302.902 269.452 305.539 278.547 306.446 282.428C306.979 284.711 306.129 287.247 305.377 289.176C304.971 290.226 304.562 291.301 304.446 292.442Z" fill="#F5931D"/>
<path d="M313.84 296.834C319.064 297.15 317.473 298.204 324.623 299.578C331.772 300.952 334.664 299.023 335.192 298.06C335.664 297.207 332.347 295.828 328.815 294.272L328.759 294.332C325.209 295.316 321.459 295.32 317.907 294.345C313.182 293.008 308.631 290.127 305.376 289.177C304.971 290.227 304.561 291.301 304.445 292.442C304.111 295.681 308.616 296.517 313.84 296.834Z" fill="#0F2549"/>
<path d="M289.733 179.923C284.507 176.254 249.938 169.712 232.296 167.82L212.798 150.894C212.798 150.894 196.2 175.476 196.069 194.282C196.008 203.051 200.047 203.922 200.048 203.924C200.048 203.926 262.555 204.387 265.295 204.67C269.78 205.132 275.696 216.305 277.174 226.481C278.653 236.658 304.718 278.047 304.718 278.047C304.718 278.047 310.154 279.788 312.667 279.641C315.371 279.482 316.623 278.576 316.623 278.576C316.623 278.576 301.518 188.199 289.733 179.923Z" fill="#233862"/>
<path d="M288.277 292.442C287.943 295.68 292.448 296.517 297.672 296.833C302.896 297.15 301.305 298.203 308.455 299.577C315.604 300.951 318.496 299.022 319.024 298.059C319.496 297.206 316.179 295.827 312.646 294.271C312.202 294.077 311.757 293.877 311.312 293.677C307.336 291.877 305.133 288.271 302.054 284.916C299.139 281.738 296.445 271.635 296.445 271.635L286.734 269.452C286.734 269.452 289.371 278.547 290.278 282.428C290.811 284.711 289.961 287.247 289.209 289.176C288.803 290.226 288.394 291.301 288.277 292.442Z" fill="#F5931D"/>
<path d="M297.672 296.834C302.896 297.15 301.305 298.204 308.455 299.578C315.604 300.952 318.496 299.023 319.024 298.06C319.496 297.207 316.179 295.828 312.646 294.272L312.591 294.332C309.041 295.316 305.291 295.32 301.739 294.345C297.014 293.008 292.463 290.127 289.208 289.177C288.803 290.227 288.393 291.301 288.277 292.442C287.943 295.681 292.448 296.517 297.672 296.834Z" fill="#233862"/>
<path d="M273.42 179.923C268.88 176.735 255.225 174.264 240.152 172.429C238.116 172.18 236.203 171.32 234.667 169.961C233.13 168.602 232.042 166.809 231.545 164.819L196.485 150.894C196.485 150.894 179.888 175.476 179.757 194.282C179.695 203.051 183.734 203.922 183.735 203.924C183.736 203.926 246.242 204.387 248.983 204.67C253.467 205.132 259.383 216.305 260.862 226.481C262.34 236.658 288.405 278.047 288.405 278.047C288.405 278.047 293.84 279.789 296.354 279.641C299.058 279.482 300.309 278.577 300.309 278.577C300.309 278.577 285.205 188.199 273.42 179.923Z" fill="#2B478B"/>
<path d="M226.506 48.7574C221.688 46.2278 214.357 45.8849 213.166 45.7251C198.915 43.81 190.337 64.519 189.832 70.7938C188.903 82.36 182.784 84.1234 174.172 91.367C156.903 105.891 161.967 122.768 171.41 129.039C177.075 132.802 187.061 129.039 187.061 129.039C187.203 129.138 214.372 113.851 227.764 106.477C247.842 103.622 238.783 55.2044 226.506 48.7574Z" fill="#233862"/>
<path d="M223.533 99.3519C223.595 99.3841 217.2 102.292 212.584 100.767C208.241 99.3359 204.416 92.7976 204.477 92.7881C206.362 92.5148 208.278 90.6554 208.813 79.6367L209.648 79.8468L223.682 83.394C223.682 83.394 223.127 87.84 222.898 92.0438C222.705 95.5726 222.743 98.9328 223.533 99.3519Z" fill="#F5931D"/>
<path d="M223.684 83.3948C223.684 83.3948 223.684 84.3097 223.159 88.446C215.222 86.444 211.722 83.8119 209.254 80.7998L223.684 83.3948Z" fill="#ED975D"/>
<path d="M226.677 83.9534C226.677 83.9534 208.118 86.975 206.414 75.3885C204.71 63.802 201.167 56.3888 212.945 53.9696C224.722 51.5505 227.68 55.6325 229.189 59.3615C230.698 63.0905 231.46 82.8693 226.677 83.9534Z" fill="#F5931D"/>
<path d="M226.693 53.486C226.693 53.486 218.265 66.7898 210.742 69.9406C203.218 73.0915 199.521 71.4918 199.521 71.4918C201.778 67.7778 203.247 63.6392 203.836 59.3334C203.962 58.3245 204.355 57.3675 204.974 56.5613C205.594 55.7552 206.417 55.1292 207.36 54.7482C212.759 52.5858 223.203 49.1761 226.693 53.486Z" fill="#233862"/>
<path d="M219.293 54.7709C219.293 54.7709 224.233 57.3035 226.267 59.677C228.231 61.9676 230.498 68.1826 230.336 70.9743C230.336 70.9743 232.773 57.5976 227.697 53.0002C222.315 48.124 219.293 54.7709 219.293 54.7709Z" fill="#233862"/>
<path d="M238.379 127.658C237.816 165.382 238.224 157.498 234.098 161.078C233.103 161.94 230.308 162.454 226.629 162.697C215.062 163.465 194.728 161.559 193.954 159.421C191.286 152.025 193.17 149.726 190.944 138.402C190.712 137.198 190.424 135.894 190.087 134.475C188.231 126.697 186.425 124.051 193.01 111.555C198.981 100.236 206.004 91.0415 206.561 91.3729C222.316 100.725 222.855 92.8858 222.855 92.8858C222.855 92.8858 238.655 109.257 238.379 127.658Z" fill="white"/>
<path d="M222.857 92.8857C222.857 92.8857 238.982 95.619 240.886 102.599C242.79 109.578 253.992 150.611 253.992 150.611C253.992 150.611 245.751 152.091 241.944 148.284C238.138 144.477 228.696 112.962 228.696 112.962L222.857 92.8857Z" fill="white"/>
<path d="M226.631 162.697C215.063 163.464 194.729 161.559 193.956 159.421C191.288 152.024 193.172 149.726 190.945 138.402L196.525 122.691C196.525 122.691 195.603 140.186 200.762 144.788C205.916 149.389 221.886 153.67 224.394 157.515C225.603 159.36 226.399 161.211 226.631 162.697Z" fill="#EBF3FF"/>
<path d="M213.379 155.339C213.379 155.339 224.791 152.798 226.632 153.811C228.473 154.824 232.974 158.512 233.537 159.795C234.101 161.079 229.438 158.821 227.921 158.414C226.939 158.151 224.353 159.049 223.073 159.476C217.687 161.271 214.387 160.348 214.387 160.348L213.379 155.339Z" fill="#F5931D"/>
<path d="M206.564 91.373C206.564 91.373 190.412 92.3163 185.108 99.7155C177.641 110.13 162.828 154.515 171.317 160.435C180.878 167.102 214.828 162.179 214.828 162.179C214.828 162.179 215.958 156.898 214.386 154.343C212.814 151.789 187.269 147.662 186.089 146.483C184.91 145.304 200.827 123.492 200.827 119.955C200.827 116.418 206.564 91.373 206.564 91.373Z" fill="white"/>
<path d="M227.184 156.987C227.184 156.987 229.575 160.072 230.359 160.44C231.143 160.808 231.649 160.716 231.649 160.716L230.038 157.816L227.184 156.987Z" fill="#F5931D"/>
<path d="M226.631 153.811L233.583 157.186C233.583 157.186 233.287 157.67 232.431 157.631C231.575 157.592 229.416 156.803 229.416 156.803L226.631 153.811Z" fill="#F5931D"/>
<path d="M252.245 161.811H219.957C219.957 161.129 220.228 160.474 220.711 159.991C221.194 159.509 221.848 159.237 222.531 159.237H252.245V161.811Z" fill="#ED7D2B"/>
<path d="M252.151 126.647H302.07L290.096 161.811H239.854L252.151 126.647Z" fill="#ED7D2B"/>
<path d="M302.807 126.646L290.832 161.811H240.59L252.889 126.646H302.807Z" fill="#F99746"/>
<path d="M275.893 143.904C275.583 145.248 274.242 146.337 272.898 146.337C271.555 146.337 270.717 145.248 271.027 143.904C271.338 142.561 272.678 141.472 274.022 141.472C275.365 141.472 276.203 142.561 275.893 143.904Z" fill="white"/>
<path d="M427.559 161.812H208.797C207.877 161.812 207.131 162.557 207.131 163.477V168.057C207.131 168.977 207.877 169.723 208.797 169.723H427.559C428.479 169.723 429.225 168.977 429.225 168.057V163.477C429.225 162.557 428.479 161.812 427.559 161.812Z" fill="#182D4F"/>
<path d="M432.917 300.04L433.011 300.029C433.274 299.999 433.529 299.918 433.761 299.79C433.993 299.662 434.198 299.489 434.362 299.281C434.527 299.073 434.649 298.835 434.721 298.58C434.794 298.325 434.815 298.058 434.783 297.795L415.289 165.836L408.152 166.04L431.09 298.713C431.166 299.126 431.399 299.494 431.739 299.741C432.079 299.988 432.5 300.095 432.917 300.04Z" fill="#182D4F"/>
<path d="M201.474 300.04L201.38 300.029C201.117 299.999 200.862 299.918 200.63 299.79C200.398 299.661 200.194 299.489 200.029 299.281C199.864 299.073 199.742 298.835 199.67 298.58C199.598 298.325 199.576 298.058 199.608 297.795L219.102 165.836L226.239 166.04L203.302 298.713C203.226 299.126 202.994 299.495 202.653 299.742C202.313 299.989 201.891 300.096 201.474 300.04Z" fill="#182D4F"/>
<path d="M246.601 300.04L246.507 300.029C246.244 299.999 245.989 299.918 245.757 299.79C245.525 299.662 245.321 299.489 245.156 299.281C244.991 299.073 244.869 298.835 244.797 298.58C244.725 298.325 244.703 298.058 244.735 297.795L264.228 165.836L271.365 166.04L248.428 298.713C248.351 299.126 248.119 299.494 247.779 299.741C247.439 299.988 247.018 300.095 246.601 300.04Z" fill="#182D4F"/>
<path d="M606.697 298.795H0.828327C0.370855 298.795 0 299.166 0 299.623V300.3C0 300.758 0.370855 301.129 0.828327 301.129H606.697C607.155 301.129 607.526 300.758 607.526 300.3V299.623C607.526 299.166 607.155 298.795 606.697 298.795Z" fill="#F5931D"/>
<path d="M361.611 299.933H400.296C402.156 297.663 401.471 289.284 401.189 286.549C401.131 285.998 401.091 285.677 401.091 285.677C401.091 285.677 387.881 275.111 386.067 283.201C386.011 283.455 385.944 283.703 385.871 283.948C383.585 291.515 373.33 294.955 367.41 295.912C363.561 296.537 362.138 298.538 361.611 299.933Z" fill="#233862"/>
<path d="M467.166 174.235C465.769 174.235 400.902 186.415 390.172 199.696C384.813 206.331 384.016 282.96 384.016 282.96C384.016 282.96 390.647 291.181 404.969 286.407C404.969 286.407 415.47 233.98 414.694 218.078C414.48 213.681 459.015 217.442 467.166 215.332C475.317 213.223 495.233 195.491 490.845 186.852C486.457 178.214 467.166 174.235 467.166 174.235Z" fill="#233862"/>
<path d="M390.448 155.471C390.448 155.471 377.364 155.647 374.269 156.973C371.175 158.3 364.898 161.344 366.578 161.811C368.257 162.278 376.273 161.618 378.004 161.884C379.734 162.149 381.872 161.811 382.933 161.811H388.942L390.448 155.471Z" fill="#F5931D"/>
<path d="M375.153 124.07C375.153 124.07 370.692 120.882 366.36 120.263C363.889 119.91 361.487 119.47 360.036 118.959C356.038 117.55 348.041 110.359 348.646 109.515C350.585 106.812 359.923 112.533 361.553 111.919C363.182 111.305 358.42 107.918 360.076 106.727C360.942 106.106 362.966 109.223 364.62 109.536C366.858 109.959 368.607 113.12 369.281 113.285C370.593 113.606 376.338 117.878 376.338 117.878L375.153 124.07Z" fill="#F5931D"/>
<path d="M460.704 86.8438C460.704 86.8438 450.744 89.9307 440.93 116.954C431.117 143.978 427.39 145.437 423.823 146.498C420.257 147.559 388.945 153.792 388.945 153.792V161.811H437.19C437.19 161.811 455.281 144.603 460.705 133.018C466.128 121.433 460.704 86.8438 460.704 86.8438Z" fill="#ED7D2B"/>
<path d="M344.514 299.933H383.198C385.058 297.663 384.373 289.284 384.091 286.549C384.033 285.998 383.993 285.677 383.993 285.677C383.993 285.677 370.783 275.111 368.969 283.201C368.914 283.455 368.846 283.703 368.773 283.948C366.487 291.515 356.232 294.955 350.312 295.912C346.463 296.537 345.04 298.538 344.514 299.933Z" fill="#1B3051"/>
<path d="M448.049 174.235C446.652 174.235 381.785 186.415 371.055 199.696C365.696 206.331 364.898 282.96 364.898 282.96C364.898 282.96 371.53 291.181 385.852 286.407C385.852 286.407 396.353 233.98 395.577 218.078C395.363 213.681 439.898 217.442 448.049 215.332C456.201 213.223 476.116 195.491 471.728 186.852C467.339 178.214 448.049 174.235 448.049 174.235Z" fill="#2B478B"/>
<path d="M452.11 95.4067C456.777 95.0208 461.669 93.7775 465.898 92.4055C471.184 90.6905 475.445 88.1824 472.699 83.352C470.17 78.8993 466.073 68.9521 466.35 60.7119L456.514 68.6387L449.832 74.0224C449.832 74.0224 449.86 77.1964 450.59 82.7591C450.724 83.773 450.882 84.8658 451.064 86.0374C451.136 86.5002 451.071 86.9741 450.875 87.3998C450.68 87.8255 450.364 88.1842 449.965 88.4311L449.815 88.525C446.494 90.611 448.201 95.7293 452.11 95.4067Z" fill="#F5931D"/>
<path d="M449.831 72.7138C449.831 72.7138 449.49 73.8663 450.077 78.1219C456.033 77.1502 461.602 72.3983 461.602 72.3983C458.569 71.5656 457.466 68.2888 455.207 68.5942L449.831 72.7138Z" fill="#ED975D"/>
<path d="M444.321 73.683C444.321 73.683 467.234 77.4896 469.385 63.1842C471.536 48.8788 475.942 39.7355 461.404 36.7002C446.865 33.665 443.196 38.6954 441.317 43.2956C439.439 47.8957 438.417 72.3245 444.321 73.683Z" fill="#F5931D"/>
<path d="M437.948 36.9654C436.964 40.4101 439.597 44.606 444.017 45.9874C450.579 48.0378 449.129 56.0864 452.082 55.977C455.034 55.8677 456.226 51.3507 458.863 54.9597C461.112 58.038 456.99 61.6874 457.274 63.3756C457.761 66.2735 462.3 72.203 466.391 71.9056C470.482 71.6083 478.137 52.1662 476.606 46.1516C475.075 40.137 468.951 33.7938 463.155 32.9189C457.359 32.0441 449.31 34.5469 447.451 34.5469C445.592 34.5469 438.48 35.1047 437.948 36.9654Z" fill="#2B478B"/>
<path d="M491.149 106.697C487.837 93.3674 478.684 79.3808 472.495 79.3926C461.948 79.4127 446.788 82.1957 440.667 97.296C436.159 108.417 430.145 172.391 436.942 176.941C452.478 187.342 488.49 208.574 494.886 186.922C500.748 167.084 496.897 129.831 491.149 106.697Z" fill="#F99746"/>
<path d="M465.535 93.4337C464.836 91.6128 463.72 89.9808 462.277 88.6685C460.834 87.3563 459.104 86.4002 457.225 85.8769C455.346 85.3536 453.37 85.2776 451.456 85.655C449.543 86.0324 447.744 86.8527 446.204 88.0502C442.624 90.8349 438.242 94.8003 432.948 100.438C413.267 121.397 409.267 121.267 405.57 120.833C401.874 120.4 370.644 113.773 370.644 113.773C369.587 114.608 368.721 115.661 368.104 116.859C366.847 119.406 367.48 121.142 367.48 121.142C366.256 120.352 378.55 128.825 384.669 132.204C392.75 136.666 404.927 140.849 409.776 142.437C411.15 142.887 412.634 142.865 413.994 142.374C421.192 139.781 445.366 130.325 465.044 113.92C470.229 109.598 468.324 100.69 465.535 93.4337Z" fill="#F99746"/>
<path d="M473.558 79.5216L471.17 74.1426C471.17 74.1426 449.797 75.8854 446.205 88.0496C446.205 88.0496 462.772 79.7824 473.558 79.5216Z" fill="white"/>
<path d="M525.446 299.455L525.594 299.452C526.801 299.43 527.733 298.444 527.619 297.308L519.568 216.906L512.543 217.533L524.103 298.369C524.157 298.682 524.323 298.965 524.57 299.165C524.817 299.365 525.129 299.468 525.446 299.455Z" fill="#6FC4F0"/>
<path d="M484.008 299.455L484.156 299.452C485.363 299.43 486.295 298.444 486.181 297.308L478.131 216.906L471.105 217.533L482.665 298.369C482.719 298.682 482.885 298.965 483.132 299.165C483.379 299.365 483.691 299.468 484.008 299.455Z" fill="#6FC4F0"/>
<path d="M406.213 299.455L406.066 299.452C404.859 299.431 403.927 298.445 404.041 297.309L412.092 216.905L419.116 217.532L407.557 298.369C407.503 298.682 407.338 298.965 407.09 299.165C406.843 299.365 406.531 299.468 406.213 299.455Z" fill="#73A2E5"/>
<path d="M523.174 205.515L530.815 138.361C531.817 128.683 528.578 119.207 514.613 118.474L490.045 116.978C475.484 116.377 468.909 128.496 467.066 137.826L452.48 211.645L523.174 205.515Z" fill="#6FC4F0"/>
<path d="M410.026 205.209H523.05V214.097C523.05 215.153 522.631 216.167 521.884 216.914C521.137 217.661 520.124 218.08 519.067 218.08H410.026C408.97 218.08 407.957 217.661 407.21 216.914C406.463 216.167 406.043 215.153 406.043 214.097V209.192C406.043 208.136 406.463 207.123 407.21 206.376C407.957 205.629 408.97 205.209 410.026 205.209Z" fill="#73A2E5"/>
<path d="M455.574 205.209H523.051V214.987C523.051 215.807 522.725 216.594 522.145 217.174C521.565 217.754 520.778 218.08 519.958 218.08H455.574C454.753 218.08 453.967 217.754 453.386 217.174C452.806 216.594 452.48 215.807 452.48 214.987V208.302C452.48 207.482 452.806 206.695 453.386 206.115C453.967 205.535 454.753 205.209 455.574 205.209Z" fill="#6FC4F0"/>
</svg>
