<svg width="628" height="628" viewBox="0 0 628 628" fill="none" xmlns="http://www.w3.org/2000/svg">


<style>
.v0-1 {
  animation-name: sc-2;
  transform-box: fill-box;
  animation-fill-mode: both;
	animation-duration: 2.5s;
  transform-origin: bottom;
	animation-iteration-count: infinite;
  animation-delay: .2s;

}

.v0-2 {
  animation-delay: .4s;
  animation-name: sc-2;
  transform-box: fill-box;
  animation-fill-mode: both;
	animation-duration: 2.5s;
  transform-origin: bottom;
	animation-iteration-count: infinite;
}

.v0-3 {
  animation-delay: .6s;
  animation-name: sc-2;
  transform-box: fill-box;
  animation-fill-mode: both;
	animation-duration: 2.5s;
  transform-origin: bottom;
	animation-iteration-count: infinite;
}

.v0-4 {
  animation-delay: .8s;
  animation-name: sc-2;
  transform-box: fill-box;
  animation-fill-mode: both;
	animation-duration: 2.5s;
  transform-origin: bottom;
	animation-iteration-count: infinite;
}
.v0-5 {
  animation-delay: 1s;
  animation-name: sc-2;
  transform-box: fill-box;
  animation-fill-mode: both;
	animation-duration: 2.5s;
  transform-origin: bottom;
	animation-iteration-count: infinite;
}
.v0-6 {
  animation-delay: 1.2s;
  animation-name: sc-2;
  transform-box: fill-box;
  animation-fill-mode: both;
	animation-duration: 2.5s;
  transform-origin: bottom;
	animation-iteration-count: infinite;
}
.v0-7 {
  animation-delay: 1.4s;
  animation-name: sc-2;
  transform-box: fill-box;
  animation-fill-mode: both;
	animation-duration: 2.5s;
  transform-origin: bottom;
	animation-iteration-count: infinite;
}
.v0-8 {
  animation-delay: 1.6s;
  animation-name: sc-2;
  transform-box: fill-box;
  animation-fill-mode: both;
	animation-duration: 2.5s;
  transform-origin: bottom;
	animation-iteration-count: infinite;
}
.v0-9 {
  animation-delay: 1.8s;
  animation-name: sc-2;
  transform-box: fill-box;
  animation-fill-mode: both;
	animation-duration: 2.5s;
  transform-origin: bottom;
	animation-iteration-count: infinite;
}
.v0-10 {
  animation-delay: 2.2s;
  animation-name: sc-2;
  transform-box: fill-box;
  animation-fill-mode: both;
	animation-duration: 2.5s;
  transform-origin: bottom;
	animation-iteration-count: infinite;
}
.v0-11 {
  animation-delay: 2.2s;
  animation-name: sc-2;
  transform-box: fill-box;
  animation-fill-mode: both;
	animation-duration: 2.5s;
  transform-origin: bottom;
	animation-iteration-count: infinite;
}
.v0-12 {
  animation-delay: 2.4s;
  animation-name: sc-2;
  transform-box: fill-box;
  animation-fill-mode: both;
	animation-duration: 2.5s;
  transform-origin: bottom;
	animation-iteration-count: infinite;
}




@keyframes  sc-2 {
	0% {
   transform: scaleY(1);
   }
	50% {
       transform: scaleY(0);

   }
	100% { 
       transform: scaleY(1);
   }
}

.v1 {
    transform-origin: center;
    animation-name:transtX;
    transform-box: fill-box;
    animation-fill-mode: both;
    animation-duration: 6.5s;
    animation-iteration-count: infinite;
}

@keyframes  transtX{
	0% {
     transform: translateX(28px);
   }
	50% {
       transform: translateX(0px);
   }
	100% { 
    transform: translateX(28px);
   }
}

.v2 {
    transform-origin: center;
    animation-name:transtX1;
    transform-box: fill-box;
    animation-fill-mode: both;
    animation-duration: 6.5s;
    animation-iteration-count: infinite;
}

@keyframes  transtX1{
	0% {
     transform: translateX(28px);
   }
	50% {
       transform: translateX(0px);
   }
	100% { 
    transform: translateX(28px);
   }
}
</style>
















<g clip-path="url(#clip0_79_8493)">
<path d="M627.715 479.781H0.714844V480.095H627.715V479.781Z" fill="#EBEBEB"/>
<path d="M564.89 499.958H523.357V500.272H564.89V499.958Z" fill="#EBEBEB"/>
<path d="M416.065 503.369H405.168V503.683H416.065V503.369Z" fill="#EBEBEB"/>
<path d="M522.103 488.321H498.039V488.635H522.103V488.321Z" fill="#EBEBEB"/>
<path d="M120.66 490.428H66.5V490.741H120.66V490.428Z" fill="#EBEBEB"/>
<path d="M139.772 490.428H131.834V490.741H139.772V490.428Z" fill="#EBEBEB"/>
<path d="M283.053 495.72H165.578V496.033H283.053V495.72Z" fill="#EBEBEB"/>
<path d="M569.165 423.853H327.018C325.12 423.85 323.3 423.094 321.958 421.752C320.616 420.41 319.861 418.591 319.857 416.693V76.3193C319.877 74.4322 320.64 72.6289 321.98 71.3003C323.321 69.9717 325.131 69.2249 327.018 69.2217H569.165C571.049 69.2282 572.854 69.9769 574.19 71.3055C575.526 72.6341 576.284 74.4355 576.3 76.3193V416.693C576.3 418.587 575.549 420.405 574.212 421.747C572.875 423.089 571.06 423.846 569.165 423.853ZM327.018 69.4725C325.203 69.4758 323.463 70.1982 322.18 71.4815C320.897 72.7648 320.174 74.5044 320.171 76.3193V416.693C320.174 418.507 320.897 420.247 322.18 421.53C323.463 422.814 325.203 423.536 327.018 423.539H569.165C570.98 423.536 572.72 422.814 574.003 421.53C575.286 420.247 576.009 418.507 576.012 416.693V76.3193C576.009 74.5044 575.286 72.7648 574.003 71.4815C572.72 70.1982 570.98 69.4758 569.165 69.4725H327.018Z" fill="#EBEBEB"/>
<path class="v0-1" d="M188.1 249.158H179.66V480.095H188.1V249.158Z" fill="#F5F5F5"/>
<path class="v0-2" d="M221.469 278.477H213.029V480.095H221.469V278.477Z" fill="#F5F5F5"/>
<path class="v0-3" d="M254.525 307.795H246.086V480.095H254.525V307.795Z" fill="#F5F5F5"/>
<path class="v0-4" d="M287.592 288.245H279.152V480.095H287.592V288.245Z" fill="#F5F5F5"/>
<path class="v0-5" d="M320.66 278.477H312.221V480.095H320.66V278.477Z" fill="#F5F5F5"/>
<path class="v0-6" d="M353.717 258.927H345.277V480.095H353.717V258.927Z" fill="#F5F5F5"/>
<path class="v0-7" d="M386.783 268.708H378.344V480.095H386.783V268.708Z" fill="#F5F5F5"/>
<path class="v0-8" d="M419.852 258.927H411.412V480.095H419.852V258.927Z" fill="#F5F5F5"/>
<path class="v0-9" d="M452.908 239.377H444.469V480.082H452.908V239.377Z" fill="#F5F5F5"/>
<path class="v0-10" d="M485.975 219.84H477.535V480.095H485.975V219.84Z" fill="#F5F5F5"/>
<path class="v0-11" d="M519.031 200.29H510.592V480.095H519.031V200.29Z" fill="#F5F5F5"/>
<path d="M250.261 294.063C249.791 294.045 249.344 293.853 249.007 293.524L178.357 224.642C177.999 224.293 177.795 223.816 177.789 223.316C177.783 222.816 177.976 222.335 178.325 221.977C178.675 221.62 179.152 221.416 179.651 221.41C180.151 221.404 180.633 221.597 180.99 221.946L250.499 289.725L348.399 218.247C348.778 217.976 349.243 217.855 349.706 217.906C350.168 217.957 350.596 218.176 350.907 218.522L382.959 254.813L515.633 178.796C515.847 178.673 516.084 178.594 516.33 178.563C516.575 178.532 516.825 178.549 517.063 178.614C517.302 178.68 517.526 178.791 517.721 178.943C517.917 179.094 518.081 179.283 518.203 179.498C518.326 179.713 518.405 179.95 518.436 180.195C518.467 180.441 518.45 180.69 518.385 180.929C518.319 181.167 518.208 181.391 518.056 181.587C517.905 181.782 517.716 181.946 517.501 182.069L383.499 258.864C383.122 259.076 382.684 259.154 382.258 259.083C381.831 259.012 381.441 258.798 381.154 258.475L349.227 222.36L251.415 293.7C251.081 293.945 250.675 294.073 250.261 294.063Z" fill="#F0F0F0"/>
<path d="M242.298 478.653L180.638 235.489L183.723 223.338H180.513V153.892H172.237V223.338H169.026L172.111 235.489L110.439 478.653H118.979L172.237 268.633V479.932H180.513V268.633L233.77 478.653H242.298Z" fill="#E0E0E0"/>
<path d="M222.834 233.074C228.891 207.413 212.998 181.701 187.337 175.644C161.676 169.588 135.964 185.48 129.908 211.141C123.851 236.802 139.744 262.514 165.405 268.571C191.065 274.627 216.778 258.735 222.834 233.074Z" fill="#E6E6E6"/>
<path d="M176.376 262.877C198.884 262.877 217.131 244.631 217.131 222.122C217.131 199.614 198.884 181.367 176.376 181.367C153.868 181.367 135.621 199.614 135.621 222.122C135.621 244.631 153.868 262.877 176.376 262.877Z" fill="#F5F5F5"/>
<path d="M176.374 254.023C193.993 254.023 208.276 239.74 208.276 222.121C208.276 204.503 193.993 190.22 176.374 190.22C158.756 190.22 144.473 204.503 144.473 222.121C144.473 239.74 158.756 254.023 176.374 254.023Z" fill="#E6E6E6"/>
<path d="M186.388 246.273C199.728 240.747 206.064 225.452 200.538 212.111C195.012 198.77 179.717 192.435 166.376 197.961C153.036 203.487 146.7 218.782 152.226 232.122C157.752 245.463 173.047 251.798 186.388 246.273Z" fill="#F5F5F5"/>
<path d="M194.031 226.276C196.333 216.522 190.293 206.749 180.539 204.447C170.786 202.145 161.013 208.186 158.711 217.939C156.409 227.693 162.45 237.466 172.203 239.768C181.957 242.07 191.729 236.029 194.031 226.276Z" fill="#E6E6E6"/>
<path d="M181.369 234.154C188.017 231.4 191.174 223.779 188.42 217.131C185.666 210.483 178.045 207.326 171.397 210.079C164.749 212.833 161.592 220.455 164.345 227.103C167.099 233.751 174.721 236.908 181.369 234.154Z" fill="#F5F5F5"/>
<path d="M182.281 222.122C182.281 223.293 181.934 224.438 181.283 225.412C180.632 226.385 179.707 227.144 178.624 227.592C177.542 228.039 176.351 228.156 175.203 227.926C174.054 227.697 173 227.132 172.173 226.303C171.345 225.474 170.783 224.418 170.556 223.269C170.329 222.12 170.448 220.93 170.898 219.848C171.347 218.767 172.108 217.843 173.083 217.195C174.058 216.546 175.204 216.201 176.375 216.203C177.151 216.203 177.921 216.356 178.638 216.654C179.355 216.952 180.007 217.388 180.556 217.937C181.104 218.487 181.539 219.14 181.835 219.858C182.131 220.576 182.283 221.345 182.281 222.122Z" fill="#E6E6E6"/>
<path d="M115.105 182.746L116.397 191.374L107.418 194.396L116.397 199.111L125.35 195.963L123.783 187.461L115.105 182.746Z" fill="#E6E6E6"/>
<path d="M176.376 223.376C176.176 223.374 175.979 223.327 175.799 223.238L111.557 190.308C111.271 190.151 111.057 189.889 110.962 189.577C110.866 189.265 110.895 188.929 111.044 188.638C111.192 188.348 111.448 188.127 111.757 188.022C112.066 187.917 112.403 187.936 112.698 188.076L176.94 220.956C177.236 221.106 177.459 221.367 177.563 221.682C177.666 221.997 177.641 222.34 177.492 222.636C177.395 222.853 177.238 223.037 177.041 223.168C176.843 223.299 176.613 223.371 176.376 223.376Z" fill="#E0E0E0"/>
<g class="v1"> 
<path d="M264.781 168.489C264.775 166.763 265.174 165.061 265.946 163.518C266.718 161.974 267.842 160.634 269.227 159.605C270.611 158.575 272.218 157.885 273.918 157.59C275.618 157.294 277.364 157.402 279.014 157.905C278.524 154.578 278.757 151.184 279.697 147.955C280.637 144.725 282.262 141.737 284.461 139.192C286.66 136.648 289.382 134.607 292.441 133.21C295.5 131.813 298.825 131.091 302.188 131.094C303.631 131.094 305.071 131.228 306.489 131.496C308.797 127.703 312.276 124.764 316.4 123.121C320.525 121.479 325.072 121.222 329.355 122.39C333.639 123.557 337.426 126.086 340.146 129.595C342.866 133.104 344.372 137.402 344.435 141.841H344.787C349.789 141.841 354.586 143.828 358.123 147.365C361.66 150.902 363.647 155.699 363.647 160.701C363.647 165.703 361.66 170.501 358.123 174.038C354.586 177.575 349.789 179.562 344.787 179.562H275.516C272.636 179.48 269.902 178.276 267.897 176.208C265.892 174.14 264.774 171.37 264.781 168.489Z" fill="#F0F0F0"/>
</g>
<path d="M461.522 162.419C461.522 161.006 462.083 159.65 463.083 158.651C464.082 157.651 465.438 157.09 466.851 157.09C467.369 157.095 467.884 157.171 468.381 157.316C468.301 156.776 468.26 156.231 468.256 155.685C468.255 154.026 468.62 152.388 469.324 150.886C470.029 149.384 471.056 148.056 472.333 146.996C473.609 145.937 475.103 145.171 476.709 144.755C478.315 144.339 479.993 144.282 481.623 144.588C482.741 142.764 484.42 141.353 486.408 140.566C488.397 139.779 490.587 139.66 492.65 140.226C494.712 140.792 496.535 142.012 497.844 143.703C499.152 145.395 499.876 147.465 499.907 149.604H500.07C502.481 149.604 504.793 150.561 506.498 152.266C508.203 153.971 509.161 156.284 509.161 158.695C509.161 161.106 508.203 163.419 506.498 165.124C504.793 166.829 502.481 167.787 500.07 167.787H466.701C465.306 167.75 463.981 167.167 463.012 166.163C462.043 165.159 461.508 163.815 461.522 162.419Z" fill="#F0F0F0"/>
<path d="M119.493 169.053C119.493 168.583 119.586 168.117 119.767 167.682C119.947 167.248 120.211 166.853 120.544 166.521C120.878 166.189 121.273 165.926 121.708 165.747C122.143 165.569 122.609 165.477 123.08 165.479C123.428 165.478 123.775 165.529 124.108 165.63C124.053 165.264 124.024 164.895 124.02 164.526C124.037 162.536 124.835 160.631 126.242 159.224C127.65 157.816 129.554 157.018 131.544 157.002C132.016 157.004 132.486 157.05 132.949 157.14C133.693 155.907 134.819 154.95 136.156 154.415C137.493 153.88 138.968 153.795 140.358 154.173C141.747 154.552 142.975 155.373 143.856 156.513C144.737 157.652 145.222 159.048 145.238 160.488H145.351C146.924 160.559 148.41 161.235 149.498 162.373C150.586 163.512 151.193 165.026 151.193 166.601C151.193 168.176 150.586 169.691 149.498 170.829C148.41 171.968 146.924 172.643 145.351 172.715H122.979C122.51 172.703 122.048 172.599 121.618 172.409C121.189 172.219 120.801 171.946 120.478 171.606C120.154 171.266 119.9 170.866 119.731 170.427C119.563 169.989 119.482 169.522 119.493 169.053Z" fill="#F0F0F0"/>
<path d="M314.214 536.412C448.496 536.412 557.352 530.057 557.352 522.217C557.352 514.377 448.496 508.021 314.214 508.021C179.933 508.021 71.0762 514.377 71.0762 522.217C71.0762 530.057 179.933 536.412 314.214 536.412Z" fill="#F5F5F5"/>

<g class="v2"> 
<path d="M174.244 283.104L182.847 278.188C182.847 278.188 186.157 273.084 187.148 272.846C188.138 272.608 199.048 272.846 199.048 272.846C199.048 272.846 197.406 279.919 197.23 281.311C197.054 282.703 186.646 281.311 186.646 281.311L178.219 286.327L174.244 283.104Z" fill="#EBB376"/>
<path d="M94.1266 511.883L85.1229 510.09C84.9621 510.089 84.806 510.143 84.6804 510.244C84.5549 510.344 84.4676 510.485 84.4332 510.642L82.013 519.645C81.962 519.953 82.0275 520.269 82.1968 520.531C82.366 520.793 82.6269 520.982 82.9284 521.062H83.1917C86.3769 521.062 88.6968 520.812 92.6845 520.812C95.1925 520.812 102.566 521.075 105.964 521.075C109.363 521.075 109.814 517.714 108.472 517.413C102.202 516.046 97.5375 514.165 95.5436 512.397C95.1575 512.046 94.6482 511.861 94.1266 511.883Z" fill="#052262"/>
<path d="M204.314 511.582H194.483C194.322 511.579 194.164 511.632 194.038 511.733C193.912 511.834 193.826 511.976 193.793 512.134L192.188 519.407C192.141 519.715 192.21 520.029 192.382 520.288C192.553 520.548 192.815 520.734 193.116 520.812H193.38C196.565 520.749 198.872 520.561 202.872 520.561C205.38 520.561 212.754 520.812 216.152 520.812C219.551 520.812 219.989 517.464 218.598 517.15C212.328 515.796 207.663 513.902 205.669 512.134C205.492 511.956 205.281 511.815 205.048 511.72C204.815 511.625 204.566 511.578 204.314 511.582Z" fill="#052262"/>
<path d="M111.482 345.942L153.115 335.383C162.557 355.999 197.205 440.644 205.607 511.068L191.512 514.642C191.512 514.642 166.558 410.786 145.628 380.464C145.628 380.464 144.512 426.561 142.243 433.27C140.374 438.788 97.5249 512.611 97.5249 512.611L83.6055 511.043C83.6055 511.043 118.592 435.703 120.649 426.31C122.103 419.915 115.733 372.94 115.733 372.94C114.617 368.752 112.937 351.409 112.937 351.409C112.937 351.409 111.683 346.807 111.482 345.942Z" fill="#F5931D"/>
<path opacity="0.2" d="M145.64 380.49C149.173 385.834 152.255 391.463 154.856 397.318C151.972 381.092 143.031 365.379 143.031 365.379L145.64 380.49Z" fill="black"/>
<path opacity="0.3" d="M111.482 345.942L153.115 335.383C162.557 355.999 197.205 440.644 205.607 511.068L191.512 514.642C191.512 514.642 166.558 410.786 145.628 380.464C145.628 380.464 144.512 426.561 142.243 433.27C140.374 438.788 97.5249 512.611 97.5249 512.611L83.6055 511.043C83.6055 511.043 118.592 435.703 120.649 426.31C122.103 419.915 115.733 372.94 115.733 372.94C114.617 368.752 112.937 351.409 112.937 351.409C112.937 351.409 111.683 346.807 111.482 345.942Z" fill="black"/>
<path d="M183.862 283.819C183.862 283.819 164.876 296.635 159.873 297.312C157.879 297.588 153.766 296.911 149.515 296.058C143.069 294.678 136.348 292.747 136.348 292.747L135.508 286.39L134.617 279.593C136.122 279.091 155.76 287.117 158.694 288.371C161.628 289.625 180.601 278.339 180.601 278.339L183.862 283.819Z" fill="#052262"/>
<path d="M125.15 343.007L126.379 347.822L112.936 351.409L111.682 346.418L125.15 343.007Z" fill="black"/>
<path d="M146.355 337.628L147.522 342.192L127.872 347.434L126.643 342.631L146.355 337.628Z" fill="black"/>
<path d="M155.259 340.136L149.001 341.804L147.848 337.252L153.591 335.797L155.259 340.136Z" fill="black"/>
<path d="M135.665 345.357L143.42 343.391L142.002 337.799L134.247 339.766L135.665 345.357Z" fill="white"/>
<path d="M153.578 335.784L111.669 346.418C109.625 340.888 107.543 335.32 105.512 329.89C104.02 325.915 102.552 322.015 101.123 318.24C100.763 317.271 100.4 316.318 100.032 315.381L98.778 312.046C97.85 309.605 96.9555 307.251 96.0944 304.986L93.787 298.954L92.6961 296.095L90.627 290.703L134.63 279.542C149.139 304.86 153.578 335.784 153.578 335.784Z" fill="#052262"/>
<path d="M106.602 289.625C111.129 291.794 119.481 287.969 119.481 287.969C119.481 287.969 122.252 284.91 120.597 283.555C117.236 283.994 117.449 282.891 116.233 281.173C115.537 280.088 115.06 278.879 114.828 277.611C114.678 276.911 114.565 276.204 114.49 275.492L101.285 270.752C104.282 275.592 108.935 284.759 106.602 289.625Z" fill="#EBB376"/>
<path opacity="0.2" d="M105.299 275.078C107.681 281.411 113.525 281.599 116.234 281.173C115.538 280.088 115.061 278.878 114.829 277.611L105.299 275.078Z" fill="black"/>
<path d="M122.505 251.052C122.505 251.052 125.953 261.46 120.975 266.539C115.996 271.617 112.623 251.716 112.623 251.716L122.505 251.052Z" fill="#052262"/>
<path d="M105.951 277.875C107.441 279.429 109.399 280.453 111.526 280.788C113.652 281.123 115.83 280.752 117.726 279.731C120.211 278.446 122.113 276.262 123.043 273.624C123.168 273.273 123.281 272.896 123.382 272.52C125.062 265.51 124.009 253.936 116.372 250.826C114.689 250.132 112.856 249.88 111.048 250.095C109.24 250.309 107.517 250.982 106.043 252.051C104.568 253.119 103.392 254.547 102.625 256.198C101.858 257.849 101.527 259.669 101.662 261.485C102.114 269.297 102.013 273.887 105.951 277.875Z" fill="#EBB376"/>
<path d="M113.488 263.704C113.488 264.331 113.814 264.846 114.241 264.846C114.667 264.846 114.981 264.331 114.993 263.704C115.006 263.077 114.654 262.551 114.241 262.551C113.827 262.551 113.488 263.065 113.488 263.704Z" fill="#052262"/>
<path d="M120.66 263.705C120.66 264.344 120.999 264.858 121.413 264.858C121.826 264.858 122.152 264.332 122.165 263.705C122.177 263.078 121.814 262.563 121.413 262.563C121.011 262.563 120.66 263.103 120.66 263.705Z" fill="#052262"/>
<path d="M118.379 264.018C119.128 265.959 120.146 267.787 121.401 269.447C120.965 269.759 120.467 269.972 119.94 270.069C119.413 270.167 118.872 270.147 118.354 270.012L118.379 264.018Z" fill="#D58745"/>
<path d="M123.282 260.77C123.221 260.8 123.155 260.816 123.087 260.816C123.02 260.816 122.953 260.8 122.893 260.77C122.522 260.484 122.089 260.29 121.63 260.203C121.17 260.116 120.696 260.138 120.247 260.268C120.155 260.303 120.054 260.3 119.964 260.26C119.875 260.22 119.805 260.146 119.77 260.055C119.735 259.963 119.738 259.862 119.778 259.772C119.818 259.683 119.892 259.613 119.984 259.578C120.546 259.401 121.143 259.361 121.724 259.464C122.304 259.567 122.852 259.808 123.319 260.168C123.36 260.194 123.396 260.229 123.423 260.269C123.45 260.31 123.469 260.355 123.479 260.403C123.488 260.451 123.488 260.501 123.477 260.549C123.467 260.596 123.448 260.642 123.42 260.682C123.377 260.717 123.331 260.746 123.282 260.77Z" fill="#052262"/>
<path d="M112.07 260.858C111.998 260.848 111.93 260.822 111.869 260.782C111.8 260.712 111.762 260.617 111.762 260.519C111.762 260.42 111.8 260.326 111.869 260.256C112.308 259.854 112.836 259.565 113.411 259.412C113.985 259.259 114.587 259.248 115.167 259.378C115.259 259.407 115.336 259.47 115.382 259.554C115.429 259.638 115.442 259.736 115.418 259.829C115.389 259.924 115.325 260.004 115.238 260.053C115.152 260.102 115.05 260.116 114.954 260.093C114.497 260.001 114.024 260.019 113.575 260.145C113.126 260.272 112.713 260.503 112.371 260.82C112.326 260.847 112.276 260.864 112.224 260.87C112.173 260.877 112.12 260.873 112.07 260.858Z" fill="#052262"/>
<path d="M107.38 251.804L108.133 253.246C105.625 254.211 106.252 257.171 106.879 258.488C108.133 261.322 106.691 265.874 104.572 267.767C104.572 267.767 104.434 266.513 103.393 266.864C102.352 267.215 102.954 273.711 105.161 276.721C105.161 276.721 101.913 274.05 99.8314 267.303C97.9128 261.033 97.4614 255.804 98.6527 253.296L107.38 251.804Z" fill="#052262"/>
<path d="M98.2508 267.905C98.6774 268.78 99.2725 269.563 100.002 270.209C100.731 270.854 101.581 271.35 102.502 271.667C105.01 272.494 106.264 270.325 105.762 267.905C105.236 265.786 103.342 262.713 100.746 262.952C100.199 263.013 99.6755 263.209 99.2233 263.524C98.7711 263.838 98.4045 264.26 98.1567 264.752C97.9089 265.244 97.7878 265.79 97.8042 266.34C97.8206 266.891 97.9741 267.429 98.2508 267.905Z" fill="#EBB376"/>
<path d="M107.304 281.01C110.991 283.593 118.176 284.433 121.7 279.756C125.224 275.078 124.095 267.567 124.095 267.567C123.691 269.245 122.92 270.812 121.838 272.157C119.844 269.749 116.459 271.116 116.459 271.116C115.745 270.187 114.721 269.546 113.574 269.31C111.932 269.147 107.304 269.423 107.304 269.423C105.825 268.482 105.762 264.294 105.762 264.294L104.859 265.046C104.859 265.046 103.605 278.414 107.304 281.01Z" fill="#052262"/>
<path d="M117.162 254.463C117.162 254.463 125.94 250.199 124.9 245.936C123.859 241.672 121.301 246.538 121.301 246.538C121.301 246.538 122.479 243.302 120.172 242.776C117.865 242.249 118.592 244.318 117.338 245.559C116.084 246.801 103.92 244.995 99.9951 247.428C96.0701 249.861 99.0671 258.275 99.0671 258.275C101.385 255.948 104.332 254.347 107.546 253.67C110.76 252.993 114.102 253.269 117.162 254.463Z" fill="#052262"/>
<path opacity="0.2" d="M107.304 281.01C110.991 283.593 118.176 284.433 121.7 279.756C125.224 275.078 124.095 267.567 124.095 267.567C123.691 269.245 122.92 270.812 121.838 272.157C119.844 269.749 116.459 271.116 116.459 271.116C115.745 270.187 114.721 269.546 113.574 269.31C111.932 269.147 107.304 269.423 107.304 269.423C105.825 268.482 105.762 264.294 105.762 264.294L104.859 265.046C104.859 265.046 103.605 278.414 107.304 281.01Z" fill="white"/>
<path d="M116.835 273.498C116.161 274.401 115.553 275.353 115.017 276.345L114.453 276.131C111.945 275.216 111.042 273.962 110.841 272.833C110.76 272.287 110.807 271.728 110.979 271.203C111.071 270.899 111.201 270.608 111.368 270.338C112.687 271.597 114.261 272.559 115.983 273.159C116.497 273.385 116.835 273.498 116.835 273.498Z" fill="#052262"/>
<path d="M115.982 273.172L115.418 274C113.035 273.134 111.468 272.207 110.979 271.216C111.07 270.912 111.201 270.621 111.367 270.351C112.686 271.61 114.26 272.572 115.982 273.172Z" fill="white"/>
<path d="M114.453 276.131C111.945 275.216 111.042 273.962 110.842 272.833C111.8 273.206 112.686 273.74 113.463 274.413C113.965 274.867 114.312 275.468 114.453 276.131Z" fill="#DE5753"/>
<path d="M121.136 287.981L120.397 294.477L133.94 323.332L132.598 327.156L128.171 325.112L118.516 295.681L111.418 290.878L116.584 288.044L121.136 287.981Z" fill="#F5931D"/>
<path d="M106.904 283.543L115.87 287.242L116.234 281.173L122.842 282.803L123.407 292.045L117.049 289.449L114.39 295.368L103.092 287.819L106.904 283.543Z" fill="#052262"/>
<path opacity="0.2" d="M106.904 283.543L115.87 287.242L116.234 281.173L122.842 282.803L123.407 292.045L117.049 289.449L114.39 295.368L103.092 287.819L106.904 283.543Z" fill="white"/>
<path opacity="0.2" d="M98.7655 312.046C97.8375 309.605 96.943 307.252 96.0819 304.986L93.7746 298.954L92.6836 296.095C93.9376 295.481 97.1353 295.844 98.0256 297.349C101.286 303.042 98.7655 312.046 98.7655 312.046Z" fill="black"/>
<path opacity="0.2" d="M114.477 318.416C113.942 320.88 112.857 323.191 111.305 325.177C109.753 327.164 107.772 328.775 105.511 329.89C104.019 325.915 102.552 322.015 101.122 318.241C100.763 317.271 100.399 316.318 100.031 315.382L98.7773 312.046L113.299 313.889L114.477 318.416Z" fill="black"/>
<path opacity="0.2" d="M149.515 296.007C143.069 294.628 136.348 292.697 136.348 292.697L135.508 286.339C135.508 286.339 147.358 287.605 149.515 296.007Z" fill="black"/>
<path d="M90.6136 444.167C90.2205 444.181 89.8332 444.07 89.5061 443.852C89.179 443.633 88.9286 443.318 88.7902 442.949C88.6518 442.581 88.6323 442.179 88.7344 441.799C88.8366 441.419 89.0552 441.081 89.3596 440.832C110.289 423.652 109.888 396.729 109.499 370.683C109.198 351.045 108.922 332.486 118.164 319.871C131.13 302.139 183.284 274.012 191.924 273.21C198.107 272.595 386.671 220.191 485.523 192.565C486.004 192.43 486.518 192.492 486.953 192.737C487.388 192.981 487.709 193.389 487.843 193.869C487.978 194.35 487.916 194.864 487.672 195.299C487.427 195.734 487.02 196.054 486.539 196.189C474.839 199.462 200.025 276.244 192.275 276.959C184.839 277.649 133.212 305.663 121.199 322.103C112.709 333.703 112.972 351.647 113.261 370.633C113.637 396.315 114.076 425.433 91.7422 443.754C91.4224 444.013 91.0253 444.159 90.6136 444.167Z" fill="#052262"/>
<path opacity="0.4" d="M486.602 196.177L460.82 203.4C389.906 223.188 198.734 276.383 192.338 276.972C184.902 277.662 133.275 305.676 121.262 322.116C112.772 333.715 113.035 351.66 113.324 370.646C113.7 396.328 114.139 425.446 91.8051 443.767C91.4538 444.058 91.0074 444.21 90.5511 444.193C90.158 444.206 89.7707 444.096 89.4436 443.877C89.1165 443.659 88.8661 443.343 88.7277 442.975C88.5893 442.607 88.5698 442.204 88.6719 441.824C88.7741 441.445 88.9927 441.106 89.2971 440.857C110.226 423.677 109.825 396.754 109.436 370.709C109.135 351.071 108.86 332.512 118.102 319.896C131.068 302.165 183.222 274.038 191.862 273.235C197.68 272.658 364.738 226.285 466.839 197.794L485.461 192.59C485.941 192.456 486.456 192.517 486.891 192.762C487.326 193.007 487.646 193.414 487.781 193.894C487.915 194.375 487.854 194.889 487.609 195.325C487.365 195.76 486.957 196.08 486.477 196.214L486.602 196.177Z" fill="white"/>
<path opacity="0.2" d="M486.603 196.177L460.82 203.4C462.628 201.28 464.692 199.392 466.965 197.782L485.587 192.578C486.067 192.443 486.582 192.505 487.017 192.749C487.452 192.994 487.772 193.401 487.907 193.882C488.041 194.362 487.98 194.877 487.735 195.312C487.491 195.747 487.083 196.067 486.603 196.202V196.177Z" fill="black"/>
<path d="M103.43 314.755L113.286 313.889C113.286 313.889 118.44 310.629 119.431 310.842C120.421 311.055 130.24 315.858 130.24 315.858C130.24 315.858 125.789 321.589 125.049 322.78C124.309 323.971 115.443 318.354 115.443 318.354L105.674 319.394L103.43 314.755Z" fill="#EBB376"/>
<path d="M90.6145 290.703C86.1377 293.901 74.4755 319.972 75.717 323.997C76.9584 328.022 113.249 320.084 113.249 320.084L111.644 313.3H92.1193L96.7591 305.977C96.7591 305.977 99.6182 303.193 97.8626 296.722C96.5961 292.057 90.6145 290.703 90.6145 290.703Z" fill="#052262"/>




</g>






<g class="v1"> 
    <path d="M468.719 293.325L461.283 289.801C461.283 289.801 457.521 282.603 456.417 281.45C455.314 280.296 449.984 284.773 449.984 285.55C449.984 286.328 453.847 293.601 454.85 294.04C456.343 294.259 457.859 294.259 459.352 294.04L466.424 297.463L468.719 293.325Z" fill="#9F5B53"/>
    <path d="M486.076 248.72L487.568 243.39C487.568 243.39 489.925 236.443 489.675 234.838C489.214 232.938 488.618 231.074 487.894 229.258C487.894 229.258 481.373 237.196 481.373 238.186C481.373 239.177 483.956 242.776 483.956 242.776L482.702 248.72H486.076Z" fill="#9F5B53"/>
    <path d="M491.806 288.421C491.806 288.421 486.188 281.436 484.532 274.941C482.877 268.445 487.881 247.353 487.881 247.353L482.601 245.948C482.601 245.948 476.331 267.53 476.118 275.405C475.905 283.28 487.617 306.391 487.617 306.391L491.806 288.421Z" fill="#F5931D"/>
    <path opacity="0.2" d="M488.408 302.918L487.605 306.341C487.605 306.341 483.568 298.378 480.27 290.202C483.701 292.668 486.289 296.131 487.681 300.121C487.999 301.032 488.242 301.967 488.408 302.918Z" fill="black"/>
    <path d="M521.55 303.72C521.479 305.177 521.303 306.627 521.023 308.059C520.446 311.194 519.468 314.893 518.352 318.969C517.75 321.113 517.098 323.408 516.521 325.828C513.725 336.7 512.207 341.027 510.138 354.908L470.449 345.491C472.594 333.608 475.865 321.956 480.218 310.692C481.372 307.695 482.726 304.698 484.093 301.739C486.284 297.098 488.864 292.652 491.805 288.446C491.805 288.446 498.225 294.315 518.39 297.839C520.835 298.215 521.675 300.347 521.55 303.72Z" fill="#F5931D"/>
    <path opacity="0.2" d="M516.56 299.193C516.56 300.447 521.313 306.416 521.024 307.971C520.485 308.335 519.845 308.736 519.118 309.225C505.688 317.038 488.069 313.075 480.244 310.655C481.398 307.658 484.006 302.153 485.36 299.193L494.778 301.288C494.778 301.288 510.177 297.776 516.56 299.193Z" fill="black"/>
    <path d="M500.421 290.817C501.863 290.265 513.701 293.212 512.823 293.463C511.945 293.713 507.531 307.257 501.349 306.241C495.166 305.225 495.279 292.773 500.421 290.817Z" fill="#F5931D"/>
    <path d="M446.826 512.712L439.377 514.329L435.025 497.2L442.487 495.582L446.826 512.712Z" fill="#9F5B53"/>
    <path d="M437.52 511.219H446.787C446.938 511.22 447.084 511.272 447.201 511.368C447.317 511.464 447.397 511.598 447.426 511.746L448.931 518.53C448.964 518.675 448.968 518.825 448.942 518.972C448.916 519.118 448.861 519.258 448.781 519.383C448.7 519.508 448.595 519.616 448.473 519.7C448.35 519.784 448.211 519.842 448.066 519.872H447.815C444.818 519.872 442.636 519.634 438.874 519.634C436.554 519.634 429.557 519.872 426.334 519.872C423.111 519.872 422.722 516.712 424.027 516.424C429.908 515.17 434.334 513.364 436.215 511.683C436.391 511.524 436.597 511.4 436.821 511.321C437.045 511.241 437.282 511.207 437.52 511.219Z" fill="#052262"/>
    <path d="M434.999 512.561C434.48 512.6 433.963 512.463 433.531 512.172C433.391 512.057 433.282 511.908 433.216 511.739C433.15 511.57 433.129 511.386 433.155 511.207C433.149 511.101 433.175 510.996 433.228 510.904C433.282 510.813 433.361 510.739 433.456 510.693C434.309 510.254 436.767 511.771 437.043 511.947C437.074 511.962 437.1 511.988 437.116 512.02C437.132 512.051 437.137 512.087 437.13 512.122C437.126 512.159 437.11 512.193 437.086 512.22C437.061 512.247 437.028 512.265 436.992 512.273C436.341 512.443 435.672 512.54 434.999 512.561ZM433.857 510.981C433.784 510.956 433.705 510.956 433.632 510.981C433.632 510.981 433.519 511.044 433.506 511.194C433.493 511.313 433.509 511.433 433.553 511.545C433.597 511.656 433.667 511.755 433.757 511.834C434.609 512.223 435.578 512.273 436.466 511.972C435.669 511.476 434.783 511.14 433.857 510.981Z" fill="#F5931D"/>
    <path d="M436.943 512.286H436.855C436.077 511.859 434.547 510.179 434.698 509.376C434.727 509.241 434.801 509.12 434.908 509.034C435.015 508.947 435.149 508.9 435.287 508.9C435.424 508.882 435.564 508.894 435.696 508.935C435.828 508.976 435.95 509.045 436.052 509.138C436.93 509.853 437.118 512.047 437.131 512.148C437.133 512.18 437.125 512.213 437.11 512.242C437.094 512.271 437.071 512.294 437.043 512.311C437.025 512.316 437.007 512.317 436.989 512.312C436.972 512.308 436.955 512.299 436.943 512.286ZM435.413 509.188H435.325C435.087 509.188 435.074 509.326 435.062 509.376C434.961 509.878 435.939 511.145 436.717 511.734C436.674 510.879 436.372 510.056 435.852 509.376C435.795 509.317 435.727 509.269 435.652 509.237C435.576 509.205 435.495 509.188 435.413 509.188Z" fill="#F5931D"/>
    <path d="M510.465 355.949C510.465 355.949 504.032 386.622 488.984 394.823C487.257 395.794 485.365 396.436 483.404 396.717C483.404 396.717 468.143 402.987 454.951 408.918C446.925 412.542 439.664 416.078 437.069 418.06C430.197 423.289 447.025 504.924 447.025 504.924L435.589 505.05C435.589 505.05 411.525 432.769 415.525 413.796C419.525 394.823 462.713 365.78 462.713 365.78L469.359 347.497L510.465 355.949Z" fill="#052262"/>
    <path opacity="0.2" d="M488.985 394.861C487.258 395.833 485.366 396.475 483.404 396.755C483.404 396.755 468.143 403.025 454.951 408.956C463.441 393.344 478.577 383.199 478.577 383.199L488.985 394.861Z" fill="black"/>
    <path d="M542.706 512.712L535.258 514.329L530.906 497.2L538.368 495.582L542.706 512.712Z" fill="#9F5B53"/>
    <path d="M533.4 511.219H542.668C542.819 511.22 542.965 511.272 543.082 511.368C543.198 511.464 543.278 511.598 543.307 511.746L544.812 518.53C544.845 518.675 544.849 518.825 544.823 518.972C544.797 519.118 544.742 519.258 544.662 519.383C544.581 519.508 544.476 519.616 544.354 519.7C544.231 519.784 544.092 519.842 543.947 519.872H543.696C540.699 519.872 538.517 519.634 534.755 519.634C532.435 519.634 525.438 519.872 522.215 519.872C518.992 519.872 518.603 516.712 519.907 516.424C525.789 515.17 530.215 513.364 532.096 511.683C532.272 511.524 532.478 511.4 532.702 511.321C532.926 511.241 533.163 511.207 533.4 511.219Z" fill="#052262"/>
    <path d="M530.879 512.561C530.361 512.6 529.844 512.463 529.412 512.172C529.272 512.057 529.163 511.908 529.097 511.739C529.031 511.57 529.01 511.386 529.036 511.207C529.03 511.101 529.056 510.996 529.109 510.904C529.163 510.813 529.242 510.739 529.337 510.693C530.19 510.254 532.648 511.771 532.924 511.947C532.955 511.962 532.981 511.988 532.997 512.02C533.013 512.051 533.018 512.087 533.011 512.122C533.007 512.159 532.991 512.193 532.966 512.22C532.942 512.247 532.909 512.265 532.873 512.273C532.222 512.443 531.553 512.54 530.879 512.561ZM529.738 510.981C529.665 510.956 529.586 510.956 529.513 510.981C529.513 510.981 529.4 511.044 529.387 511.194C529.374 511.313 529.39 511.433 529.434 511.545C529.478 511.656 529.548 511.755 529.638 511.834C530.49 512.223 531.459 512.273 532.347 511.972C531.549 511.476 530.664 511.14 529.738 510.981Z" fill="#F5931D"/>
    <path d="M532.823 512.286H532.736C531.958 511.859 530.428 510.179 530.579 509.376C530.607 509.241 530.682 509.12 530.789 509.034C530.896 508.947 531.03 508.9 531.168 508.9C531.305 508.882 531.445 508.894 531.577 508.935C531.709 508.976 531.83 509.045 531.933 509.138C532.811 509.853 532.999 512.047 533.011 512.148C533.013 512.18 533.006 512.213 532.991 512.242C532.975 512.271 532.952 512.294 532.924 512.311C532.906 512.316 532.888 512.317 532.87 512.312C532.852 512.308 532.836 512.299 532.823 512.286ZM531.293 509.188H531.156C530.917 509.188 530.905 509.326 530.892 509.376C530.792 509.878 531.77 511.145 532.547 511.734C532.499 510.866 532.184 510.034 531.645 509.351C531.549 509.26 531.425 509.202 531.293 509.188Z" fill="#F5931D"/>
    <path d="M513.035 297.313C511.167 298.567 502.552 298.09 502.552 298.09L498.552 302.467L498.163 295.231C498.163 295.231 495.467 294.115 496.207 293.338C497.144 293.407 498.087 293.289 498.978 292.99C499.87 292.691 500.693 292.216 501.398 291.595C503.141 289.889 503.48 287.143 503.455 284.422C503.455 284.422 503.455 284.346 503.455 284.321L510.816 280.559L515.907 277.938C513.512 283.105 510.088 292.798 513.035 297.313Z" fill="#9F5B53"/>
    <path opacity="0.2" d="M513.248 282.277C510.815 288.434 504.47 291.181 501.348 291.582C503.091 289.876 503.429 287.13 503.404 284.409C503.41 284.372 503.41 284.334 503.404 284.296L510.765 280.534C510.778 281.537 513.599 281.337 513.248 282.277Z" fill="black"/>
    <path d="M517.927 282.026C517.927 282.026 522.705 284.534 524.297 281.537C525.89 278.54 523.62 278.364 525.965 277.286C528.31 276.208 531.646 275.455 530.881 273.185C530.116 270.916 527.746 270.677 530.379 268.169C533.013 265.661 533.59 262.125 529.652 261.435C525.714 260.746 527.219 257.673 527.019 256.419C526.818 255.165 524.611 254.288 522.216 254.789C519.821 255.291 518.817 251.742 517.338 250.639C515.858 249.535 513.814 250.889 513.275 252.382C512.736 253.874 511.319 251.893 509.212 251.642C507.105 251.391 507.594 253.611 506.942 255.68C506.29 257.749 504.998 256.407 503.494 258.112C501.989 259.818 501.851 271.455 517.927 282.026Z" fill="#052262"/>
    <path d="M520.008 274.878C516.409 280.521 514.366 284.246 510.328 286.077C509.784 286.327 509.222 286.537 508.647 286.704C500.797 289.011 494.327 281.449 496.396 273.963C496.789 272.612 497.293 271.295 497.9 270.025C500.709 264.144 506.114 258.125 512.572 258.915C513.921 259.069 515.226 259.488 516.412 260.147C517.599 260.806 518.643 261.693 519.487 262.756C520.33 263.82 520.955 265.039 521.327 266.344C521.698 267.65 521.808 269.016 521.651 270.364C521.461 271.976 520.899 273.521 520.008 274.878Z" fill="#9F5B53"/>
    <path d="M508.96 271.116C508.696 271.681 508.132 271.931 507.781 271.743C507.43 271.555 507.392 270.941 507.681 270.414C507.969 269.887 508.521 269.599 508.86 269.787C509.198 269.975 509.261 270.602 508.96 271.116Z" fill="#052262"/>
    <path d="M502.879 267.768C502.802 268.004 502.635 268.2 502.415 268.314C502.195 268.429 501.938 268.454 501.701 268.382C501.362 268.182 501.312 267.592 501.613 267.053C501.914 266.514 502.44 266.238 502.792 266.439C503.143 266.639 503.168 267.254 502.879 267.768Z" fill="#052262"/>
    <path d="M504.672 269.11C503.113 270.391 501.388 271.455 499.543 272.27C499.763 272.74 500.084 273.155 500.483 273.487C500.882 273.818 501.349 274.058 501.85 274.189L504.672 269.11Z" fill="#892B29"/>
    <path d="M512.598 269.712C512.532 269.722 512.465 269.714 512.403 269.69C512.342 269.666 512.288 269.626 512.246 269.574C511.992 269.199 511.653 268.89 511.256 268.672C510.86 268.454 510.417 268.333 509.964 268.32C509.912 268.33 509.858 268.328 509.806 268.314C509.754 268.301 509.706 268.276 509.665 268.242C509.624 268.208 509.59 268.165 509.568 268.117C509.545 268.069 509.533 268.016 509.533 267.962C509.533 267.909 509.545 267.856 509.568 267.808C509.59 267.759 509.624 267.716 509.665 267.682C509.706 267.648 509.754 267.624 509.806 267.61C509.858 267.597 509.912 267.595 509.964 267.605C510.536 267.609 511.098 267.751 511.602 268.02C512.107 268.288 512.539 268.675 512.861 269.147C512.89 269.184 512.912 269.226 512.925 269.272C512.938 269.317 512.942 269.365 512.936 269.411C512.93 269.458 512.915 269.503 512.891 269.544C512.868 269.585 512.836 269.621 512.798 269.649C512.737 269.686 512.668 269.707 512.598 269.712Z" fill="#052262"/>
    <path d="M503.318 277.549C504.16 277.823 505.056 277.889 505.929 277.743C506.802 277.597 507.627 277.242 508.334 276.709C508.366 276.672 508.383 276.625 508.383 276.577C508.383 276.529 508.366 276.482 508.334 276.445C508.299 276.411 508.251 276.392 508.202 276.392C508.153 276.392 508.106 276.411 508.071 276.445C507.401 276.927 506.629 277.245 505.815 277.376C505 277.506 504.167 277.445 503.381 277.198C503.359 277.188 503.335 277.183 503.31 277.184C503.286 277.184 503.263 277.19 503.241 277.201C503.219 277.212 503.2 277.227 503.186 277.246C503.171 277.265 503.16 277.287 503.155 277.311C503.145 277.333 503.14 277.357 503.141 277.381C503.141 277.405 503.147 277.429 503.158 277.45C503.169 277.472 503.184 277.491 503.203 277.506C503.222 277.521 503.244 277.531 503.268 277.536L503.318 277.549Z" fill="#052262"/>
    <path d="M502.313 262.564C502.294 262.494 502.294 262.42 502.313 262.351C502.354 262.265 502.427 262.199 502.516 262.166C502.605 262.133 502.703 262.136 502.79 262.175C503.316 262.411 503.778 262.77 504.136 263.221C504.494 263.673 504.737 264.205 504.846 264.771C504.857 264.866 504.83 264.961 504.772 265.036C504.713 265.111 504.627 265.16 504.533 265.172C504.438 265.183 504.343 265.156 504.268 265.097C504.193 265.039 504.144 264.953 504.132 264.859C504.033 264.416 503.832 264.003 503.544 263.652C503.257 263.302 502.891 263.023 502.476 262.84C502.432 262.807 502.394 262.766 502.366 262.719C502.338 262.671 502.32 262.619 502.313 262.564Z" fill="#052262"/>
    <path d="M507.48 259.442C509.311 259.668 510.214 261.95 510.214 261.95C512.428 262.759 514.568 263.758 516.61 264.935C517.232 265.443 517.701 266.114 517.962 266.874C518.224 267.634 518.268 268.452 518.089 269.236C518.027 269.838 516.547 270.389 516.547 270.389C516.547 270.389 513.838 276.785 513.098 278.553L513.475 284.459C518.452 281.312 522.438 276.821 524.974 271.506C529.25 262.602 511.405 254.765 511.405 254.765L507.48 259.442Z" fill="#052262"/>
    <path d="M518.929 283.807C517.261 284.72 515.3 284.937 513.474 284.409C511.054 283.682 511.192 281.199 512.985 279.606C514.59 278.227 517.813 276.86 519.681 278.465C520.09 278.814 520.404 279.261 520.595 279.764C520.785 280.267 520.846 280.81 520.771 281.343C520.696 281.875 520.488 282.38 520.166 282.811C519.844 283.242 519.418 283.584 518.929 283.807Z" fill="#9F5B53"/>
    <path d="M512.823 293.462L502.853 296.334L498.552 302.165L499.718 295.03C499.718 295.03 498.652 293.387 500.42 290.816L494.351 292.07L490.689 298.19L497.812 296.522L498.301 303.632L502.452 298.742L505.85 304.109L515.958 297.701L512.823 293.462Z" fill="#F5931D"/>
    <path opacity="0.2" d="M512.823 293.462L502.853 296.334L498.552 302.165L499.718 295.03C499.718 295.03 498.652 293.387 500.42 290.816L494.351 292.07L490.689 298.19L497.812 296.522L498.301 303.632L502.452 298.742L505.85 304.109L515.958 297.701L512.823 293.462Z" fill="black"/>
    <path d="M470.977 341.34L469.422 347.535L510.453 355.949L511.067 349.064L470.977 341.34Z" fill="black"/>
    <path d="M489.297 344.589C488.971 344.125 479.842 342.156 478.976 342.808C478.976 342.808 477.208 348.915 477.509 349.554C477.81 350.194 486.688 351.435 487.541 351.611C488.394 351.786 489.623 345.103 489.297 344.589ZM486.789 350.859C486.112 350.721 478.813 349.705 478.562 349.178C478.312 348.651 479.816 343.635 479.816 343.635C480.531 343.096 488.03 344.714 488.293 345.09C488.557 345.466 487.466 350.934 486.789 350.796V350.859Z" fill="white"/>
    <path d="M487.142 346.669L485.323 346.293C485.158 346.262 484.986 346.293 484.842 346.381C484.699 346.469 484.593 346.608 484.546 346.77C484.52 346.86 484.513 346.956 484.526 347.049C484.539 347.143 484.571 347.232 484.621 347.313C484.67 347.393 484.736 347.462 484.814 347.515C484.892 347.569 484.98 347.605 485.073 347.623L486.891 347.974C487.067 348.009 487.25 347.972 487.399 347.872C487.549 347.772 487.652 347.617 487.687 347.441C487.722 347.264 487.686 347.081 487.586 346.932C487.486 346.783 487.33 346.679 487.154 346.644L487.142 346.669Z" fill="white"/>
    <path d="M510.452 355.949C510.452 355.949 511.242 402.347 509.938 415.89C508.634 429.434 542.442 503.558 542.442 503.558H531.494C531.494 503.558 498.326 449.284 490.727 432.581C483.128 415.878 477.51 376.026 477.51 376.026L510.452 355.949Z" fill="#052262"/>
    <path d="M521.689 300.46C519.997 296.623 494.001 302.303 491.656 301.639C489.311 300.974 464.908 290.754 464.908 290.754L462.789 296.196C462.789 296.196 484.671 308.736 489.462 310.718C494.252 312.699 513.4 311.746 518.304 309.627C519.143 309.265 519.9 308.736 520.528 308.073C521.157 307.41 521.645 306.626 521.961 305.769C522.278 304.912 522.417 303.999 522.37 303.086C522.324 302.174 522.092 301.28 521.689 300.46Z" fill="#F5931D"/>
</g>

<g class="v2">
<path d="M517.088 200.805L509.213 150.645L467.73 179.976L481.524 185.819C468.207 216.342 425.007 305.764 350.669 371.7C255.754 455.906 122.905 497.338 121.576 497.739L128.925 521.728C134.568 519.998 268.219 478.365 367.36 390.422C446.362 320.348 490.779 227.929 504.723 195.575L517.088 200.805Z" fill="#F5931D"/>
<path opacity="0.4" d="M509.564 192.027L509.213 150.645L467.73 179.976L481.524 185.819C468.207 216.342 425.007 305.764 350.669 371.7C255.754 455.906 122.905 497.338 121.576 497.739L123.909 512.95C129.552 511.22 263.203 473.349 362.344 385.406C441.346 315.332 483.255 221.659 497.199 189.305L509.564 192.027Z" fill="white"/>
<path d="M502.316 202.924C502.12 202.925 501.925 202.896 501.739 202.836L477.65 195.049C477.401 194.984 477.169 194.87 476.967 194.713C476.764 194.555 476.596 194.358 476.473 194.134C476.349 193.909 476.273 193.662 476.249 193.406C476.224 193.151 476.252 192.894 476.331 192.65C476.41 192.406 476.538 192.181 476.707 191.988C476.876 191.795 477.082 191.639 477.314 191.529C477.545 191.419 477.797 191.357 478.053 191.348C478.309 191.339 478.564 191.382 478.803 191.475L502.893 199.25C503.322 199.385 503.688 199.67 503.924 200.053C504.161 200.435 504.253 200.89 504.183 201.334C504.113 201.779 503.887 202.184 503.544 202.475C503.201 202.767 502.766 202.926 502.316 202.924Z" fill="#052262"/>
<path opacity="0.4" d="M502.316 202.924C502.12 202.925 501.925 202.896 501.739 202.836L477.65 195.049C477.401 194.984 477.169 194.87 476.967 194.713C476.764 194.555 476.596 194.358 476.473 194.134C476.349 193.909 476.273 193.662 476.249 193.406C476.224 193.151 476.252 192.894 476.331 192.65C476.41 192.406 476.538 192.181 476.707 191.988C476.876 191.795 477.082 191.639 477.314 191.529C477.545 191.419 477.797 191.357 478.053 191.348C478.309 191.339 478.564 191.382 478.803 191.475L502.893 199.25C503.322 199.385 503.688 199.67 503.924 200.053C504.161 200.435 504.253 200.89 504.183 201.334C504.113 201.779 503.887 202.184 503.544 202.475C503.201 202.767 502.766 202.926 502.316 202.924Z" fill="white"/>
<path d="M213.809 437.672C213.31 437.672 212.831 437.474 212.479 437.121C212.126 436.769 211.928 436.29 211.928 435.791C211.928 375.925 229.321 368.075 232.581 367.11L287.883 328.424L288.008 328.349L500.461 202.372C500.889 202.128 501.396 202.061 501.873 202.188C502.35 202.314 502.758 202.622 503.01 203.047C503.261 203.471 503.336 203.977 503.218 204.456C503.1 204.935 502.799 205.348 502.379 205.607L290.027 331.546L234.462 370.42C234.225 370.585 233.956 370.696 233.672 370.746C233.534 370.746 215.69 375.135 215.69 435.829C215.68 436.321 215.477 436.79 215.126 437.135C214.774 437.479 214.301 437.672 213.809 437.672Z" fill="#052262"/>
<path opacity="0.4" d="M213.809 437.672C213.31 437.672 212.831 437.474 212.479 437.121C212.126 436.769 211.928 436.29 211.928 435.791C211.928 375.925 229.321 368.075 232.581 367.11L287.883 328.424L288.008 328.349L500.461 202.372C500.889 202.128 501.396 202.061 501.873 202.188C502.35 202.314 502.758 202.622 503.01 203.047C503.261 203.471 503.336 203.977 503.218 204.456C503.1 204.935 502.799 205.348 502.379 205.607L290.027 331.546L234.462 370.42C234.225 370.585 233.956 370.696 233.672 370.746C233.534 370.746 215.69 375.135 215.69 435.829C215.68 436.321 215.477 436.79 215.126 437.135C214.774 437.479 214.301 437.672 213.809 437.672Z" fill="white"/>
<path d="M228.254 375.549C228.254 375.549 218.585 381.819 211.237 383.712C209.423 384.325 207.477 384.434 205.606 384.026C200.139 382.295 203.387 371.711 206.647 365.028C207.174 363.937 207.7 362.958 208.19 362.131L217.745 368.037C217.745 368.037 211.952 376.301 212.616 376.815C213.281 377.329 222.209 372.351 222.648 372.188C223.087 372.025 228.254 375.549 228.254 375.549Z" fill="#F5931D"/>
<path opacity="0.2" d="M228.255 375.549C228.255 375.549 218.587 381.819 211.238 383.712C209.198 377.621 207.663 371.371 206.648 365.028C207.175 363.937 207.702 362.958 208.191 362.131L217.746 368.037C217.746 368.037 211.953 376.301 212.617 376.815C213.282 377.329 222.211 372.351 222.649 372.188C223.088 372.025 228.255 375.549 228.255 375.549Z" fill="black"/>
<path d="M275.342 339.158L281.01 334.142C281.463 332.71 282.086 331.338 282.866 330.054C283.48 329.54 293.801 328.737 293.801 328.737C293.801 328.737 294.001 334.192 293.186 335.609C292.371 337.026 283.944 337.641 283.944 337.641L279.43 341.992L275.342 339.158Z" fill="#EEC1BB"/>
<path d="M305.539 458.025C303.921 481.299 299.595 514.33 299.595 514.33L294.027 515.584C294.027 515.584 288.885 487.933 289.701 462.276C289.846 456.683 290.374 451.106 291.281 445.585C291.281 445.585 271.994 438.174 258.601 431.54C252.206 428.38 247.152 425.383 246.187 423.452C243.202 417.496 256.771 403.501 256.771 403.501C257.197 403.84 265.385 409.056 274.916 415.238C287.569 423.44 302.579 433.346 305.012 435.817C306.467 437.234 306.341 446.413 305.539 458.025Z" fill="#EEC1BB"/>
<path opacity="0.2" d="M305.539 458.024C300.392 459.89 295.093 461.304 289.701 462.25C289.847 456.657 290.374 451.081 291.281 445.56C291.281 445.56 271.994 438.149 258.602 431.515L274.904 415.213C287.556 423.414 302.567 433.321 305 435.791C306.467 437.233 306.341 446.412 305.539 458.024Z" fill="black"/>
<path d="M262.125 399.613C262.125 399.613 315.633 430.374 322.906 437.321C330.18 444.268 372.163 509.188 372.163 509.188L368.627 512.561C368.627 512.561 333.766 482.641 319.859 454.2L262.175 426.323L262.125 399.613Z" fill="#EEC1BB"/>
<path d="M221.419 342.82C221.505 342.88 221.598 342.93 221.695 342.97C223.008 343.715 224.458 344.188 225.958 344.362C230.322 344.751 233.131 343.773 234.736 341.591C236.968 338.356 236.918 333.189 235.689 327.107C235.282 324.673 234.491 322.32 233.344 320.135C233.344 320.135 233.344 320.047 233.344 320.035L233.194 319.784C232.496 318.56 231.502 317.531 230.304 316.791C229.106 316.051 227.741 315.622 226.334 315.545C225.11 315.444 223.878 315.478 222.66 315.646C210.747 317.188 211.387 337.277 221.419 342.82Z" fill="#EEC1BB"/>
<path opacity="0.2" d="M221.746 342.97C223.063 343.674 224.51 344.1 225.997 344.224C230.349 344.613 233.145 343.485 234.775 341.29C232.336 342.262 229.647 342.416 227.113 341.729C226.183 341.514 225.216 341.514 224.286 341.729C223.356 341.944 222.487 342.369 221.746 342.97Z" fill="black"/>
<path d="M220.942 352.776C219.902 356.137 224.203 357.917 224.203 357.917C231.727 355.409 233.42 351.735 233.42 351.735C227.651 347.973 230.184 339.271 230.184 339.271L228.93 339.772L220.152 340.7C220.152 340.7 222.146 345.503 222.372 346.581C223.475 352.237 220.942 352.776 220.942 352.776Z" fill="#EBB376"/>
<path d="M233.42 320.022C233.42 320.022 235.25 328.311 227.814 333.014C227.814 333.014 225.62 342.206 220.616 343.046C213.794 344.174 206.408 335.283 207.386 325.026C208.666 311.758 228.002 307.984 233.42 320.022Z" fill="#052262"/>
<path d="M231.451 330.054C231.263 328.8 229.909 326.693 227.915 327.283C225.921 327.872 225.407 333.226 230.749 333.665C231.564 333.816 231.89 332.813 231.451 330.054Z" fill="#EBB376"/>
<path d="M369.831 505.201L364.063 509.64C363.945 509.735 363.862 509.867 363.828 510.015C363.794 510.163 363.81 510.317 363.875 510.455L366.809 516.725C366.872 516.858 366.961 516.977 367.07 517.075C367.179 517.174 367.307 517.249 367.446 517.298C367.584 517.347 367.731 517.368 367.878 517.36C368.025 517.352 368.169 517.315 368.301 517.251C368.376 517.217 368.448 517.175 368.515 517.126C370.847 515.258 370.922 514.969 373.894 512.687C375.713 511.282 381.418 507.219 383.926 505.276C386.434 503.332 384.854 500.586 383.65 501.15C378.233 503.658 373.618 505 371.11 504.812C370.65 504.777 370.194 504.915 369.831 505.201Z" fill="#052262"/>
<path d="M371.084 505.087C371.052 505.103 371.016 505.108 370.981 505.103C370.945 505.097 370.913 505.081 370.887 505.057C370.861 505.032 370.843 505 370.836 504.966C370.828 504.931 370.832 504.894 370.846 504.862C370.958 504.561 371.987 501.865 372.915 501.702C373.017 501.679 373.124 501.688 373.222 501.726C373.32 501.764 373.405 501.829 373.466 501.915C373.594 502.042 373.688 502.2 373.738 502.373C373.789 502.546 373.795 502.729 373.755 502.905C373.606 503.417 373.282 503.861 372.839 504.159C372.292 504.535 371.703 504.846 371.084 505.087ZM371.347 504.573C372.232 504.273 372.968 503.645 373.404 502.818C373.428 502.699 373.423 502.576 373.388 502.46C373.353 502.344 373.289 502.238 373.203 502.153C373.103 502.053 373.015 502.028 372.977 502.065C372.899 502.08 372.826 502.115 372.764 502.165C372.143 502.871 371.662 503.688 371.347 504.573Z" fill="#F5931D"/>
<path d="M371.073 505.15C371.042 505.151 371.011 505.145 370.982 505.132C370.954 505.118 370.929 505.099 370.91 505.075C370.91 504.987 369.656 503.144 369.919 502.04C369.949 501.906 370.005 501.779 370.085 501.667C370.165 501.555 370.266 501.46 370.383 501.388C370.49 501.302 370.623 501.256 370.759 501.256C370.896 501.256 371.029 501.302 371.136 501.388C371.75 501.927 371.562 504.172 371.198 504.987L371.136 505.05L371.073 505.15ZM370.233 502.065C370.229 502.932 370.487 503.78 370.973 504.498C371.272 503.56 371.228 502.546 370.847 501.639C370.847 501.639 370.709 501.501 370.534 501.639H370.458C370.334 501.749 370.254 501.9 370.233 502.065Z" fill="#F5931D"/>
<path d="M300.572 510.63L293.286 510.768C293.137 510.776 292.995 510.834 292.881 510.931C292.768 511.029 292.69 511.161 292.659 511.308L291.293 518.092C291.252 518.375 291.322 518.663 291.487 518.897C291.653 519.13 291.902 519.291 292.183 519.346C292.266 519.358 292.351 519.358 292.434 519.346C295.406 519.233 295.644 519.045 299.393 518.969C301.701 518.969 308.66 519.032 311.846 518.969C315.031 518.907 315.382 515.747 314.078 515.483C308.197 514.33 303.77 512.649 301.864 511.007C301.497 510.721 301.035 510.586 300.572 510.63Z" fill="#052262"/>
<path d="M301.224 511.432C301.187 511.427 301.154 511.409 301.129 511.381C301.103 511.354 301.088 511.319 301.086 511.282C301.076 511.248 301.079 511.213 301.092 511.181C301.106 511.149 301.13 511.122 301.161 511.106C301.425 510.931 303.845 509.376 304.698 509.789C304.794 509.833 304.877 509.903 304.934 509.992C304.992 510.081 305.023 510.185 305.024 510.291C305.049 510.47 305.028 510.652 304.965 510.82C304.901 510.989 304.796 511.139 304.66 511.257C304.238 511.561 303.724 511.707 303.205 511.67C302.538 511.667 301.873 511.587 301.224 511.432ZM301.738 511.169C302.628 511.454 303.593 511.386 304.434 510.981C304.523 510.899 304.59 510.797 304.629 510.683C304.669 510.569 304.679 510.448 304.66 510.329C304.66 510.191 304.585 510.128 304.547 510.128C304.469 510.11 304.387 510.11 304.309 510.128C303.394 510.31 302.522 510.663 301.738 511.169Z" fill="#F5931D"/>
<path d="M301.175 511.47C301.145 511.455 301.121 511.431 301.105 511.402C301.09 511.373 301.083 511.34 301.087 511.307C301.087 511.206 301.225 509.024 302.09 508.285C302.193 508.192 302.314 508.122 302.446 508.081C302.578 508.04 302.718 508.028 302.855 508.046C302.992 508.043 303.126 508.088 303.233 508.172C303.341 508.257 303.415 508.377 303.444 508.51C303.607 509.3 302.19 511.018 301.35 511.445H301.262C301.237 511.464 301.206 511.473 301.175 511.47ZM302.328 508.498C301.811 509.193 301.514 510.027 301.476 510.893C302.253 510.291 303.194 508.999 303.081 508.51C303.081 508.51 303.081 508.335 302.817 508.335H302.73C302.58 508.337 302.437 508.396 302.328 508.498Z" fill="#F5931D"/>
<path d="M260.632 391.375L234.085 402.523C223.112 375.249 208.189 362.132 208.189 362.132C218.823 349.378 238.461 343.51 238.461 343.51C241.362 345.87 243.864 348.682 245.872 351.836C248.086 355.263 250.015 358.866 251.641 362.608C255.585 371.875 258.597 381.511 260.632 391.375Z" fill="#F5931D"/>
<path d="M233.17 325.565C233.17 325.565 241.509 317.063 233.521 311.457C225.533 305.852 217.607 313.338 217.607 313.338C217.607 313.338 198.634 318.116 202.798 330.719C206.961 343.321 209.619 344.362 203.663 350.908C197.706 357.454 191.637 367.11 197.857 373.192C204.077 379.274 225.52 372.753 231.953 363.423C238.386 354.093 226.674 334.318 233.17 325.565Z" fill="#052262"/>
<path d="M258.701 383.198L229.859 393.092C229.859 393.092 236.242 424.505 240.869 429.759C245.497 435.014 276.433 459.341 280.809 457.423C285.186 455.504 314.216 429.759 314.216 429.759L265.097 396.077L258.701 383.198Z" fill="#052262"/>
<path d="M254.5 389.105L260.632 387.074L259.115 384.039L253.309 386.083L254.5 389.105Z" fill="black"/>
<path d="M236.167 392.114L229.885 394.321L230.725 397.005L236.87 394.961L236.167 392.114Z" fill="black"/>
<path d="M238.185 394.523L253.271 389.519L252.142 386.484L237.357 391.688L238.185 394.523Z" fill="black"/>
<path opacity="0.2" d="M251.642 362.658C245.297 361.918 241.723 352.375 241.723 352.375C243.095 352.129 244.481 351.965 245.873 351.886C248.087 355.313 250.017 358.915 251.642 362.658Z" fill="black"/>
<path d="M238.462 343.51C245.359 342.482 260.783 348.074 262.125 348.012C263.466 347.949 278.427 336.187 278.427 336.187L282.314 339.61C282.314 339.61 266.639 355.774 263.416 355.912C260.193 356.05 243.352 354.833 243.352 354.833C243.352 354.833 239.227 353.366 238.437 349.642C237.956 347.625 237.964 345.523 238.462 343.51Z" fill="#F5931D"/>
 </g>
</g>
<defs>
<clipPath id="clip0_79_8493">
<rect width="627" height="627" fill="white" transform="translate(0.714844 0.251953)"/>
</clipPath>
</defs>
</svg>
